G04 #@! TF.GenerationSoftware,KiCad,Pcbnew,(5.0.2-5)-5*
G04 #@! TF.CreationDate,2022-02-02T03:02:31+07:00*
G04 #@! TF.ProjectId,adjustable PSU,61646a75-7374-4616-926c-65205053552e,rev?*
G04 #@! TF.SameCoordinates,Original*
G04 #@! TF.FileFunction,Copper,L1,Top*
G04 #@! TF.FilePolarity,Positive*
%FSLAX46Y46*%
G04 Gerber Fmt 4.6, Leading zero omitted, Abs format (unit mm)*
G04 Created by KiCad (PCBNEW (5.0.2-5)-5) date 2022 February 02, Wednesday 03:02:31*
%MOMM*%
%LPD*%
G01*
G04 APERTURE LIST*
G04 #@! TA.AperFunction,ComponentPad*
%ADD10C,3.600000*%
G04 #@! TD*
G04 #@! TA.AperFunction,ComponentPad*
%ADD11C,1.879600*%
G04 #@! TD*
G04 #@! TA.AperFunction,ComponentPad*
%ADD12C,1.600000*%
G04 #@! TD*
G04 #@! TA.AperFunction,ComponentPad*
%ADD13R,2.670000X2.670000*%
G04 #@! TD*
G04 #@! TA.AperFunction,ComponentPad*
%ADD14C,2.670000*%
G04 #@! TD*
G04 #@! TA.AperFunction,ComponentPad*
%ADD15C,1.524000*%
G04 #@! TD*
G04 #@! TA.AperFunction,ComponentPad*
%ADD16R,1.524000X1.524000*%
G04 #@! TD*
G04 #@! TA.AperFunction,ComponentPad*
%ADD17R,1.879600X1.879600*%
G04 #@! TD*
G04 #@! TA.AperFunction,ComponentPad*
%ADD18C,1.200000*%
G04 #@! TD*
G04 #@! TA.AperFunction,ComponentPad*
%ADD19C,2.032000*%
G04 #@! TD*
G04 #@! TA.AperFunction,ComponentPad*
%ADD20C,1.651000*%
G04 #@! TD*
G04 #@! TA.AperFunction,ComponentPad*
%ADD21R,2.413000X2.413000*%
G04 #@! TD*
G04 #@! TA.AperFunction,ComponentPad*
%ADD22C,2.413000*%
G04 #@! TD*
G04 #@! TA.AperFunction,ComponentPad*
%ADD23C,1.371600*%
G04 #@! TD*
G04 #@! TA.AperFunction,Conductor*
%ADD24C,0.100000*%
G04 #@! TD*
G04 #@! TA.AperFunction,ComponentPad*
%ADD25C,1.981200*%
G04 #@! TD*
G04 #@! TA.AperFunction,ComponentPad*
%ADD26C,1.930400*%
G04 #@! TD*
G04 #@! TA.AperFunction,ViaPad*
%ADD27C,1.200000*%
G04 #@! TD*
G04 #@! TA.AperFunction,Conductor*
%ADD28C,1.000000*%
G04 #@! TD*
G04 #@! TA.AperFunction,Conductor*
%ADD29C,0.500000*%
G04 #@! TD*
G04 APERTURE END LIST*
D10*
G04 #@! TO.P,H5,1*
G04 #@! TO.N,GND*
X134493000Y-77089000D03*
G04 #@! TD*
D11*
G04 #@! TO.P,J2,1*
G04 #@! TO.N,+12Vor+9V*
X140589000Y-89662000D03*
G04 #@! TO.P,J2,2*
G04 #@! TO.N,GND*
X140589000Y-87122000D03*
G04 #@! TD*
D10*
G04 #@! TO.P,H3,1*
G04 #@! TO.N,GND*
X141224000Y-96901000D03*
G04 #@! TD*
G04 #@! TO.P,H2,1*
G04 #@! TO.N,GND*
X185039000Y-101346000D03*
G04 #@! TD*
G04 #@! TO.P,H1,1*
G04 #@! TO.N,GND*
X159893000Y-94170500D03*
G04 #@! TD*
G04 #@! TO.P,H4,1*
G04 #@! TO.N,GND*
X185039000Y-74549000D03*
G04 #@! TD*
D12*
G04 #@! TO.P,C6,+*
G04 #@! TO.N,/-12VDC*
X196424184Y-109739272D03*
G04 #@! TO.P,C6,-*
G04 #@! TO.N,GND*
X196424184Y-113239272D03*
G04 #@! TD*
G04 #@! TO.P,C5,-*
G04 #@! TO.N,GND*
X174453184Y-113290072D03*
G04 #@! TO.P,C5,+*
G04 #@! TO.N,/+12VDC*
X174453184Y-109790072D03*
G04 #@! TD*
D13*
G04 #@! TO.P,DR1,1*
G04 #@! TO.N,/+12VDC*
X179197000Y-105791000D03*
D14*
G04 #@! TO.P,DR1,2*
G04 #@! TO.N,/+12VAC*
X183007000Y-105791000D03*
G04 #@! TO.P,DR1,3*
G04 #@! TO.N,/-12VAC*
X186817000Y-105791000D03*
G04 #@! TO.P,DR1,4*
G04 #@! TO.N,/-12VDC*
X190627000Y-105791000D03*
G04 #@! TD*
D15*
G04 #@! TO.P,J1,6*
G04 #@! TO.N,GND*
X133096000Y-88265000D03*
G04 #@! TO.P,J1,8*
X133096000Y-90805000D03*
G04 #@! TO.P,J1,10*
G04 #@! TO.N,+12Vor+15V*
X133096000Y-93345000D03*
G04 #@! TO.P,J1,4*
G04 #@! TO.N,GND*
X133096000Y-85725000D03*
G04 #@! TO.P,J1,2*
G04 #@! TO.N,-12Vor-15V*
X133096000Y-83185000D03*
D16*
G04 #@! TO.P,J1,1*
X130556000Y-83185000D03*
D15*
G04 #@! TO.P,J1,3*
G04 #@! TO.N,GND*
X130556000Y-85725000D03*
G04 #@! TO.P,J1,5*
X130556000Y-88265000D03*
G04 #@! TO.P,J1,7*
X130556000Y-90805000D03*
G04 #@! TO.P,J1,9*
G04 #@! TO.N,+12Vor+15V*
X130556000Y-93345000D03*
G04 #@! TO.P,J1,12*
G04 #@! TO.N,+5V*
X133096000Y-95885000D03*
G04 #@! TO.P,J1,11*
X130556000Y-95885000D03*
G04 #@! TO.P,J1,14*
G04 #@! TO.N,Net-(J1-Pad14)*
X133096000Y-98425000D03*
G04 #@! TO.P,J1,13*
G04 #@! TO.N,Net-(J1-Pad13)*
X130556000Y-98425000D03*
G04 #@! TO.P,J1,15*
G04 #@! TO.N,Net-(J1-Pad15)*
X130556000Y-100965000D03*
G04 #@! TO.P,J1,16*
G04 #@! TO.N,Net-(J1-Pad16)*
X133096000Y-100965000D03*
G04 #@! TD*
D11*
G04 #@! TO.P,U3,2*
G04 #@! TO.N,GND*
X144526000Y-110577472D03*
D17*
G04 #@! TO.P,U3,1*
G04 #@! TO.N,+12Vor+15V*
X147066000Y-110577472D03*
D11*
G04 #@! TO.P,U3,3*
G04 #@! TO.N,+12Vor+9V*
X141986000Y-110577472D03*
G04 #@! TD*
G04 #@! TO.P,U4,3*
G04 #@! TO.N,+5V*
X147066000Y-77684472D03*
D17*
G04 #@! TO.P,U4,1*
G04 #@! TO.N,+12Vor+9V*
X141986000Y-77684472D03*
D11*
G04 #@! TO.P,U4,2*
G04 #@! TO.N,GND*
X144526000Y-77684472D03*
G04 #@! TD*
G04 #@! TO.P,U1,2*
G04 #@! TO.N,+12Vor+15V*
X160274000Y-110577472D03*
G04 #@! TO.P,U1,3*
G04 #@! TO.N,/+12VDC*
X157734000Y-110577472D03*
D17*
G04 #@! TO.P,U1,1*
G04 #@! TO.N,Net-(C9-Pad+)*
X162814000Y-110577472D03*
G04 #@! TD*
G04 #@! TO.P,U2,1*
G04 #@! TO.N,Net-(C10-Pad+)*
X157734000Y-77684472D03*
D11*
G04 #@! TO.P,U2,3*
G04 #@! TO.N,-12Vor-15V*
X162814000Y-77684472D03*
G04 #@! TO.P,U2,2*
G04 #@! TO.N,/-12VDC*
X160274000Y-77684472D03*
G04 #@! TD*
D18*
G04 #@! TO.P,C16,-*
G04 #@! TO.N,GND*
X130581400Y-113055400D03*
G04 #@! TO.P,C16,+*
G04 #@! TO.N,+5V*
X128581400Y-113055400D03*
G04 #@! TD*
D19*
G04 #@! TO.P,R9,2*
G04 #@! TO.N,Net-(D6-Pad1)*
X134874000Y-105664000D03*
G04 #@! TO.P,R9,1*
G04 #@! TO.N,GND*
X134874000Y-113284000D03*
G04 #@! TD*
D11*
G04 #@! TO.P,D6,1*
G04 #@! TO.N,Net-(D6-Pad1)*
X132181600Y-107188000D03*
G04 #@! TO.P,D6,2*
G04 #@! TO.N,+5V*
X129641600Y-107188000D03*
G04 #@! TD*
D20*
G04 #@! TO.P,C15,+*
G04 #@! TO.N,+12Vor+9V*
X142026640Y-81915000D03*
G04 #@! TO.P,C15,-*
G04 #@! TO.N,GND*
X147025360Y-81915000D03*
G04 #@! TD*
G04 #@! TO.P,C11,-*
G04 #@! TO.N,GND*
X167665400Y-100797360D03*
G04 #@! TO.P,C11,+*
G04 #@! TO.N,/+12VDC*
X167665400Y-95798640D03*
G04 #@! TD*
D18*
G04 #@! TO.P,C14,-*
G04 #@! TO.N,GND*
X141859000Y-104553000D03*
G04 #@! TO.P,C14,+*
G04 #@! TO.N,+12Vor+9V*
X141859000Y-106553000D03*
G04 #@! TD*
D20*
G04 #@! TO.P,C13,+*
G04 #@! TO.N,+12Vor+15V*
X151660860Y-98488500D03*
G04 #@! TO.P,C13,-*
G04 #@! TO.N,GND*
X146662140Y-98488500D03*
G04 #@! TD*
D21*
G04 #@! TO.P,X2,1*
G04 #@! TO.N,/+12VAC*
X181376880Y-111760000D03*
D22*
G04 #@! TO.P,X2,2*
G04 #@! TO.N,GND*
X184874460Y-111760000D03*
G04 #@! TO.P,X2,3*
G04 #@! TO.N,/-12VAC*
X188374580Y-111760000D03*
G04 #@! TD*
D20*
G04 #@! TO.P,C12,-*
G04 #@! TO.N,GND*
X199095360Y-105791000D03*
G04 #@! TO.P,C12,+*
G04 #@! TO.N,/-12VDC*
X194096640Y-105791000D03*
G04 #@! TD*
D18*
G04 #@! TO.P,C9,-*
G04 #@! TO.N,GND*
X172820984Y-104862472D03*
G04 #@! TO.P,C9,+*
G04 #@! TO.N,Net-(C9-Pad+)*
X170820984Y-104862472D03*
G04 #@! TD*
D23*
G04 #@! TO.P,R4,3*
G04 #@! TO.N,GND*
X146685000Y-89598500D03*
G04 #@! TO.P,R4,2*
G04 #@! TO.N,Net-(R2-Pad1)*
X149225000Y-89598500D03*
G04 #@! TO.P,R4,1*
X151765000Y-89598500D03*
G04 #@! TD*
G04 #@! TO.P,R3,3*
G04 #@! TO.N,GND*
X146621500Y-94869000D03*
G04 #@! TO.P,R3,2*
G04 #@! TO.N,Net-(R1-Pad1)*
X149161500Y-94869000D03*
G04 #@! TO.P,R3,1*
X151701500Y-94869000D03*
G04 #@! TD*
D18*
G04 #@! TO.P,C10,+*
G04 #@! TO.N,Net-(C10-Pad+)*
X169291000Y-87122000D03*
G04 #@! TO.P,C10,-*
G04 #@! TO.N,GND*
X169291000Y-89122000D03*
G04 #@! TD*
G04 #@! TO.P,C8,+*
G04 #@! TO.N,-12Vor-15V*
X130581400Y-75509672D03*
G04 #@! TO.P,C8,-*
G04 #@! TO.N,GND*
X128581400Y-75509672D03*
G04 #@! TD*
G04 #@! TO.P,C7,-*
G04 #@! TO.N,GND*
X147320000Y-104553000D03*
G04 #@! TO.P,C7,+*
G04 #@! TO.N,+12Vor+15V*
X147320000Y-106553000D03*
G04 #@! TD*
D24*
G04 #@! TO.N,/+12VDC*
G04 #@! TO.C,D1*
G36*
X165091032Y-106033257D02*
X165139112Y-106040389D01*
X165186262Y-106052199D01*
X165232027Y-106068574D01*
X165275967Y-106089356D01*
X165317658Y-106114345D01*
X165356699Y-106143300D01*
X165392714Y-106175942D01*
X165425356Y-106211957D01*
X165454311Y-106250998D01*
X165479300Y-106292689D01*
X165500082Y-106336629D01*
X165516457Y-106382394D01*
X165528267Y-106429544D01*
X165535399Y-106477624D01*
X165537784Y-106526172D01*
X165537784Y-107516772D01*
X165535399Y-107565320D01*
X165528267Y-107613400D01*
X165516457Y-107660550D01*
X165500082Y-107706315D01*
X165479300Y-107750255D01*
X165454311Y-107791946D01*
X165425356Y-107830987D01*
X165392714Y-107867002D01*
X165356699Y-107899644D01*
X165317658Y-107928599D01*
X165275967Y-107953588D01*
X165232027Y-107974370D01*
X165186262Y-107990745D01*
X165139112Y-108002555D01*
X165091032Y-108009687D01*
X165042484Y-108012072D01*
X164051884Y-108012072D01*
X164003336Y-108009687D01*
X163955256Y-108002555D01*
X163908106Y-107990745D01*
X163862341Y-107974370D01*
X163818401Y-107953588D01*
X163776710Y-107928599D01*
X163737669Y-107899644D01*
X163701654Y-107867002D01*
X163669012Y-107830987D01*
X163640057Y-107791946D01*
X163615068Y-107750255D01*
X163594286Y-107706315D01*
X163577911Y-107660550D01*
X163566101Y-107613400D01*
X163558969Y-107565320D01*
X163556584Y-107516772D01*
X163556584Y-106526172D01*
X163558969Y-106477624D01*
X163566101Y-106429544D01*
X163577911Y-106382394D01*
X163594286Y-106336629D01*
X163615068Y-106292689D01*
X163640057Y-106250998D01*
X163669012Y-106211957D01*
X163701654Y-106175942D01*
X163737669Y-106143300D01*
X163776710Y-106114345D01*
X163818401Y-106089356D01*
X163862341Y-106068574D01*
X163908106Y-106052199D01*
X163955256Y-106040389D01*
X164003336Y-106033257D01*
X164051884Y-106030872D01*
X165042484Y-106030872D01*
X165091032Y-106033257D01*
X165091032Y-106033257D01*
G37*
D25*
G04 #@! TD*
G04 #@! TO.P,D1,1*
G04 #@! TO.N,/+12VDC*
X164547184Y-107021472D03*
G04 #@! TO.P,D1,2*
G04 #@! TO.N,+12Vor+15V*
X155657184Y-107021472D03*
G04 #@! TD*
D24*
G04 #@! TO.N,+12Vor+15V*
G04 #@! TO.C,D2*
G36*
X156201032Y-103112257D02*
X156249112Y-103119389D01*
X156296262Y-103131199D01*
X156342027Y-103147574D01*
X156385967Y-103168356D01*
X156427658Y-103193345D01*
X156466699Y-103222300D01*
X156502714Y-103254942D01*
X156535356Y-103290957D01*
X156564311Y-103329998D01*
X156589300Y-103371689D01*
X156610082Y-103415629D01*
X156626457Y-103461394D01*
X156638267Y-103508544D01*
X156645399Y-103556624D01*
X156647784Y-103605172D01*
X156647784Y-104595772D01*
X156645399Y-104644320D01*
X156638267Y-104692400D01*
X156626457Y-104739550D01*
X156610082Y-104785315D01*
X156589300Y-104829255D01*
X156564311Y-104870946D01*
X156535356Y-104909987D01*
X156502714Y-104946002D01*
X156466699Y-104978644D01*
X156427658Y-105007599D01*
X156385967Y-105032588D01*
X156342027Y-105053370D01*
X156296262Y-105069745D01*
X156249112Y-105081555D01*
X156201032Y-105088687D01*
X156152484Y-105091072D01*
X155161884Y-105091072D01*
X155113336Y-105088687D01*
X155065256Y-105081555D01*
X155018106Y-105069745D01*
X154972341Y-105053370D01*
X154928401Y-105032588D01*
X154886710Y-105007599D01*
X154847669Y-104978644D01*
X154811654Y-104946002D01*
X154779012Y-104909987D01*
X154750057Y-104870946D01*
X154725068Y-104829255D01*
X154704286Y-104785315D01*
X154687911Y-104739550D01*
X154676101Y-104692400D01*
X154668969Y-104644320D01*
X154666584Y-104595772D01*
X154666584Y-103605172D01*
X154668969Y-103556624D01*
X154676101Y-103508544D01*
X154687911Y-103461394D01*
X154704286Y-103415629D01*
X154725068Y-103371689D01*
X154750057Y-103329998D01*
X154779012Y-103290957D01*
X154811654Y-103254942D01*
X154847669Y-103222300D01*
X154886710Y-103193345D01*
X154928401Y-103168356D01*
X154972341Y-103147574D01*
X155018106Y-103131199D01*
X155065256Y-103119389D01*
X155113336Y-103112257D01*
X155161884Y-103109872D01*
X156152484Y-103109872D01*
X156201032Y-103112257D01*
X156201032Y-103112257D01*
G37*
D25*
G04 #@! TD*
G04 #@! TO.P,D2,1*
G04 #@! TO.N,+12Vor+15V*
X155657184Y-104100472D03*
G04 #@! TO.P,D2,2*
G04 #@! TO.N,Net-(C9-Pad+)*
X164547184Y-104100472D03*
G04 #@! TD*
D24*
G04 #@! TO.N,-12Vor-15V*
G04 #@! TO.C,D4*
G36*
X156455032Y-83173257D02*
X156503112Y-83180389D01*
X156550262Y-83192199D01*
X156596027Y-83208574D01*
X156639967Y-83229356D01*
X156681658Y-83254345D01*
X156720699Y-83283300D01*
X156756714Y-83315942D01*
X156789356Y-83351957D01*
X156818311Y-83390998D01*
X156843300Y-83432689D01*
X156864082Y-83476629D01*
X156880457Y-83522394D01*
X156892267Y-83569544D01*
X156899399Y-83617624D01*
X156901784Y-83666172D01*
X156901784Y-84656772D01*
X156899399Y-84705320D01*
X156892267Y-84753400D01*
X156880457Y-84800550D01*
X156864082Y-84846315D01*
X156843300Y-84890255D01*
X156818311Y-84931946D01*
X156789356Y-84970987D01*
X156756714Y-85007002D01*
X156720699Y-85039644D01*
X156681658Y-85068599D01*
X156639967Y-85093588D01*
X156596027Y-85114370D01*
X156550262Y-85130745D01*
X156503112Y-85142555D01*
X156455032Y-85149687D01*
X156406484Y-85152072D01*
X155415884Y-85152072D01*
X155367336Y-85149687D01*
X155319256Y-85142555D01*
X155272106Y-85130745D01*
X155226341Y-85114370D01*
X155182401Y-85093588D01*
X155140710Y-85068599D01*
X155101669Y-85039644D01*
X155065654Y-85007002D01*
X155033012Y-84970987D01*
X155004057Y-84931946D01*
X154979068Y-84890255D01*
X154958286Y-84846315D01*
X154941911Y-84800550D01*
X154930101Y-84753400D01*
X154922969Y-84705320D01*
X154920584Y-84656772D01*
X154920584Y-83666172D01*
X154922969Y-83617624D01*
X154930101Y-83569544D01*
X154941911Y-83522394D01*
X154958286Y-83476629D01*
X154979068Y-83432689D01*
X155004057Y-83390998D01*
X155033012Y-83351957D01*
X155065654Y-83315942D01*
X155101669Y-83283300D01*
X155140710Y-83254345D01*
X155182401Y-83229356D01*
X155226341Y-83208574D01*
X155272106Y-83192199D01*
X155319256Y-83180389D01*
X155367336Y-83173257D01*
X155415884Y-83170872D01*
X156406484Y-83170872D01*
X156455032Y-83173257D01*
X156455032Y-83173257D01*
G37*
D25*
G04 #@! TD*
G04 #@! TO.P,D4,1*
G04 #@! TO.N,-12Vor-15V*
X155911184Y-84161472D03*
G04 #@! TO.P,D4,2*
G04 #@! TO.N,Net-(C10-Pad+)*
X164801184Y-84161472D03*
G04 #@! TD*
D24*
G04 #@! TO.N,/-12VDC*
G04 #@! TO.C,D3*
G36*
X165345032Y-80252257D02*
X165393112Y-80259389D01*
X165440262Y-80271199D01*
X165486027Y-80287574D01*
X165529967Y-80308356D01*
X165571658Y-80333345D01*
X165610699Y-80362300D01*
X165646714Y-80394942D01*
X165679356Y-80430957D01*
X165708311Y-80469998D01*
X165733300Y-80511689D01*
X165754082Y-80555629D01*
X165770457Y-80601394D01*
X165782267Y-80648544D01*
X165789399Y-80696624D01*
X165791784Y-80745172D01*
X165791784Y-81735772D01*
X165789399Y-81784320D01*
X165782267Y-81832400D01*
X165770457Y-81879550D01*
X165754082Y-81925315D01*
X165733300Y-81969255D01*
X165708311Y-82010946D01*
X165679356Y-82049987D01*
X165646714Y-82086002D01*
X165610699Y-82118644D01*
X165571658Y-82147599D01*
X165529967Y-82172588D01*
X165486027Y-82193370D01*
X165440262Y-82209745D01*
X165393112Y-82221555D01*
X165345032Y-82228687D01*
X165296484Y-82231072D01*
X164305884Y-82231072D01*
X164257336Y-82228687D01*
X164209256Y-82221555D01*
X164162106Y-82209745D01*
X164116341Y-82193370D01*
X164072401Y-82172588D01*
X164030710Y-82147599D01*
X163991669Y-82118644D01*
X163955654Y-82086002D01*
X163923012Y-82049987D01*
X163894057Y-82010946D01*
X163869068Y-81969255D01*
X163848286Y-81925315D01*
X163831911Y-81879550D01*
X163820101Y-81832400D01*
X163812969Y-81784320D01*
X163810584Y-81735772D01*
X163810584Y-80745172D01*
X163812969Y-80696624D01*
X163820101Y-80648544D01*
X163831911Y-80601394D01*
X163848286Y-80555629D01*
X163869068Y-80511689D01*
X163894057Y-80469998D01*
X163923012Y-80430957D01*
X163955654Y-80394942D01*
X163991669Y-80362300D01*
X164030710Y-80333345D01*
X164072401Y-80308356D01*
X164116341Y-80287574D01*
X164162106Y-80271199D01*
X164209256Y-80259389D01*
X164257336Y-80252257D01*
X164305884Y-80249872D01*
X165296484Y-80249872D01*
X165345032Y-80252257D01*
X165345032Y-80252257D01*
G37*
D25*
G04 #@! TD*
G04 #@! TO.P,D3,1*
G04 #@! TO.N,/-12VDC*
X164801184Y-81240472D03*
G04 #@! TO.P,D3,2*
G04 #@! TO.N,-12Vor-15V*
X155911184Y-81240472D03*
G04 #@! TD*
D26*
G04 #@! TO.P,C4,+*
G04 #@! TO.N,GND*
X195869329Y-77237327D03*
D24*
G04 #@! TD*
G04 #@! TO.N,GND*
G04 #@! TO.C,C4*
G36*
X195869329Y-78602326D02*
X194504330Y-77237327D01*
X195869329Y-75872328D01*
X197234328Y-77237327D01*
X195869329Y-78602326D01*
X195869329Y-78602326D01*
G37*
D26*
G04 #@! TO.P,C4,-*
G04 #@! TO.N,/-12VDC*
X190208176Y-82898480D03*
G04 #@! TD*
G04 #@! TO.P,C3,-*
G04 #@! TO.N,/-12VDC*
X190208176Y-98526480D03*
G04 #@! TO.P,C3,+*
G04 #@! TO.N,GND*
X195869329Y-92865327D03*
D24*
G04 #@! TD*
G04 #@! TO.N,GND*
G04 #@! TO.C,C3*
G36*
X195869329Y-94230326D02*
X194504330Y-92865327D01*
X195869329Y-91500328D01*
X197234328Y-92865327D01*
X195869329Y-94230326D01*
X195869329Y-94230326D01*
G37*
D26*
G04 #@! TO.P,C2,+*
G04 #@! TO.N,/+12VDC*
X174177439Y-82927217D03*
D24*
G04 #@! TD*
G04 #@! TO.N,/+12VDC*
G04 #@! TO.C,C2*
G36*
X174177439Y-81562218D02*
X175542438Y-82927217D01*
X174177439Y-84292216D01*
X172812440Y-82927217D01*
X174177439Y-81562218D01*
X174177439Y-81562218D01*
G37*
D26*
G04 #@! TO.P,C2,-*
G04 #@! TO.N,GND*
X179838592Y-77266064D03*
G04 #@! TD*
G04 #@! TO.P,C1,-*
G04 #@! TO.N,GND*
X174206176Y-98646480D03*
G04 #@! TO.P,C1,+*
G04 #@! TO.N,/+12VDC*
X179867329Y-92985327D03*
D24*
G04 #@! TD*
G04 #@! TO.N,/+12VDC*
G04 #@! TO.C,C1*
G36*
X179867329Y-94350326D02*
X178502330Y-92985327D01*
X179867329Y-91620328D01*
X181232328Y-92985327D01*
X179867329Y-94350326D01*
X179867329Y-94350326D01*
G37*
D19*
G04 #@! TO.P,R1,1*
G04 #@! TO.N,Net-(R1-Pad1)*
X155081874Y-98276252D03*
G04 #@! TO.P,R1,2*
G04 #@! TO.N,Net-(C9-Pad+)*
X165117414Y-98258472D03*
G04 #@! TD*
G04 #@! TO.P,R2,1*
G04 #@! TO.N,Net-(R2-Pad1)*
X155575000Y-90043000D03*
G04 #@! TO.P,R2,2*
G04 #@! TO.N,Net-(C10-Pad+)*
X165227000Y-90043000D03*
G04 #@! TD*
G04 #@! TO.P,R5,1*
G04 #@! TO.N,Net-(C9-Pad+)*
X164928184Y-101179472D03*
G04 #@! TO.P,R5,2*
G04 #@! TO.N,+12Vor+15V*
X155276184Y-101179472D03*
G04 #@! TD*
G04 #@! TO.P,R6,2*
G04 #@! TO.N,-12Vor-15V*
X155532725Y-87082472D03*
G04 #@! TO.P,R6,1*
G04 #@! TO.N,Net-(C10-Pad+)*
X165184725Y-87082472D03*
G04 #@! TD*
G04 #@! TO.P,R7,1*
G04 #@! TO.N,GND*
X142811500Y-101282500D03*
G04 #@! TO.P,R7,2*
G04 #@! TO.N,+12Vor+15V*
X152463500Y-101282500D03*
G04 #@! TD*
G04 #@! TO.P,R8,2*
G04 #@! TO.N,-12Vor-15V*
X153212800Y-85242400D03*
G04 #@! TO.P,R8,1*
G04 #@! TO.N,GND*
X143560800Y-85242400D03*
G04 #@! TD*
D27*
G04 #@! TO.N,+5V*
X136652000Y-95123000D03*
X136652000Y-91821000D03*
G04 #@! TO.N,+12Vor+9V*
X138303000Y-95123000D03*
X138280141Y-91798141D03*
G04 #@! TD*
D28*
G04 #@! TO.N,GND*
X146621500Y-98447860D02*
X146662140Y-98488500D01*
X146621500Y-94869000D02*
X146621500Y-98447860D01*
G04 #@! TO.N,+5V*
X136652000Y-91821000D02*
X136652000Y-95123000D01*
G04 #@! TO.N,+12Vor+9V*
X138280141Y-95100141D02*
X138303000Y-95123000D01*
X138280141Y-91798141D02*
X138280141Y-95100141D01*
G04 #@! TD*
D29*
G04 #@! TO.N,GND*
G36*
X199764001Y-115182000D02*
X127134000Y-115182000D01*
X127134000Y-113859134D01*
X127299761Y-114107214D01*
X127529586Y-114337039D01*
X127799832Y-114517611D01*
X128100113Y-114641992D01*
X128418889Y-114705400D01*
X128743911Y-114705400D01*
X129062687Y-114641992D01*
X129362968Y-114517611D01*
X129633214Y-114337039D01*
X129863039Y-114107214D01*
X130043611Y-113836968D01*
X130167992Y-113536687D01*
X130231400Y-113217911D01*
X130231400Y-112892889D01*
X130167992Y-112574113D01*
X130043611Y-112273832D01*
X129863039Y-112003586D01*
X129633214Y-111773761D01*
X129362968Y-111593189D01*
X129062687Y-111468808D01*
X128743911Y-111405400D01*
X128418889Y-111405400D01*
X128100113Y-111468808D01*
X127799832Y-111593189D01*
X127529586Y-111773761D01*
X127299761Y-112003586D01*
X127134000Y-112251666D01*
X127134000Y-110381494D01*
X139996200Y-110381494D01*
X139996200Y-110773450D01*
X140072667Y-111157875D01*
X140222662Y-111519996D01*
X140440421Y-111845896D01*
X140717576Y-112123051D01*
X141043476Y-112340810D01*
X141405597Y-112490805D01*
X141790022Y-112567272D01*
X142181978Y-112567272D01*
X142566403Y-112490805D01*
X142928524Y-112340810D01*
X143254424Y-112123051D01*
X143531579Y-111845896D01*
X143749338Y-111519996D01*
X143899333Y-111157875D01*
X143975800Y-110773450D01*
X143975800Y-110381494D01*
X143899333Y-109997069D01*
X143750467Y-109637672D01*
X145071120Y-109637672D01*
X145071120Y-111517272D01*
X145091393Y-111723108D01*
X145151433Y-111921034D01*
X145248933Y-112103443D01*
X145380146Y-112263326D01*
X145540029Y-112394539D01*
X145722438Y-112492039D01*
X145920364Y-112552079D01*
X146126200Y-112572352D01*
X148005800Y-112572352D01*
X148211636Y-112552079D01*
X148409562Y-112492039D01*
X148591971Y-112394539D01*
X148751854Y-112263326D01*
X148883067Y-112103443D01*
X148980567Y-111921034D01*
X149040607Y-111723108D01*
X149060880Y-111517272D01*
X149060880Y-110381494D01*
X155744200Y-110381494D01*
X155744200Y-110773450D01*
X155820667Y-111157875D01*
X155970662Y-111519996D01*
X156188421Y-111845896D01*
X156465576Y-112123051D01*
X156791476Y-112340810D01*
X157153597Y-112490805D01*
X157538022Y-112567272D01*
X157929978Y-112567272D01*
X158314403Y-112490805D01*
X158676524Y-112340810D01*
X159002424Y-112123051D01*
X159004000Y-112121475D01*
X159005576Y-112123051D01*
X159331476Y-112340810D01*
X159693597Y-112490805D01*
X160078022Y-112567272D01*
X160469978Y-112567272D01*
X160854403Y-112490805D01*
X161216524Y-112340810D01*
X161219851Y-112338587D01*
X161288029Y-112394539D01*
X161470438Y-112492039D01*
X161668364Y-112552079D01*
X161874200Y-112572352D01*
X163753800Y-112572352D01*
X163959636Y-112552079D01*
X164157562Y-112492039D01*
X164339971Y-112394539D01*
X164499854Y-112263326D01*
X164631067Y-112103443D01*
X164728567Y-111921034D01*
X164788607Y-111723108D01*
X164808880Y-111517272D01*
X164808880Y-109637672D01*
X164805945Y-109607863D01*
X172603184Y-109607863D01*
X172603184Y-109972281D01*
X172674279Y-110329697D01*
X172813736Y-110666375D01*
X173016195Y-110969378D01*
X173273878Y-111227061D01*
X173576881Y-111429520D01*
X173913559Y-111568977D01*
X174270975Y-111640072D01*
X174635393Y-111640072D01*
X174992809Y-111568977D01*
X175329487Y-111429520D01*
X175632490Y-111227061D01*
X175890173Y-110969378D01*
X176092632Y-110666375D01*
X176139386Y-110553500D01*
X179115300Y-110553500D01*
X179115300Y-112966500D01*
X179135573Y-113172336D01*
X179195613Y-113370262D01*
X179293113Y-113552671D01*
X179424326Y-113712554D01*
X179584209Y-113843767D01*
X179766618Y-113941267D01*
X179964544Y-114001307D01*
X180170380Y-114021580D01*
X182583380Y-114021580D01*
X182789216Y-114001307D01*
X182987142Y-113941267D01*
X183169551Y-113843767D01*
X183329434Y-113712554D01*
X183460647Y-113552671D01*
X183558147Y-113370262D01*
X183618187Y-113172336D01*
X183638460Y-112966500D01*
X183638460Y-111537754D01*
X186118080Y-111537754D01*
X186118080Y-111982246D01*
X186204796Y-112418197D01*
X186374896Y-112828853D01*
X186621842Y-113198435D01*
X186936145Y-113512738D01*
X187305727Y-113759684D01*
X187716383Y-113929784D01*
X188152334Y-114016500D01*
X188596826Y-114016500D01*
X189032777Y-113929784D01*
X189443433Y-113759684D01*
X189813015Y-113512738D01*
X190127318Y-113198435D01*
X190374264Y-112828853D01*
X190544364Y-112418197D01*
X190631080Y-111982246D01*
X190631080Y-111537754D01*
X190544364Y-111101803D01*
X190374264Y-110691147D01*
X190127318Y-110321565D01*
X189813015Y-110007262D01*
X189443433Y-109760316D01*
X189032777Y-109590216D01*
X188866106Y-109557063D01*
X194574184Y-109557063D01*
X194574184Y-109921481D01*
X194645279Y-110278897D01*
X194784736Y-110615575D01*
X194987195Y-110918578D01*
X195244878Y-111176261D01*
X195547881Y-111378720D01*
X195884559Y-111518177D01*
X196241975Y-111589272D01*
X196606393Y-111589272D01*
X196963809Y-111518177D01*
X197300487Y-111378720D01*
X197603490Y-111176261D01*
X197861173Y-110918578D01*
X198063632Y-110615575D01*
X198203089Y-110278897D01*
X198274184Y-109921481D01*
X198274184Y-109557063D01*
X198203089Y-109199647D01*
X198063632Y-108862969D01*
X197861173Y-108559966D01*
X197603490Y-108302283D01*
X197300487Y-108099824D01*
X196963809Y-107960367D01*
X196606393Y-107889272D01*
X196241975Y-107889272D01*
X195884559Y-107960367D01*
X195547881Y-108099824D01*
X195244878Y-108302283D01*
X194987195Y-108559966D01*
X194784736Y-108862969D01*
X194645279Y-109199647D01*
X194574184Y-109557063D01*
X188866106Y-109557063D01*
X188596826Y-109503500D01*
X188152334Y-109503500D01*
X187716383Y-109590216D01*
X187305727Y-109760316D01*
X186936145Y-110007262D01*
X186621842Y-110321565D01*
X186374896Y-110691147D01*
X186204796Y-111101803D01*
X186118080Y-111537754D01*
X183638460Y-111537754D01*
X183638460Y-110553500D01*
X183618187Y-110347664D01*
X183558147Y-110149738D01*
X183460647Y-109967329D01*
X183329434Y-109807446D01*
X183169551Y-109676233D01*
X182987142Y-109578733D01*
X182789216Y-109518693D01*
X182583380Y-109498420D01*
X180170380Y-109498420D01*
X179964544Y-109518693D01*
X179766618Y-109578733D01*
X179584209Y-109676233D01*
X179424326Y-109807446D01*
X179293113Y-109967329D01*
X179195613Y-110149738D01*
X179135573Y-110347664D01*
X179115300Y-110553500D01*
X176139386Y-110553500D01*
X176232089Y-110329697D01*
X176303184Y-109972281D01*
X176303184Y-109607863D01*
X176232089Y-109250447D01*
X176092632Y-108913769D01*
X175890173Y-108610766D01*
X175632490Y-108353083D01*
X175329487Y-108150624D01*
X174992809Y-108011167D01*
X174635393Y-107940072D01*
X174270975Y-107940072D01*
X173913559Y-108011167D01*
X173576881Y-108150624D01*
X173273878Y-108353083D01*
X173016195Y-108610766D01*
X172813736Y-108913769D01*
X172674279Y-109250447D01*
X172603184Y-109607863D01*
X164805945Y-109607863D01*
X164788607Y-109431836D01*
X164728567Y-109233910D01*
X164639433Y-109067152D01*
X165042484Y-109067152D01*
X165344948Y-109037362D01*
X165635789Y-108949136D01*
X165903829Y-108805866D01*
X166138768Y-108613056D01*
X166331578Y-108378117D01*
X166474848Y-108110077D01*
X166563074Y-107819236D01*
X166592864Y-107516772D01*
X166592864Y-106526172D01*
X166563074Y-106223708D01*
X166474848Y-105932867D01*
X166331578Y-105664827D01*
X166138768Y-105429888D01*
X166119459Y-105414042D01*
X166132222Y-105401279D01*
X166355541Y-105067059D01*
X166507597Y-104699961D01*
X169170984Y-104699961D01*
X169170984Y-105024983D01*
X169234392Y-105343759D01*
X169358773Y-105644040D01*
X169539345Y-105914286D01*
X169769170Y-106144111D01*
X170039416Y-106324683D01*
X170339697Y-106449064D01*
X170658473Y-106512472D01*
X170983495Y-106512472D01*
X171302271Y-106449064D01*
X171602552Y-106324683D01*
X171872798Y-106144111D01*
X172102623Y-105914286D01*
X172283195Y-105644040D01*
X172407576Y-105343759D01*
X172470984Y-105024983D01*
X172470984Y-104699961D01*
X172422458Y-104456000D01*
X176806920Y-104456000D01*
X176806920Y-107126000D01*
X176827193Y-107331836D01*
X176887233Y-107529762D01*
X176984733Y-107712171D01*
X177115946Y-107872054D01*
X177275829Y-108003267D01*
X177458238Y-108100767D01*
X177656164Y-108160807D01*
X177862000Y-108181080D01*
X180532000Y-108181080D01*
X180737836Y-108160807D01*
X180935762Y-108100767D01*
X181118171Y-108003267D01*
X181278054Y-107872054D01*
X181409267Y-107712171D01*
X181460125Y-107617024D01*
X181486651Y-107643550D01*
X181877279Y-107904560D01*
X182311321Y-108084346D01*
X182772098Y-108176000D01*
X183241902Y-108176000D01*
X183702679Y-108084346D01*
X184136721Y-107904560D01*
X184527349Y-107643550D01*
X184859550Y-107311349D01*
X184912000Y-107232852D01*
X184964450Y-107311349D01*
X185296651Y-107643550D01*
X185687279Y-107904560D01*
X186121321Y-108084346D01*
X186582098Y-108176000D01*
X187051902Y-108176000D01*
X187512679Y-108084346D01*
X187946721Y-107904560D01*
X188337349Y-107643550D01*
X188669550Y-107311349D01*
X188722000Y-107232852D01*
X188774450Y-107311349D01*
X189106651Y-107643550D01*
X189497279Y-107904560D01*
X189931321Y-108084346D01*
X190392098Y-108176000D01*
X190861902Y-108176000D01*
X191322679Y-108084346D01*
X191756721Y-107904560D01*
X192147349Y-107643550D01*
X192479550Y-107311349D01*
X192673847Y-107020565D01*
X192901078Y-107247796D01*
X193208257Y-107453047D01*
X193549577Y-107594426D01*
X193911919Y-107666500D01*
X194281361Y-107666500D01*
X194643703Y-107594426D01*
X194985023Y-107453047D01*
X195292202Y-107247796D01*
X195553436Y-106986562D01*
X195758687Y-106679383D01*
X195900066Y-106338063D01*
X195972140Y-105975721D01*
X195972140Y-105606279D01*
X195900066Y-105243937D01*
X195758687Y-104902617D01*
X195553436Y-104595438D01*
X195292202Y-104334204D01*
X194985023Y-104128953D01*
X194643703Y-103987574D01*
X194281361Y-103915500D01*
X193911919Y-103915500D01*
X193549577Y-103987574D01*
X193208257Y-104128953D01*
X192901078Y-104334204D01*
X192673847Y-104561435D01*
X192479550Y-104270651D01*
X192147349Y-103938450D01*
X191756721Y-103677440D01*
X191322679Y-103497654D01*
X190861902Y-103406000D01*
X190392098Y-103406000D01*
X189931321Y-103497654D01*
X189497279Y-103677440D01*
X189106651Y-103938450D01*
X188774450Y-104270651D01*
X188722000Y-104349148D01*
X188669550Y-104270651D01*
X188337349Y-103938450D01*
X187946721Y-103677440D01*
X187512679Y-103497654D01*
X187051902Y-103406000D01*
X186582098Y-103406000D01*
X186121321Y-103497654D01*
X185687279Y-103677440D01*
X185296651Y-103938450D01*
X184964450Y-104270651D01*
X184912000Y-104349148D01*
X184859550Y-104270651D01*
X184527349Y-103938450D01*
X184136721Y-103677440D01*
X183702679Y-103497654D01*
X183241902Y-103406000D01*
X182772098Y-103406000D01*
X182311321Y-103497654D01*
X181877279Y-103677440D01*
X181486651Y-103938450D01*
X181460125Y-103964976D01*
X181409267Y-103869829D01*
X181278054Y-103709946D01*
X181118171Y-103578733D01*
X180935762Y-103481233D01*
X180737836Y-103421193D01*
X180532000Y-103400920D01*
X177862000Y-103400920D01*
X177656164Y-103421193D01*
X177458238Y-103481233D01*
X177275829Y-103578733D01*
X177115946Y-103709946D01*
X176984733Y-103869829D01*
X176887233Y-104052238D01*
X176827193Y-104250164D01*
X176806920Y-104456000D01*
X172422458Y-104456000D01*
X172407576Y-104381185D01*
X172283195Y-104080904D01*
X172102623Y-103810658D01*
X171872798Y-103580833D01*
X171602552Y-103400261D01*
X171302271Y-103275880D01*
X170983495Y-103212472D01*
X170658473Y-103212472D01*
X170339697Y-103275880D01*
X170039416Y-103400261D01*
X169769170Y-103580833D01*
X169539345Y-103810658D01*
X169358773Y-104080904D01*
X169234392Y-104381185D01*
X169170984Y-104699961D01*
X166507597Y-104699961D01*
X166509365Y-104695693D01*
X166587784Y-104301454D01*
X166587784Y-103899490D01*
X166509365Y-103505251D01*
X166355541Y-103133885D01*
X166159962Y-102841181D01*
X166245182Y-102784239D01*
X166532951Y-102496470D01*
X166759049Y-102158090D01*
X166914788Y-101782102D01*
X166994184Y-101382955D01*
X166994184Y-100975989D01*
X166914788Y-100576842D01*
X166759049Y-100200854D01*
X166532951Y-99862474D01*
X166484064Y-99813587D01*
X166722181Y-99575470D01*
X166948279Y-99237090D01*
X167104018Y-98861102D01*
X167183414Y-98461955D01*
X167183414Y-98328000D01*
X188192976Y-98328000D01*
X188192976Y-98724960D01*
X188270419Y-99114292D01*
X188422329Y-99481035D01*
X188642868Y-99811095D01*
X188923561Y-100091788D01*
X189253621Y-100312327D01*
X189620364Y-100464237D01*
X190009696Y-100541680D01*
X190406656Y-100541680D01*
X190795988Y-100464237D01*
X191162731Y-100312327D01*
X191492791Y-100091788D01*
X191773484Y-99811095D01*
X191994023Y-99481035D01*
X192145933Y-99114292D01*
X192223376Y-98724960D01*
X192223376Y-98328000D01*
X192145933Y-97938668D01*
X191994023Y-97571925D01*
X191773484Y-97241865D01*
X191492791Y-96961172D01*
X191162731Y-96740633D01*
X190795988Y-96588723D01*
X190406656Y-96511280D01*
X190009696Y-96511280D01*
X189620364Y-96588723D01*
X189253621Y-96740633D01*
X188923561Y-96961172D01*
X188642868Y-97241865D01*
X188422329Y-97571925D01*
X188270419Y-97938668D01*
X188192976Y-98328000D01*
X167183414Y-98328000D01*
X167183414Y-98054989D01*
X167104018Y-97655842D01*
X167074165Y-97583769D01*
X167118337Y-97602066D01*
X167480679Y-97674140D01*
X167850121Y-97674140D01*
X168212463Y-97602066D01*
X168553783Y-97460687D01*
X168860962Y-97255436D01*
X169122196Y-96994202D01*
X169327447Y-96687023D01*
X169468826Y-96345703D01*
X169540900Y-95983361D01*
X169540900Y-95613919D01*
X169468826Y-95251577D01*
X169327447Y-94910257D01*
X169122196Y-94603078D01*
X168860962Y-94341844D01*
X168553783Y-94136593D01*
X168212463Y-93995214D01*
X167850121Y-93923140D01*
X167480679Y-93923140D01*
X167118337Y-93995214D01*
X166777017Y-94136593D01*
X166469838Y-94341844D01*
X166208604Y-94603078D01*
X166003353Y-94910257D01*
X165861974Y-95251577D01*
X165789900Y-95613919D01*
X165789900Y-95983361D01*
X165858712Y-96329306D01*
X165720044Y-96271868D01*
X165320897Y-96192472D01*
X164913931Y-96192472D01*
X164514784Y-96271868D01*
X164138796Y-96427607D01*
X163800416Y-96653705D01*
X163512647Y-96941474D01*
X163286549Y-97279854D01*
X163130810Y-97655842D01*
X163051414Y-98054989D01*
X163051414Y-98461955D01*
X163130810Y-98861102D01*
X163286549Y-99237090D01*
X163512647Y-99575470D01*
X163561534Y-99624357D01*
X163323417Y-99862474D01*
X163097319Y-100200854D01*
X162941580Y-100576842D01*
X162862184Y-100975989D01*
X162862184Y-101382955D01*
X162941580Y-101782102D01*
X163097319Y-102158090D01*
X163308398Y-102473993D01*
X163246377Y-102515434D01*
X162962146Y-102799665D01*
X162738827Y-103133885D01*
X162585003Y-103505251D01*
X162506584Y-103899490D01*
X162506584Y-104301454D01*
X162585003Y-104695693D01*
X162738827Y-105067059D01*
X162962146Y-105401279D01*
X162974909Y-105414042D01*
X162955600Y-105429888D01*
X162762790Y-105664827D01*
X162619520Y-105932867D01*
X162531294Y-106223708D01*
X162501504Y-106526172D01*
X162501504Y-107516772D01*
X162531294Y-107819236D01*
X162619520Y-108110077D01*
X162762790Y-108378117D01*
X162930599Y-108582592D01*
X161874200Y-108582592D01*
X161668364Y-108602865D01*
X161470438Y-108662905D01*
X161288029Y-108760405D01*
X161219851Y-108816357D01*
X161216524Y-108814134D01*
X160854403Y-108664139D01*
X160469978Y-108587672D01*
X160078022Y-108587672D01*
X159693597Y-108664139D01*
X159331476Y-108814134D01*
X159005576Y-109031893D01*
X159004000Y-109033469D01*
X159002424Y-109031893D01*
X158676524Y-108814134D01*
X158314403Y-108664139D01*
X157929978Y-108587672D01*
X157538022Y-108587672D01*
X157153597Y-108664139D01*
X156791476Y-108814134D01*
X156465576Y-109031893D01*
X156188421Y-109309048D01*
X155970662Y-109634948D01*
X155820667Y-109997069D01*
X155744200Y-110381494D01*
X149060880Y-110381494D01*
X149060880Y-109637672D01*
X149040607Y-109431836D01*
X148980567Y-109233910D01*
X148883067Y-109051501D01*
X148751854Y-108891618D01*
X148591971Y-108760405D01*
X148409562Y-108662905D01*
X148211636Y-108602865D01*
X148005800Y-108582592D01*
X146126200Y-108582592D01*
X145920364Y-108602865D01*
X145722438Y-108662905D01*
X145540029Y-108760405D01*
X145380146Y-108891618D01*
X145248933Y-109051501D01*
X145151433Y-109233910D01*
X145091393Y-109431836D01*
X145071120Y-109637672D01*
X143750467Y-109637672D01*
X143749338Y-109634948D01*
X143531579Y-109309048D01*
X143254424Y-109031893D01*
X142928524Y-108814134D01*
X142566403Y-108664139D01*
X142181978Y-108587672D01*
X141790022Y-108587672D01*
X141405597Y-108664139D01*
X141043476Y-108814134D01*
X140717576Y-109031893D01*
X140440421Y-109309048D01*
X140222662Y-109634948D01*
X140072667Y-109997069D01*
X139996200Y-110381494D01*
X127134000Y-110381494D01*
X127134000Y-106992022D01*
X127651800Y-106992022D01*
X127651800Y-107383978D01*
X127728267Y-107768403D01*
X127878262Y-108130524D01*
X128096021Y-108456424D01*
X128373176Y-108733579D01*
X128699076Y-108951338D01*
X129061197Y-109101333D01*
X129445622Y-109177800D01*
X129837578Y-109177800D01*
X130222003Y-109101333D01*
X130584124Y-108951338D01*
X130910024Y-108733579D01*
X130911600Y-108732003D01*
X130913176Y-108733579D01*
X131239076Y-108951338D01*
X131601197Y-109101333D01*
X131985622Y-109177800D01*
X132377578Y-109177800D01*
X132762003Y-109101333D01*
X133124124Y-108951338D01*
X133450024Y-108733579D01*
X133727179Y-108456424D01*
X133944938Y-108130524D01*
X134094933Y-107768403D01*
X134130012Y-107592052D01*
X134271370Y-107650604D01*
X134670517Y-107730000D01*
X135077483Y-107730000D01*
X135476630Y-107650604D01*
X135852618Y-107494865D01*
X136190998Y-107268767D01*
X136478767Y-106980998D01*
X136704865Y-106642618D01*
X136809300Y-106390489D01*
X140209000Y-106390489D01*
X140209000Y-106715511D01*
X140272408Y-107034287D01*
X140396789Y-107334568D01*
X140577361Y-107604814D01*
X140807186Y-107834639D01*
X141077432Y-108015211D01*
X141377713Y-108139592D01*
X141696489Y-108203000D01*
X142021511Y-108203000D01*
X142340287Y-108139592D01*
X142640568Y-108015211D01*
X142910814Y-107834639D01*
X143140639Y-107604814D01*
X143321211Y-107334568D01*
X143445592Y-107034287D01*
X143509000Y-106715511D01*
X143509000Y-106390489D01*
X145670000Y-106390489D01*
X145670000Y-106715511D01*
X145733408Y-107034287D01*
X145857789Y-107334568D01*
X146038361Y-107604814D01*
X146268186Y-107834639D01*
X146538432Y-108015211D01*
X146838713Y-108139592D01*
X147157489Y-108203000D01*
X147482511Y-108203000D01*
X147801287Y-108139592D01*
X148101568Y-108015211D01*
X148371814Y-107834639D01*
X148601639Y-107604814D01*
X148782211Y-107334568D01*
X148906592Y-107034287D01*
X148970000Y-106715511D01*
X148970000Y-106390489D01*
X148906592Y-106071713D01*
X148782211Y-105771432D01*
X148601639Y-105501186D01*
X148371814Y-105271361D01*
X148101568Y-105090789D01*
X147801287Y-104966408D01*
X147482511Y-104903000D01*
X147157489Y-104903000D01*
X146838713Y-104966408D01*
X146538432Y-105090789D01*
X146268186Y-105271361D01*
X146038361Y-105501186D01*
X145857789Y-105771432D01*
X145733408Y-106071713D01*
X145670000Y-106390489D01*
X143509000Y-106390489D01*
X143445592Y-106071713D01*
X143321211Y-105771432D01*
X143140639Y-105501186D01*
X142910814Y-105271361D01*
X142640568Y-105090789D01*
X142340287Y-104966408D01*
X142021511Y-104903000D01*
X141696489Y-104903000D01*
X141377713Y-104966408D01*
X141077432Y-105090789D01*
X140807186Y-105271361D01*
X140577361Y-105501186D01*
X140396789Y-105771432D01*
X140272408Y-106071713D01*
X140209000Y-106390489D01*
X136809300Y-106390489D01*
X136860604Y-106266630D01*
X136940000Y-105867483D01*
X136940000Y-105460517D01*
X136860604Y-105061370D01*
X136704865Y-104685382D01*
X136478767Y-104347002D01*
X136190998Y-104059233D01*
X135852618Y-103833135D01*
X135476630Y-103677396D01*
X135077483Y-103598000D01*
X134670517Y-103598000D01*
X134271370Y-103677396D01*
X133895382Y-103833135D01*
X133557002Y-104059233D01*
X133269233Y-104347002D01*
X133043135Y-104685382D01*
X132887396Y-105061370D01*
X132838653Y-105306416D01*
X132762003Y-105274667D01*
X132377578Y-105198200D01*
X131985622Y-105198200D01*
X131601197Y-105274667D01*
X131239076Y-105424662D01*
X130913176Y-105642421D01*
X130911600Y-105643997D01*
X130910024Y-105642421D01*
X130584124Y-105424662D01*
X130222003Y-105274667D01*
X129837578Y-105198200D01*
X129445622Y-105198200D01*
X129061197Y-105274667D01*
X128699076Y-105424662D01*
X128373176Y-105642421D01*
X128096021Y-105919576D01*
X127878262Y-106245476D01*
X127728267Y-106607597D01*
X127651800Y-106992022D01*
X127134000Y-106992022D01*
X127134000Y-93166534D01*
X128744000Y-93166534D01*
X128744000Y-93523466D01*
X128813635Y-93873541D01*
X128950227Y-94203304D01*
X129148528Y-94500082D01*
X129263446Y-94615000D01*
X129148528Y-94729918D01*
X128950227Y-95026696D01*
X128813635Y-95356459D01*
X128744000Y-95706534D01*
X128744000Y-96063466D01*
X128813635Y-96413541D01*
X128950227Y-96743304D01*
X129148528Y-97040082D01*
X129263446Y-97155000D01*
X129148528Y-97269918D01*
X128950227Y-97566696D01*
X128813635Y-97896459D01*
X128744000Y-98246534D01*
X128744000Y-98603466D01*
X128813635Y-98953541D01*
X128950227Y-99283304D01*
X129148528Y-99580082D01*
X129263446Y-99695000D01*
X129148528Y-99809918D01*
X128950227Y-100106696D01*
X128813635Y-100436459D01*
X128744000Y-100786534D01*
X128744000Y-101143466D01*
X128813635Y-101493541D01*
X128950227Y-101823304D01*
X129148528Y-102120082D01*
X129400918Y-102372472D01*
X129697696Y-102570773D01*
X130027459Y-102707365D01*
X130377534Y-102777000D01*
X130734466Y-102777000D01*
X131084541Y-102707365D01*
X131414304Y-102570773D01*
X131711082Y-102372472D01*
X131826000Y-102257554D01*
X131940918Y-102372472D01*
X132237696Y-102570773D01*
X132567459Y-102707365D01*
X132917534Y-102777000D01*
X133274466Y-102777000D01*
X133624541Y-102707365D01*
X133954304Y-102570773D01*
X134251082Y-102372472D01*
X134503472Y-102120082D01*
X134701773Y-101823304D01*
X134838365Y-101493541D01*
X134908000Y-101143466D01*
X134908000Y-100786534D01*
X134838365Y-100436459D01*
X134701773Y-100106696D01*
X134503472Y-99809918D01*
X134388554Y-99695000D01*
X134503472Y-99580082D01*
X134701773Y-99283304D01*
X134838365Y-98953541D01*
X134908000Y-98603466D01*
X134908000Y-98303779D01*
X149785360Y-98303779D01*
X149785360Y-98673221D01*
X149857434Y-99035563D01*
X149998813Y-99376883D01*
X150204064Y-99684062D01*
X150465298Y-99945296D01*
X150746630Y-100133276D01*
X150632635Y-100303882D01*
X150476896Y-100679870D01*
X150397500Y-101079017D01*
X150397500Y-101485983D01*
X150476896Y-101885130D01*
X150632635Y-102261118D01*
X150858733Y-102599498D01*
X151146502Y-102887267D01*
X151484882Y-103113365D01*
X151860870Y-103269104D01*
X152260017Y-103348500D01*
X152666983Y-103348500D01*
X153066130Y-103269104D01*
X153442118Y-103113365D01*
X153780498Y-102887267D01*
X153814058Y-102853707D01*
X153729520Y-103011867D01*
X153641294Y-103302708D01*
X153611504Y-103605172D01*
X153611504Y-104595772D01*
X153641294Y-104898236D01*
X153729520Y-105189077D01*
X153872790Y-105457117D01*
X154065600Y-105692056D01*
X154084909Y-105707902D01*
X154072146Y-105720665D01*
X153848827Y-106054885D01*
X153695003Y-106426251D01*
X153616584Y-106820490D01*
X153616584Y-107222454D01*
X153695003Y-107616693D01*
X153848827Y-107988059D01*
X154072146Y-108322279D01*
X154356377Y-108606510D01*
X154690597Y-108829829D01*
X155061963Y-108983653D01*
X155456202Y-109062072D01*
X155858166Y-109062072D01*
X156252405Y-108983653D01*
X156623771Y-108829829D01*
X156957991Y-108606510D01*
X157242222Y-108322279D01*
X157465541Y-107988059D01*
X157619365Y-107616693D01*
X157697784Y-107222454D01*
X157697784Y-106820490D01*
X157619365Y-106426251D01*
X157465541Y-106054885D01*
X157242222Y-105720665D01*
X157229459Y-105707902D01*
X157248768Y-105692056D01*
X157441578Y-105457117D01*
X157584848Y-105189077D01*
X157673074Y-104898236D01*
X157702864Y-104595772D01*
X157702864Y-103605172D01*
X157673074Y-103302708D01*
X157584848Y-103011867D01*
X157441578Y-102743827D01*
X157248768Y-102508888D01*
X157013829Y-102316078D01*
X157004733Y-102311216D01*
X157107049Y-102158090D01*
X157262788Y-101782102D01*
X157342184Y-101382955D01*
X157342184Y-100975989D01*
X157262788Y-100576842D01*
X157107049Y-100200854D01*
X156880951Y-99862474D01*
X156649184Y-99630707D01*
X156686641Y-99593250D01*
X156912739Y-99254870D01*
X157068478Y-98878882D01*
X157147874Y-98479735D01*
X157147874Y-98072769D01*
X157068478Y-97673622D01*
X156912739Y-97297634D01*
X156686641Y-96959254D01*
X156398872Y-96671485D01*
X156060492Y-96445387D01*
X155684504Y-96289648D01*
X155285357Y-96210252D01*
X154878391Y-96210252D01*
X154479244Y-96289648D01*
X154103256Y-96445387D01*
X153764876Y-96671485D01*
X153477107Y-96959254D01*
X153251009Y-97297634D01*
X153201178Y-97417937D01*
X153117656Y-97292938D01*
X152856422Y-97031704D01*
X152549243Y-96826453D01*
X152207923Y-96685074D01*
X151845581Y-96613000D01*
X151476139Y-96613000D01*
X151113797Y-96685074D01*
X150772477Y-96826453D01*
X150465298Y-97031704D01*
X150204064Y-97292938D01*
X149998813Y-97600117D01*
X149857434Y-97941437D01*
X149785360Y-98303779D01*
X134908000Y-98303779D01*
X134908000Y-98246534D01*
X134838365Y-97896459D01*
X134701773Y-97566696D01*
X134503472Y-97269918D01*
X134388554Y-97155000D01*
X134503472Y-97040082D01*
X134701773Y-96743304D01*
X134838365Y-96413541D01*
X134908000Y-96063466D01*
X134908000Y-95706534D01*
X134838365Y-95356459D01*
X134701773Y-95026696D01*
X134503472Y-94729918D01*
X134388554Y-94615000D01*
X134503472Y-94500082D01*
X134701773Y-94203304D01*
X134838365Y-93873541D01*
X134908000Y-93523466D01*
X134908000Y-93166534D01*
X134838365Y-92816459D01*
X134701773Y-92486696D01*
X134503472Y-92189918D01*
X134251082Y-91937528D01*
X133954304Y-91739227D01*
X133759385Y-91658489D01*
X135002000Y-91658489D01*
X135002000Y-91983511D01*
X135065408Y-92302287D01*
X135102000Y-92390628D01*
X135102001Y-94553371D01*
X135065408Y-94641713D01*
X135002000Y-94960489D01*
X135002000Y-95285511D01*
X135065408Y-95604287D01*
X135189789Y-95904568D01*
X135370361Y-96174814D01*
X135600186Y-96404639D01*
X135870432Y-96585211D01*
X136170713Y-96709592D01*
X136489489Y-96773000D01*
X136814511Y-96773000D01*
X137133287Y-96709592D01*
X137433568Y-96585211D01*
X137477500Y-96555857D01*
X137521432Y-96585211D01*
X137821713Y-96709592D01*
X138140489Y-96773000D01*
X138465511Y-96773000D01*
X138784287Y-96709592D01*
X139084568Y-96585211D01*
X139354814Y-96404639D01*
X139584639Y-96174814D01*
X139765211Y-95904568D01*
X139889592Y-95604287D01*
X139953000Y-95285511D01*
X139953000Y-94960489D01*
X139900796Y-94698039D01*
X147425700Y-94698039D01*
X147425700Y-95039961D01*
X147492406Y-95375314D01*
X147623254Y-95691210D01*
X147813216Y-95975508D01*
X148054992Y-96217284D01*
X148339290Y-96407246D01*
X148655186Y-96538094D01*
X148990539Y-96604800D01*
X149332461Y-96604800D01*
X149667814Y-96538094D01*
X149983710Y-96407246D01*
X150268008Y-96217284D01*
X150431500Y-96053792D01*
X150594992Y-96217284D01*
X150879290Y-96407246D01*
X151195186Y-96538094D01*
X151530539Y-96604800D01*
X151872461Y-96604800D01*
X152207814Y-96538094D01*
X152523710Y-96407246D01*
X152808008Y-96217284D01*
X153049784Y-95975508D01*
X153239746Y-95691210D01*
X153370594Y-95375314D01*
X153437300Y-95039961D01*
X153437300Y-94698039D01*
X153370594Y-94362686D01*
X153239746Y-94046790D01*
X153049784Y-93762492D01*
X152808008Y-93520716D01*
X152523710Y-93330754D01*
X152207814Y-93199906D01*
X151872461Y-93133200D01*
X151530539Y-93133200D01*
X151195186Y-93199906D01*
X150879290Y-93330754D01*
X150594992Y-93520716D01*
X150431500Y-93684208D01*
X150268008Y-93520716D01*
X149983710Y-93330754D01*
X149667814Y-93199906D01*
X149332461Y-93133200D01*
X148990539Y-93133200D01*
X148655186Y-93199906D01*
X148339290Y-93330754D01*
X148054992Y-93520716D01*
X147813216Y-93762492D01*
X147623254Y-94046790D01*
X147492406Y-94362686D01*
X147425700Y-94698039D01*
X139900796Y-94698039D01*
X139889592Y-94641713D01*
X139830141Y-94498186D01*
X139830141Y-92985327D01*
X177447250Y-92985327D01*
X177467523Y-93191163D01*
X177527563Y-93389089D01*
X177625063Y-93571498D01*
X177756276Y-93731381D01*
X179121275Y-95096380D01*
X179281158Y-95227593D01*
X179463567Y-95325093D01*
X179661493Y-95385133D01*
X179867329Y-95405406D01*
X180073165Y-95385133D01*
X180271091Y-95325093D01*
X180453500Y-95227593D01*
X180613383Y-95096380D01*
X181978382Y-93731381D01*
X182109595Y-93571498D01*
X182207095Y-93389089D01*
X182267135Y-93191163D01*
X182287408Y-92985327D01*
X182267135Y-92779491D01*
X182207095Y-92581565D01*
X182109595Y-92399156D01*
X181978382Y-92239273D01*
X180613383Y-90874274D01*
X180453500Y-90743061D01*
X180271091Y-90645561D01*
X180073165Y-90585521D01*
X179867329Y-90565248D01*
X179661493Y-90585521D01*
X179463567Y-90645561D01*
X179281158Y-90743061D01*
X179121275Y-90874274D01*
X177756276Y-92239273D01*
X177625063Y-92399156D01*
X177527563Y-92581565D01*
X177467523Y-92779491D01*
X177447250Y-92985327D01*
X139830141Y-92985327D01*
X139830141Y-92367769D01*
X139866733Y-92279428D01*
X139930141Y-91960652D01*
X139930141Y-91635630D01*
X139910026Y-91534504D01*
X140008597Y-91575333D01*
X140393022Y-91651800D01*
X140784978Y-91651800D01*
X141169403Y-91575333D01*
X141531524Y-91425338D01*
X141857424Y-91207579D01*
X142134579Y-90930424D01*
X142352338Y-90604524D01*
X142502333Y-90242403D01*
X142578800Y-89857978D01*
X142578800Y-89466022D01*
X142571146Y-89427539D01*
X147489200Y-89427539D01*
X147489200Y-89769461D01*
X147555906Y-90104814D01*
X147686754Y-90420710D01*
X147876716Y-90705008D01*
X148118492Y-90946784D01*
X148402790Y-91136746D01*
X148718686Y-91267594D01*
X149054039Y-91334300D01*
X149395961Y-91334300D01*
X149731314Y-91267594D01*
X150047210Y-91136746D01*
X150331508Y-90946784D01*
X150495000Y-90783292D01*
X150658492Y-90946784D01*
X150942790Y-91136746D01*
X151258686Y-91267594D01*
X151594039Y-91334300D01*
X151935961Y-91334300D01*
X152271314Y-91267594D01*
X152587210Y-91136746D01*
X152871508Y-90946784D01*
X153113284Y-90705008D01*
X153303246Y-90420710D01*
X153434094Y-90104814D01*
X153500800Y-89769461D01*
X153500800Y-89427539D01*
X153434094Y-89092186D01*
X153303246Y-88776290D01*
X153113284Y-88491992D01*
X152871508Y-88250216D01*
X152587210Y-88060254D01*
X152271314Y-87929406D01*
X151935961Y-87862700D01*
X151594039Y-87862700D01*
X151258686Y-87929406D01*
X150942790Y-88060254D01*
X150658492Y-88250216D01*
X150495000Y-88413708D01*
X150331508Y-88250216D01*
X150047210Y-88060254D01*
X149731314Y-87929406D01*
X149395961Y-87862700D01*
X149054039Y-87862700D01*
X148718686Y-87929406D01*
X148402790Y-88060254D01*
X148118492Y-88250216D01*
X147876716Y-88491992D01*
X147686754Y-88776290D01*
X147555906Y-89092186D01*
X147489200Y-89427539D01*
X142571146Y-89427539D01*
X142502333Y-89081597D01*
X142352338Y-88719476D01*
X142134579Y-88393576D01*
X141857424Y-88116421D01*
X141531524Y-87898662D01*
X141169403Y-87748667D01*
X140784978Y-87672200D01*
X140393022Y-87672200D01*
X140008597Y-87748667D01*
X139646476Y-87898662D01*
X139320576Y-88116421D01*
X139043421Y-88393576D01*
X138825662Y-88719476D01*
X138675667Y-89081597D01*
X138599200Y-89466022D01*
X138599200Y-89857978D01*
X138665744Y-90192516D01*
X138442652Y-90148141D01*
X138117630Y-90148141D01*
X137798854Y-90211549D01*
X137498573Y-90335930D01*
X137448965Y-90369077D01*
X137433568Y-90358789D01*
X137133287Y-90234408D01*
X136814511Y-90171000D01*
X136489489Y-90171000D01*
X136170713Y-90234408D01*
X135870432Y-90358789D01*
X135600186Y-90539361D01*
X135370361Y-90769186D01*
X135189789Y-91039432D01*
X135065408Y-91339713D01*
X135002000Y-91658489D01*
X133759385Y-91658489D01*
X133624541Y-91602635D01*
X133274466Y-91533000D01*
X132917534Y-91533000D01*
X132567459Y-91602635D01*
X132237696Y-91739227D01*
X131940918Y-91937528D01*
X131826000Y-92052446D01*
X131711082Y-91937528D01*
X131414304Y-91739227D01*
X131084541Y-91602635D01*
X130734466Y-91533000D01*
X130377534Y-91533000D01*
X130027459Y-91602635D01*
X129697696Y-91739227D01*
X129400918Y-91937528D01*
X129148528Y-92189918D01*
X128950227Y-92486696D01*
X128813635Y-92816459D01*
X128744000Y-93166534D01*
X127134000Y-93166534D01*
X127134000Y-85038917D01*
X151146800Y-85038917D01*
X151146800Y-85445883D01*
X151226196Y-85845030D01*
X151381935Y-86221018D01*
X151608033Y-86559398D01*
X151895802Y-86847167D01*
X152234182Y-87073265D01*
X152610170Y-87229004D01*
X153009317Y-87308400D01*
X153416283Y-87308400D01*
X153469100Y-87297894D01*
X153546121Y-87685102D01*
X153701860Y-88061090D01*
X153927958Y-88399470D01*
X154112362Y-88583874D01*
X153970233Y-88726002D01*
X153744135Y-89064382D01*
X153588396Y-89440370D01*
X153509000Y-89839517D01*
X153509000Y-90246483D01*
X153588396Y-90645630D01*
X153744135Y-91021618D01*
X153970233Y-91359998D01*
X154258002Y-91647767D01*
X154596382Y-91873865D01*
X154972370Y-92029604D01*
X155371517Y-92109000D01*
X155778483Y-92109000D01*
X156177630Y-92029604D01*
X156553618Y-91873865D01*
X156891998Y-91647767D01*
X157179767Y-91359998D01*
X157405865Y-91021618D01*
X157561604Y-90645630D01*
X157641000Y-90246483D01*
X157641000Y-89839517D01*
X157561604Y-89440370D01*
X157405865Y-89064382D01*
X157179767Y-88726002D01*
X156995364Y-88541599D01*
X157137492Y-88399470D01*
X157363590Y-88061090D01*
X157519329Y-87685102D01*
X157598725Y-87285955D01*
X157598725Y-86878989D01*
X157519329Y-86479842D01*
X157363590Y-86103854D01*
X157260606Y-85949727D01*
X157267829Y-85945866D01*
X157502768Y-85753056D01*
X157695578Y-85518117D01*
X157838848Y-85250077D01*
X157927074Y-84959236D01*
X157956864Y-84656772D01*
X157956864Y-83666172D01*
X157927074Y-83363708D01*
X157838848Y-83072867D01*
X157695578Y-82804827D01*
X157502768Y-82569888D01*
X157483459Y-82554042D01*
X157496222Y-82541279D01*
X157719541Y-82207059D01*
X157873365Y-81835693D01*
X157951784Y-81441454D01*
X157951784Y-81039490D01*
X157873365Y-80645251D01*
X157719541Y-80273885D01*
X157496222Y-79939665D01*
X157235909Y-79679352D01*
X158673800Y-79679352D01*
X158879636Y-79659079D01*
X159077562Y-79599039D01*
X159259971Y-79501539D01*
X159328149Y-79445587D01*
X159331476Y-79447810D01*
X159693597Y-79597805D01*
X160078022Y-79674272D01*
X160469978Y-79674272D01*
X160854403Y-79597805D01*
X161216524Y-79447810D01*
X161542424Y-79230051D01*
X161544000Y-79228475D01*
X161545576Y-79230051D01*
X161871476Y-79447810D01*
X162233597Y-79597805D01*
X162618022Y-79674272D01*
X163009978Y-79674272D01*
X163232636Y-79629982D01*
X163209600Y-79648888D01*
X163016790Y-79883827D01*
X162873520Y-80151867D01*
X162785294Y-80442708D01*
X162755504Y-80745172D01*
X162755504Y-81735772D01*
X162785294Y-82038236D01*
X162873520Y-82329077D01*
X163016790Y-82597117D01*
X163209600Y-82832056D01*
X163228909Y-82847902D01*
X163216146Y-82860665D01*
X162992827Y-83194885D01*
X162839003Y-83566251D01*
X162760584Y-83960490D01*
X162760584Y-84362454D01*
X162839003Y-84756693D01*
X162992827Y-85128059D01*
X163216146Y-85462279D01*
X163500377Y-85746510D01*
X163564155Y-85789125D01*
X163353860Y-86103854D01*
X163198121Y-86479842D01*
X163118725Y-86878989D01*
X163118725Y-87285955D01*
X163198121Y-87685102D01*
X163353860Y-88061090D01*
X163579958Y-88399470D01*
X163764362Y-88583874D01*
X163622233Y-88726002D01*
X163396135Y-89064382D01*
X163240396Y-89440370D01*
X163161000Y-89839517D01*
X163161000Y-90246483D01*
X163240396Y-90645630D01*
X163396135Y-91021618D01*
X163622233Y-91359998D01*
X163910002Y-91647767D01*
X164248382Y-91873865D01*
X164624370Y-92029604D01*
X165023517Y-92109000D01*
X165430483Y-92109000D01*
X165829630Y-92029604D01*
X166205618Y-91873865D01*
X166543998Y-91647767D01*
X166831767Y-91359998D01*
X167057865Y-91021618D01*
X167213604Y-90645630D01*
X167293000Y-90246483D01*
X167293000Y-89839517D01*
X167213604Y-89440370D01*
X167057865Y-89064382D01*
X166831767Y-88726002D01*
X166647364Y-88541599D01*
X166789492Y-88399470D01*
X167015590Y-88061090D01*
X167171329Y-87685102D01*
X167250725Y-87285955D01*
X167250725Y-86959489D01*
X167641000Y-86959489D01*
X167641000Y-87284511D01*
X167704408Y-87603287D01*
X167828789Y-87903568D01*
X168009361Y-88173814D01*
X168239186Y-88403639D01*
X168509432Y-88584211D01*
X168809713Y-88708592D01*
X169128489Y-88772000D01*
X169453511Y-88772000D01*
X169772287Y-88708592D01*
X170072568Y-88584211D01*
X170342814Y-88403639D01*
X170572639Y-88173814D01*
X170753211Y-87903568D01*
X170877592Y-87603287D01*
X170941000Y-87284511D01*
X170941000Y-86959489D01*
X170877592Y-86640713D01*
X170753211Y-86340432D01*
X170572639Y-86070186D01*
X170342814Y-85840361D01*
X170072568Y-85659789D01*
X169772287Y-85535408D01*
X169453511Y-85472000D01*
X169128489Y-85472000D01*
X168809713Y-85535408D01*
X168509432Y-85659789D01*
X168239186Y-85840361D01*
X168009361Y-86070186D01*
X167828789Y-86340432D01*
X167704408Y-86640713D01*
X167641000Y-86959489D01*
X167250725Y-86959489D01*
X167250725Y-86878989D01*
X167171329Y-86479842D01*
X167015590Y-86103854D01*
X166789492Y-85765474D01*
X166501723Y-85477705D01*
X166414746Y-85419589D01*
X166609541Y-85128059D01*
X166763365Y-84756693D01*
X166841784Y-84362454D01*
X166841784Y-83960490D01*
X166763365Y-83566251D01*
X166609541Y-83194885D01*
X166430691Y-82927217D01*
X171757360Y-82927217D01*
X171777633Y-83133053D01*
X171837673Y-83330979D01*
X171935173Y-83513388D01*
X172066386Y-83673271D01*
X173431385Y-85038270D01*
X173591268Y-85169483D01*
X173773677Y-85266983D01*
X173971603Y-85327023D01*
X174177439Y-85347296D01*
X174383275Y-85327023D01*
X174581201Y-85266983D01*
X174763610Y-85169483D01*
X174923493Y-85038270D01*
X176288492Y-83673271D01*
X176419705Y-83513388D01*
X176517205Y-83330979D01*
X176577245Y-83133053D01*
X176597518Y-82927217D01*
X176577245Y-82721381D01*
X176570760Y-82700000D01*
X188192976Y-82700000D01*
X188192976Y-83096960D01*
X188270419Y-83486292D01*
X188422329Y-83853035D01*
X188642868Y-84183095D01*
X188923561Y-84463788D01*
X189253621Y-84684327D01*
X189620364Y-84836237D01*
X190009696Y-84913680D01*
X190406656Y-84913680D01*
X190795988Y-84836237D01*
X191162731Y-84684327D01*
X191492791Y-84463788D01*
X191773484Y-84183095D01*
X191994023Y-83853035D01*
X192145933Y-83486292D01*
X192223376Y-83096960D01*
X192223376Y-82700000D01*
X192145933Y-82310668D01*
X191994023Y-81943925D01*
X191773484Y-81613865D01*
X191492791Y-81333172D01*
X191162731Y-81112633D01*
X190795988Y-80960723D01*
X190406656Y-80883280D01*
X190009696Y-80883280D01*
X189620364Y-80960723D01*
X189253621Y-81112633D01*
X188923561Y-81333172D01*
X188642868Y-81613865D01*
X188422329Y-81943925D01*
X188270419Y-82310668D01*
X188192976Y-82700000D01*
X176570760Y-82700000D01*
X176517205Y-82523455D01*
X176419705Y-82341046D01*
X176288492Y-82181163D01*
X174923493Y-80816164D01*
X174763610Y-80684951D01*
X174581201Y-80587451D01*
X174383275Y-80527411D01*
X174177439Y-80507138D01*
X173971603Y-80527411D01*
X173773677Y-80587451D01*
X173591268Y-80684951D01*
X173431385Y-80816164D01*
X172066386Y-82181163D01*
X171935173Y-82341046D01*
X171837673Y-82523455D01*
X171777633Y-82721381D01*
X171757360Y-82927217D01*
X166430691Y-82927217D01*
X166386222Y-82860665D01*
X166373459Y-82847902D01*
X166392768Y-82832056D01*
X166585578Y-82597117D01*
X166728848Y-82329077D01*
X166817074Y-82038236D01*
X166846864Y-81735772D01*
X166846864Y-80745172D01*
X166817074Y-80442708D01*
X166728848Y-80151867D01*
X166585578Y-79883827D01*
X166392768Y-79648888D01*
X166157829Y-79456078D01*
X165889789Y-79312808D01*
X165598948Y-79224582D01*
X165296484Y-79194792D01*
X164305884Y-79194792D01*
X164097122Y-79215353D01*
X164359579Y-78952896D01*
X164577338Y-78626996D01*
X164727333Y-78264875D01*
X164803800Y-77880450D01*
X164803800Y-77488494D01*
X164727333Y-77104069D01*
X164577338Y-76741948D01*
X164359579Y-76416048D01*
X164082424Y-76138893D01*
X163756524Y-75921134D01*
X163394403Y-75771139D01*
X163009978Y-75694672D01*
X162618022Y-75694672D01*
X162233597Y-75771139D01*
X161871476Y-75921134D01*
X161545576Y-76138893D01*
X161544000Y-76140469D01*
X161542424Y-76138893D01*
X161216524Y-75921134D01*
X160854403Y-75771139D01*
X160469978Y-75694672D01*
X160078022Y-75694672D01*
X159693597Y-75771139D01*
X159331476Y-75921134D01*
X159328149Y-75923357D01*
X159259971Y-75867405D01*
X159077562Y-75769905D01*
X158879636Y-75709865D01*
X158673800Y-75689592D01*
X156794200Y-75689592D01*
X156588364Y-75709865D01*
X156390438Y-75769905D01*
X156208029Y-75867405D01*
X156048146Y-75998618D01*
X155916933Y-76158501D01*
X155819433Y-76340910D01*
X155759393Y-76538836D01*
X155739120Y-76744672D01*
X155739120Y-78624272D01*
X155759393Y-78830108D01*
X155819433Y-79028034D01*
X155911283Y-79199872D01*
X155710202Y-79199872D01*
X155315963Y-79278291D01*
X154944597Y-79432115D01*
X154610377Y-79655434D01*
X154326146Y-79939665D01*
X154102827Y-80273885D01*
X153949003Y-80645251D01*
X153870584Y-81039490D01*
X153870584Y-81441454D01*
X153949003Y-81835693D01*
X154102827Y-82207059D01*
X154326146Y-82541279D01*
X154338909Y-82554042D01*
X154319600Y-82569888D01*
X154126790Y-82804827D01*
X153983520Y-83072867D01*
X153915460Y-83297230D01*
X153815430Y-83255796D01*
X153416283Y-83176400D01*
X153009317Y-83176400D01*
X152610170Y-83255796D01*
X152234182Y-83411535D01*
X151895802Y-83637633D01*
X151608033Y-83925402D01*
X151381935Y-84263782D01*
X151226196Y-84639770D01*
X151146800Y-85038917D01*
X127134000Y-85038917D01*
X127134000Y-82423000D01*
X128738920Y-82423000D01*
X128738920Y-83947000D01*
X128759193Y-84152836D01*
X128819233Y-84350762D01*
X128916733Y-84533171D01*
X129047946Y-84693054D01*
X129207829Y-84824267D01*
X129390238Y-84921767D01*
X129588164Y-84981807D01*
X129794000Y-85002080D01*
X131318000Y-85002080D01*
X131523836Y-84981807D01*
X131721762Y-84921767D01*
X131904171Y-84824267D01*
X132064054Y-84693054D01*
X132073756Y-84681232D01*
X132237696Y-84790773D01*
X132567459Y-84927365D01*
X132917534Y-84997000D01*
X133274466Y-84997000D01*
X133624541Y-84927365D01*
X133954304Y-84790773D01*
X134251082Y-84592472D01*
X134503472Y-84340082D01*
X134701773Y-84043304D01*
X134838365Y-83713541D01*
X134908000Y-83363466D01*
X134908000Y-83006534D01*
X134838365Y-82656459D01*
X134701773Y-82326696D01*
X134503472Y-82029918D01*
X134251082Y-81777528D01*
X134180369Y-81730279D01*
X140151140Y-81730279D01*
X140151140Y-82099721D01*
X140223214Y-82462063D01*
X140364593Y-82803383D01*
X140569844Y-83110562D01*
X140831078Y-83371796D01*
X141138257Y-83577047D01*
X141479577Y-83718426D01*
X141841919Y-83790500D01*
X142211361Y-83790500D01*
X142573703Y-83718426D01*
X142915023Y-83577047D01*
X143222202Y-83371796D01*
X143483436Y-83110562D01*
X143688687Y-82803383D01*
X143830066Y-82462063D01*
X143902140Y-82099721D01*
X143902140Y-81730279D01*
X143830066Y-81367937D01*
X143688687Y-81026617D01*
X143483436Y-80719438D01*
X143222202Y-80458204D01*
X142915023Y-80252953D01*
X142573703Y-80111574D01*
X142211361Y-80039500D01*
X141841919Y-80039500D01*
X141479577Y-80111574D01*
X141138257Y-80252953D01*
X140831078Y-80458204D01*
X140569844Y-80719438D01*
X140364593Y-81026617D01*
X140223214Y-81367937D01*
X140151140Y-81730279D01*
X134180369Y-81730279D01*
X133954304Y-81579227D01*
X133624541Y-81442635D01*
X133274466Y-81373000D01*
X132917534Y-81373000D01*
X132567459Y-81442635D01*
X132237696Y-81579227D01*
X132073756Y-81688768D01*
X132064054Y-81676946D01*
X131904171Y-81545733D01*
X131721762Y-81448233D01*
X131523836Y-81388193D01*
X131318000Y-81367920D01*
X129794000Y-81367920D01*
X129588164Y-81388193D01*
X129390238Y-81448233D01*
X129207829Y-81545733D01*
X129047946Y-81676946D01*
X128916733Y-81836829D01*
X128819233Y-82019238D01*
X128759193Y-82217164D01*
X128738920Y-82423000D01*
X127134000Y-82423000D01*
X127134000Y-75347161D01*
X128931400Y-75347161D01*
X128931400Y-75672183D01*
X128994808Y-75990959D01*
X129119189Y-76291240D01*
X129299761Y-76561486D01*
X129529586Y-76791311D01*
X129799832Y-76971883D01*
X130100113Y-77096264D01*
X130418889Y-77159672D01*
X130743911Y-77159672D01*
X131062687Y-77096264D01*
X131362968Y-76971883D01*
X131633214Y-76791311D01*
X131679853Y-76744672D01*
X139991120Y-76744672D01*
X139991120Y-78624272D01*
X140011393Y-78830108D01*
X140071433Y-79028034D01*
X140168933Y-79210443D01*
X140300146Y-79370326D01*
X140460029Y-79501539D01*
X140642438Y-79599039D01*
X140840364Y-79659079D01*
X141046200Y-79679352D01*
X142925800Y-79679352D01*
X143131636Y-79659079D01*
X143329562Y-79599039D01*
X143511971Y-79501539D01*
X143671854Y-79370326D01*
X143803067Y-79210443D01*
X143900567Y-79028034D01*
X143960607Y-78830108D01*
X143980880Y-78624272D01*
X143980880Y-77488494D01*
X145076200Y-77488494D01*
X145076200Y-77880450D01*
X145152667Y-78264875D01*
X145302662Y-78626996D01*
X145520421Y-78952896D01*
X145797576Y-79230051D01*
X146123476Y-79447810D01*
X146485597Y-79597805D01*
X146870022Y-79674272D01*
X147261978Y-79674272D01*
X147646403Y-79597805D01*
X148008524Y-79447810D01*
X148334424Y-79230051D01*
X148611579Y-78952896D01*
X148829338Y-78626996D01*
X148979333Y-78264875D01*
X149055800Y-77880450D01*
X149055800Y-77488494D01*
X148979333Y-77104069D01*
X148829338Y-76741948D01*
X148611579Y-76416048D01*
X148334424Y-76138893D01*
X148008524Y-75921134D01*
X147646403Y-75771139D01*
X147261978Y-75694672D01*
X146870022Y-75694672D01*
X146485597Y-75771139D01*
X146123476Y-75921134D01*
X145797576Y-76138893D01*
X145520421Y-76416048D01*
X145302662Y-76741948D01*
X145152667Y-77104069D01*
X145076200Y-77488494D01*
X143980880Y-77488494D01*
X143980880Y-76744672D01*
X143960607Y-76538836D01*
X143900567Y-76340910D01*
X143803067Y-76158501D01*
X143671854Y-75998618D01*
X143511971Y-75867405D01*
X143329562Y-75769905D01*
X143131636Y-75709865D01*
X142925800Y-75689592D01*
X141046200Y-75689592D01*
X140840364Y-75709865D01*
X140642438Y-75769905D01*
X140460029Y-75867405D01*
X140300146Y-75998618D01*
X140168933Y-76158501D01*
X140071433Y-76340910D01*
X140011393Y-76538836D01*
X139991120Y-76744672D01*
X131679853Y-76744672D01*
X131863039Y-76561486D01*
X132043611Y-76291240D01*
X132167992Y-75990959D01*
X132231400Y-75672183D01*
X132231400Y-75347161D01*
X132167992Y-75028385D01*
X132043611Y-74728104D01*
X131863039Y-74457858D01*
X131633214Y-74228033D01*
X131362968Y-74047461D01*
X131062687Y-73923080D01*
X130743911Y-73859672D01*
X130418889Y-73859672D01*
X130100113Y-73923080D01*
X129799832Y-74047461D01*
X129529586Y-74228033D01*
X129299761Y-74457858D01*
X129119189Y-74728104D01*
X128994808Y-75028385D01*
X128931400Y-75347161D01*
X127134000Y-75347161D01*
X127134000Y-73032000D01*
X199764000Y-73032000D01*
X199764001Y-115182000D01*
X199764001Y-115182000D01*
G37*
X199764001Y-115182000D02*
X127134000Y-115182000D01*
X127134000Y-113859134D01*
X127299761Y-114107214D01*
X127529586Y-114337039D01*
X127799832Y-114517611D01*
X128100113Y-114641992D01*
X128418889Y-114705400D01*
X128743911Y-114705400D01*
X129062687Y-114641992D01*
X129362968Y-114517611D01*
X129633214Y-114337039D01*
X129863039Y-114107214D01*
X130043611Y-113836968D01*
X130167992Y-113536687D01*
X130231400Y-113217911D01*
X130231400Y-112892889D01*
X130167992Y-112574113D01*
X130043611Y-112273832D01*
X129863039Y-112003586D01*
X129633214Y-111773761D01*
X129362968Y-111593189D01*
X129062687Y-111468808D01*
X128743911Y-111405400D01*
X128418889Y-111405400D01*
X128100113Y-111468808D01*
X127799832Y-111593189D01*
X127529586Y-111773761D01*
X127299761Y-112003586D01*
X127134000Y-112251666D01*
X127134000Y-110381494D01*
X139996200Y-110381494D01*
X139996200Y-110773450D01*
X140072667Y-111157875D01*
X140222662Y-111519996D01*
X140440421Y-111845896D01*
X140717576Y-112123051D01*
X141043476Y-112340810D01*
X141405597Y-112490805D01*
X141790022Y-112567272D01*
X142181978Y-112567272D01*
X142566403Y-112490805D01*
X142928524Y-112340810D01*
X143254424Y-112123051D01*
X143531579Y-111845896D01*
X143749338Y-111519996D01*
X143899333Y-111157875D01*
X143975800Y-110773450D01*
X143975800Y-110381494D01*
X143899333Y-109997069D01*
X143750467Y-109637672D01*
X145071120Y-109637672D01*
X145071120Y-111517272D01*
X145091393Y-111723108D01*
X145151433Y-111921034D01*
X145248933Y-112103443D01*
X145380146Y-112263326D01*
X145540029Y-112394539D01*
X145722438Y-112492039D01*
X145920364Y-112552079D01*
X146126200Y-112572352D01*
X148005800Y-112572352D01*
X148211636Y-112552079D01*
X148409562Y-112492039D01*
X148591971Y-112394539D01*
X148751854Y-112263326D01*
X148883067Y-112103443D01*
X148980567Y-111921034D01*
X149040607Y-111723108D01*
X149060880Y-111517272D01*
X149060880Y-110381494D01*
X155744200Y-110381494D01*
X155744200Y-110773450D01*
X155820667Y-111157875D01*
X155970662Y-111519996D01*
X156188421Y-111845896D01*
X156465576Y-112123051D01*
X156791476Y-112340810D01*
X157153597Y-112490805D01*
X157538022Y-112567272D01*
X157929978Y-112567272D01*
X158314403Y-112490805D01*
X158676524Y-112340810D01*
X159002424Y-112123051D01*
X159004000Y-112121475D01*
X159005576Y-112123051D01*
X159331476Y-112340810D01*
X159693597Y-112490805D01*
X160078022Y-112567272D01*
X160469978Y-112567272D01*
X160854403Y-112490805D01*
X161216524Y-112340810D01*
X161219851Y-112338587D01*
X161288029Y-112394539D01*
X161470438Y-112492039D01*
X161668364Y-112552079D01*
X161874200Y-112572352D01*
X163753800Y-112572352D01*
X163959636Y-112552079D01*
X164157562Y-112492039D01*
X164339971Y-112394539D01*
X164499854Y-112263326D01*
X164631067Y-112103443D01*
X164728567Y-111921034D01*
X164788607Y-111723108D01*
X164808880Y-111517272D01*
X164808880Y-109637672D01*
X164805945Y-109607863D01*
X172603184Y-109607863D01*
X172603184Y-109972281D01*
X172674279Y-110329697D01*
X172813736Y-110666375D01*
X173016195Y-110969378D01*
X173273878Y-111227061D01*
X173576881Y-111429520D01*
X173913559Y-111568977D01*
X174270975Y-111640072D01*
X174635393Y-111640072D01*
X174992809Y-111568977D01*
X175329487Y-111429520D01*
X175632490Y-111227061D01*
X175890173Y-110969378D01*
X176092632Y-110666375D01*
X176139386Y-110553500D01*
X179115300Y-110553500D01*
X179115300Y-112966500D01*
X179135573Y-113172336D01*
X179195613Y-113370262D01*
X179293113Y-113552671D01*
X179424326Y-113712554D01*
X179584209Y-113843767D01*
X179766618Y-113941267D01*
X179964544Y-114001307D01*
X180170380Y-114021580D01*
X182583380Y-114021580D01*
X182789216Y-114001307D01*
X182987142Y-113941267D01*
X183169551Y-113843767D01*
X183329434Y-113712554D01*
X183460647Y-113552671D01*
X183558147Y-113370262D01*
X183618187Y-113172336D01*
X183638460Y-112966500D01*
X183638460Y-111537754D01*
X186118080Y-111537754D01*
X186118080Y-111982246D01*
X186204796Y-112418197D01*
X186374896Y-112828853D01*
X186621842Y-113198435D01*
X186936145Y-113512738D01*
X187305727Y-113759684D01*
X187716383Y-113929784D01*
X188152334Y-114016500D01*
X188596826Y-114016500D01*
X189032777Y-113929784D01*
X189443433Y-113759684D01*
X189813015Y-113512738D01*
X190127318Y-113198435D01*
X190374264Y-112828853D01*
X190544364Y-112418197D01*
X190631080Y-111982246D01*
X190631080Y-111537754D01*
X190544364Y-111101803D01*
X190374264Y-110691147D01*
X190127318Y-110321565D01*
X189813015Y-110007262D01*
X189443433Y-109760316D01*
X189032777Y-109590216D01*
X188866106Y-109557063D01*
X194574184Y-109557063D01*
X194574184Y-109921481D01*
X194645279Y-110278897D01*
X194784736Y-110615575D01*
X194987195Y-110918578D01*
X195244878Y-111176261D01*
X195547881Y-111378720D01*
X195884559Y-111518177D01*
X196241975Y-111589272D01*
X196606393Y-111589272D01*
X196963809Y-111518177D01*
X197300487Y-111378720D01*
X197603490Y-111176261D01*
X197861173Y-110918578D01*
X198063632Y-110615575D01*
X198203089Y-110278897D01*
X198274184Y-109921481D01*
X198274184Y-109557063D01*
X198203089Y-109199647D01*
X198063632Y-108862969D01*
X197861173Y-108559966D01*
X197603490Y-108302283D01*
X197300487Y-108099824D01*
X196963809Y-107960367D01*
X196606393Y-107889272D01*
X196241975Y-107889272D01*
X195884559Y-107960367D01*
X195547881Y-108099824D01*
X195244878Y-108302283D01*
X194987195Y-108559966D01*
X194784736Y-108862969D01*
X194645279Y-109199647D01*
X194574184Y-109557063D01*
X188866106Y-109557063D01*
X188596826Y-109503500D01*
X188152334Y-109503500D01*
X187716383Y-109590216D01*
X187305727Y-109760316D01*
X186936145Y-110007262D01*
X186621842Y-110321565D01*
X186374896Y-110691147D01*
X186204796Y-111101803D01*
X186118080Y-111537754D01*
X183638460Y-111537754D01*
X183638460Y-110553500D01*
X183618187Y-110347664D01*
X183558147Y-110149738D01*
X183460647Y-109967329D01*
X183329434Y-109807446D01*
X183169551Y-109676233D01*
X182987142Y-109578733D01*
X182789216Y-109518693D01*
X182583380Y-109498420D01*
X180170380Y-109498420D01*
X179964544Y-109518693D01*
X179766618Y-109578733D01*
X179584209Y-109676233D01*
X179424326Y-109807446D01*
X179293113Y-109967329D01*
X179195613Y-110149738D01*
X179135573Y-110347664D01*
X179115300Y-110553500D01*
X176139386Y-110553500D01*
X176232089Y-110329697D01*
X176303184Y-109972281D01*
X176303184Y-109607863D01*
X176232089Y-109250447D01*
X176092632Y-108913769D01*
X175890173Y-108610766D01*
X175632490Y-108353083D01*
X175329487Y-108150624D01*
X174992809Y-108011167D01*
X174635393Y-107940072D01*
X174270975Y-107940072D01*
X173913559Y-108011167D01*
X173576881Y-108150624D01*
X173273878Y-108353083D01*
X173016195Y-108610766D01*
X172813736Y-108913769D01*
X172674279Y-109250447D01*
X172603184Y-109607863D01*
X164805945Y-109607863D01*
X164788607Y-109431836D01*
X164728567Y-109233910D01*
X164639433Y-109067152D01*
X165042484Y-109067152D01*
X165344948Y-109037362D01*
X165635789Y-108949136D01*
X165903829Y-108805866D01*
X166138768Y-108613056D01*
X166331578Y-108378117D01*
X166474848Y-108110077D01*
X166563074Y-107819236D01*
X166592864Y-107516772D01*
X166592864Y-106526172D01*
X166563074Y-106223708D01*
X166474848Y-105932867D01*
X166331578Y-105664827D01*
X166138768Y-105429888D01*
X166119459Y-105414042D01*
X166132222Y-105401279D01*
X166355541Y-105067059D01*
X166507597Y-104699961D01*
X169170984Y-104699961D01*
X169170984Y-105024983D01*
X169234392Y-105343759D01*
X169358773Y-105644040D01*
X169539345Y-105914286D01*
X169769170Y-106144111D01*
X170039416Y-106324683D01*
X170339697Y-106449064D01*
X170658473Y-106512472D01*
X170983495Y-106512472D01*
X171302271Y-106449064D01*
X171602552Y-106324683D01*
X171872798Y-106144111D01*
X172102623Y-105914286D01*
X172283195Y-105644040D01*
X172407576Y-105343759D01*
X172470984Y-105024983D01*
X172470984Y-104699961D01*
X172422458Y-104456000D01*
X176806920Y-104456000D01*
X176806920Y-107126000D01*
X176827193Y-107331836D01*
X176887233Y-107529762D01*
X176984733Y-107712171D01*
X177115946Y-107872054D01*
X177275829Y-108003267D01*
X177458238Y-108100767D01*
X177656164Y-108160807D01*
X177862000Y-108181080D01*
X180532000Y-108181080D01*
X180737836Y-108160807D01*
X180935762Y-108100767D01*
X181118171Y-108003267D01*
X181278054Y-107872054D01*
X181409267Y-107712171D01*
X181460125Y-107617024D01*
X181486651Y-107643550D01*
X181877279Y-107904560D01*
X182311321Y-108084346D01*
X182772098Y-108176000D01*
X183241902Y-108176000D01*
X183702679Y-108084346D01*
X184136721Y-107904560D01*
X184527349Y-107643550D01*
X184859550Y-107311349D01*
X184912000Y-107232852D01*
X184964450Y-107311349D01*
X185296651Y-107643550D01*
X185687279Y-107904560D01*
X186121321Y-108084346D01*
X186582098Y-108176000D01*
X187051902Y-108176000D01*
X187512679Y-108084346D01*
X187946721Y-107904560D01*
X188337349Y-107643550D01*
X188669550Y-107311349D01*
X188722000Y-107232852D01*
X188774450Y-107311349D01*
X189106651Y-107643550D01*
X189497279Y-107904560D01*
X189931321Y-108084346D01*
X190392098Y-108176000D01*
X190861902Y-108176000D01*
X191322679Y-108084346D01*
X191756721Y-107904560D01*
X192147349Y-107643550D01*
X192479550Y-107311349D01*
X192673847Y-107020565D01*
X192901078Y-107247796D01*
X193208257Y-107453047D01*
X193549577Y-107594426D01*
X193911919Y-107666500D01*
X194281361Y-107666500D01*
X194643703Y-107594426D01*
X194985023Y-107453047D01*
X195292202Y-107247796D01*
X195553436Y-106986562D01*
X195758687Y-106679383D01*
X195900066Y-106338063D01*
X195972140Y-105975721D01*
X195972140Y-105606279D01*
X195900066Y-105243937D01*
X195758687Y-104902617D01*
X195553436Y-104595438D01*
X195292202Y-104334204D01*
X194985023Y-104128953D01*
X194643703Y-103987574D01*
X194281361Y-103915500D01*
X193911919Y-103915500D01*
X193549577Y-103987574D01*
X193208257Y-104128953D01*
X192901078Y-104334204D01*
X192673847Y-104561435D01*
X192479550Y-104270651D01*
X192147349Y-103938450D01*
X191756721Y-103677440D01*
X191322679Y-103497654D01*
X190861902Y-103406000D01*
X190392098Y-103406000D01*
X189931321Y-103497654D01*
X189497279Y-103677440D01*
X189106651Y-103938450D01*
X188774450Y-104270651D01*
X188722000Y-104349148D01*
X188669550Y-104270651D01*
X188337349Y-103938450D01*
X187946721Y-103677440D01*
X187512679Y-103497654D01*
X187051902Y-103406000D01*
X186582098Y-103406000D01*
X186121321Y-103497654D01*
X185687279Y-103677440D01*
X185296651Y-103938450D01*
X184964450Y-104270651D01*
X184912000Y-104349148D01*
X184859550Y-104270651D01*
X184527349Y-103938450D01*
X184136721Y-103677440D01*
X183702679Y-103497654D01*
X183241902Y-103406000D01*
X182772098Y-103406000D01*
X182311321Y-103497654D01*
X181877279Y-103677440D01*
X181486651Y-103938450D01*
X181460125Y-103964976D01*
X181409267Y-103869829D01*
X181278054Y-103709946D01*
X181118171Y-103578733D01*
X180935762Y-103481233D01*
X180737836Y-103421193D01*
X180532000Y-103400920D01*
X177862000Y-103400920D01*
X177656164Y-103421193D01*
X177458238Y-103481233D01*
X177275829Y-103578733D01*
X177115946Y-103709946D01*
X176984733Y-103869829D01*
X176887233Y-104052238D01*
X176827193Y-104250164D01*
X176806920Y-104456000D01*
X172422458Y-104456000D01*
X172407576Y-104381185D01*
X172283195Y-104080904D01*
X172102623Y-103810658D01*
X171872798Y-103580833D01*
X171602552Y-103400261D01*
X171302271Y-103275880D01*
X170983495Y-103212472D01*
X170658473Y-103212472D01*
X170339697Y-103275880D01*
X170039416Y-103400261D01*
X169769170Y-103580833D01*
X169539345Y-103810658D01*
X169358773Y-104080904D01*
X169234392Y-104381185D01*
X169170984Y-104699961D01*
X166507597Y-104699961D01*
X166509365Y-104695693D01*
X166587784Y-104301454D01*
X166587784Y-103899490D01*
X166509365Y-103505251D01*
X166355541Y-103133885D01*
X166159962Y-102841181D01*
X166245182Y-102784239D01*
X166532951Y-102496470D01*
X166759049Y-102158090D01*
X166914788Y-101782102D01*
X166994184Y-101382955D01*
X166994184Y-100975989D01*
X166914788Y-100576842D01*
X166759049Y-100200854D01*
X166532951Y-99862474D01*
X166484064Y-99813587D01*
X166722181Y-99575470D01*
X166948279Y-99237090D01*
X167104018Y-98861102D01*
X167183414Y-98461955D01*
X167183414Y-98328000D01*
X188192976Y-98328000D01*
X188192976Y-98724960D01*
X188270419Y-99114292D01*
X188422329Y-99481035D01*
X188642868Y-99811095D01*
X188923561Y-100091788D01*
X189253621Y-100312327D01*
X189620364Y-100464237D01*
X190009696Y-100541680D01*
X190406656Y-100541680D01*
X190795988Y-100464237D01*
X191162731Y-100312327D01*
X191492791Y-100091788D01*
X191773484Y-99811095D01*
X191994023Y-99481035D01*
X192145933Y-99114292D01*
X192223376Y-98724960D01*
X192223376Y-98328000D01*
X192145933Y-97938668D01*
X191994023Y-97571925D01*
X191773484Y-97241865D01*
X191492791Y-96961172D01*
X191162731Y-96740633D01*
X190795988Y-96588723D01*
X190406656Y-96511280D01*
X190009696Y-96511280D01*
X189620364Y-96588723D01*
X189253621Y-96740633D01*
X188923561Y-96961172D01*
X188642868Y-97241865D01*
X188422329Y-97571925D01*
X188270419Y-97938668D01*
X188192976Y-98328000D01*
X167183414Y-98328000D01*
X167183414Y-98054989D01*
X167104018Y-97655842D01*
X167074165Y-97583769D01*
X167118337Y-97602066D01*
X167480679Y-97674140D01*
X167850121Y-97674140D01*
X168212463Y-97602066D01*
X168553783Y-97460687D01*
X168860962Y-97255436D01*
X169122196Y-96994202D01*
X169327447Y-96687023D01*
X169468826Y-96345703D01*
X169540900Y-95983361D01*
X169540900Y-95613919D01*
X169468826Y-95251577D01*
X169327447Y-94910257D01*
X169122196Y-94603078D01*
X168860962Y-94341844D01*
X168553783Y-94136593D01*
X168212463Y-93995214D01*
X167850121Y-93923140D01*
X167480679Y-93923140D01*
X167118337Y-93995214D01*
X166777017Y-94136593D01*
X166469838Y-94341844D01*
X166208604Y-94603078D01*
X166003353Y-94910257D01*
X165861974Y-95251577D01*
X165789900Y-95613919D01*
X165789900Y-95983361D01*
X165858712Y-96329306D01*
X165720044Y-96271868D01*
X165320897Y-96192472D01*
X164913931Y-96192472D01*
X164514784Y-96271868D01*
X164138796Y-96427607D01*
X163800416Y-96653705D01*
X163512647Y-96941474D01*
X163286549Y-97279854D01*
X163130810Y-97655842D01*
X163051414Y-98054989D01*
X163051414Y-98461955D01*
X163130810Y-98861102D01*
X163286549Y-99237090D01*
X163512647Y-99575470D01*
X163561534Y-99624357D01*
X163323417Y-99862474D01*
X163097319Y-100200854D01*
X162941580Y-100576842D01*
X162862184Y-100975989D01*
X162862184Y-101382955D01*
X162941580Y-101782102D01*
X163097319Y-102158090D01*
X163308398Y-102473993D01*
X163246377Y-102515434D01*
X162962146Y-102799665D01*
X162738827Y-103133885D01*
X162585003Y-103505251D01*
X162506584Y-103899490D01*
X162506584Y-104301454D01*
X162585003Y-104695693D01*
X162738827Y-105067059D01*
X162962146Y-105401279D01*
X162974909Y-105414042D01*
X162955600Y-105429888D01*
X162762790Y-105664827D01*
X162619520Y-105932867D01*
X162531294Y-106223708D01*
X162501504Y-106526172D01*
X162501504Y-107516772D01*
X162531294Y-107819236D01*
X162619520Y-108110077D01*
X162762790Y-108378117D01*
X162930599Y-108582592D01*
X161874200Y-108582592D01*
X161668364Y-108602865D01*
X161470438Y-108662905D01*
X161288029Y-108760405D01*
X161219851Y-108816357D01*
X161216524Y-108814134D01*
X160854403Y-108664139D01*
X160469978Y-108587672D01*
X160078022Y-108587672D01*
X159693597Y-108664139D01*
X159331476Y-108814134D01*
X159005576Y-109031893D01*
X159004000Y-109033469D01*
X159002424Y-109031893D01*
X158676524Y-108814134D01*
X158314403Y-108664139D01*
X157929978Y-108587672D01*
X157538022Y-108587672D01*
X157153597Y-108664139D01*
X156791476Y-108814134D01*
X156465576Y-109031893D01*
X156188421Y-109309048D01*
X155970662Y-109634948D01*
X155820667Y-109997069D01*
X155744200Y-110381494D01*
X149060880Y-110381494D01*
X149060880Y-109637672D01*
X149040607Y-109431836D01*
X148980567Y-109233910D01*
X148883067Y-109051501D01*
X148751854Y-108891618D01*
X148591971Y-108760405D01*
X148409562Y-108662905D01*
X148211636Y-108602865D01*
X148005800Y-108582592D01*
X146126200Y-108582592D01*
X145920364Y-108602865D01*
X145722438Y-108662905D01*
X145540029Y-108760405D01*
X145380146Y-108891618D01*
X145248933Y-109051501D01*
X145151433Y-109233910D01*
X145091393Y-109431836D01*
X145071120Y-109637672D01*
X143750467Y-109637672D01*
X143749338Y-109634948D01*
X143531579Y-109309048D01*
X143254424Y-109031893D01*
X142928524Y-108814134D01*
X142566403Y-108664139D01*
X142181978Y-108587672D01*
X141790022Y-108587672D01*
X141405597Y-108664139D01*
X141043476Y-108814134D01*
X140717576Y-109031893D01*
X140440421Y-109309048D01*
X140222662Y-109634948D01*
X140072667Y-109997069D01*
X139996200Y-110381494D01*
X127134000Y-110381494D01*
X127134000Y-106992022D01*
X127651800Y-106992022D01*
X127651800Y-107383978D01*
X127728267Y-107768403D01*
X127878262Y-108130524D01*
X128096021Y-108456424D01*
X128373176Y-108733579D01*
X128699076Y-108951338D01*
X129061197Y-109101333D01*
X129445622Y-109177800D01*
X129837578Y-109177800D01*
X130222003Y-109101333D01*
X130584124Y-108951338D01*
X130910024Y-108733579D01*
X130911600Y-108732003D01*
X130913176Y-108733579D01*
X131239076Y-108951338D01*
X131601197Y-109101333D01*
X131985622Y-109177800D01*
X132377578Y-109177800D01*
X132762003Y-109101333D01*
X133124124Y-108951338D01*
X133450024Y-108733579D01*
X133727179Y-108456424D01*
X133944938Y-108130524D01*
X134094933Y-107768403D01*
X134130012Y-107592052D01*
X134271370Y-107650604D01*
X134670517Y-107730000D01*
X135077483Y-107730000D01*
X135476630Y-107650604D01*
X135852618Y-107494865D01*
X136190998Y-107268767D01*
X136478767Y-106980998D01*
X136704865Y-106642618D01*
X136809300Y-106390489D01*
X140209000Y-106390489D01*
X140209000Y-106715511D01*
X140272408Y-107034287D01*
X140396789Y-107334568D01*
X140577361Y-107604814D01*
X140807186Y-107834639D01*
X141077432Y-108015211D01*
X141377713Y-108139592D01*
X141696489Y-108203000D01*
X142021511Y-108203000D01*
X142340287Y-108139592D01*
X142640568Y-108015211D01*
X142910814Y-107834639D01*
X143140639Y-107604814D01*
X143321211Y-107334568D01*
X143445592Y-107034287D01*
X143509000Y-106715511D01*
X143509000Y-106390489D01*
X145670000Y-106390489D01*
X145670000Y-106715511D01*
X145733408Y-107034287D01*
X145857789Y-107334568D01*
X146038361Y-107604814D01*
X146268186Y-107834639D01*
X146538432Y-108015211D01*
X146838713Y-108139592D01*
X147157489Y-108203000D01*
X147482511Y-108203000D01*
X147801287Y-108139592D01*
X148101568Y-108015211D01*
X148371814Y-107834639D01*
X148601639Y-107604814D01*
X148782211Y-107334568D01*
X148906592Y-107034287D01*
X148970000Y-106715511D01*
X148970000Y-106390489D01*
X148906592Y-106071713D01*
X148782211Y-105771432D01*
X148601639Y-105501186D01*
X148371814Y-105271361D01*
X148101568Y-105090789D01*
X147801287Y-104966408D01*
X147482511Y-104903000D01*
X147157489Y-104903000D01*
X146838713Y-104966408D01*
X146538432Y-105090789D01*
X146268186Y-105271361D01*
X146038361Y-105501186D01*
X145857789Y-105771432D01*
X145733408Y-106071713D01*
X145670000Y-106390489D01*
X143509000Y-106390489D01*
X143445592Y-106071713D01*
X143321211Y-105771432D01*
X143140639Y-105501186D01*
X142910814Y-105271361D01*
X142640568Y-105090789D01*
X142340287Y-104966408D01*
X142021511Y-104903000D01*
X141696489Y-104903000D01*
X141377713Y-104966408D01*
X141077432Y-105090789D01*
X140807186Y-105271361D01*
X140577361Y-105501186D01*
X140396789Y-105771432D01*
X140272408Y-106071713D01*
X140209000Y-106390489D01*
X136809300Y-106390489D01*
X136860604Y-106266630D01*
X136940000Y-105867483D01*
X136940000Y-105460517D01*
X136860604Y-105061370D01*
X136704865Y-104685382D01*
X136478767Y-104347002D01*
X136190998Y-104059233D01*
X135852618Y-103833135D01*
X135476630Y-103677396D01*
X135077483Y-103598000D01*
X134670517Y-103598000D01*
X134271370Y-103677396D01*
X133895382Y-103833135D01*
X133557002Y-104059233D01*
X133269233Y-104347002D01*
X133043135Y-104685382D01*
X132887396Y-105061370D01*
X132838653Y-105306416D01*
X132762003Y-105274667D01*
X132377578Y-105198200D01*
X131985622Y-105198200D01*
X131601197Y-105274667D01*
X131239076Y-105424662D01*
X130913176Y-105642421D01*
X130911600Y-105643997D01*
X130910024Y-105642421D01*
X130584124Y-105424662D01*
X130222003Y-105274667D01*
X129837578Y-105198200D01*
X129445622Y-105198200D01*
X129061197Y-105274667D01*
X128699076Y-105424662D01*
X128373176Y-105642421D01*
X128096021Y-105919576D01*
X127878262Y-106245476D01*
X127728267Y-106607597D01*
X127651800Y-106992022D01*
X127134000Y-106992022D01*
X127134000Y-93166534D01*
X128744000Y-93166534D01*
X128744000Y-93523466D01*
X128813635Y-93873541D01*
X128950227Y-94203304D01*
X129148528Y-94500082D01*
X129263446Y-94615000D01*
X129148528Y-94729918D01*
X128950227Y-95026696D01*
X128813635Y-95356459D01*
X128744000Y-95706534D01*
X128744000Y-96063466D01*
X128813635Y-96413541D01*
X128950227Y-96743304D01*
X129148528Y-97040082D01*
X129263446Y-97155000D01*
X129148528Y-97269918D01*
X128950227Y-97566696D01*
X128813635Y-97896459D01*
X128744000Y-98246534D01*
X128744000Y-98603466D01*
X128813635Y-98953541D01*
X128950227Y-99283304D01*
X129148528Y-99580082D01*
X129263446Y-99695000D01*
X129148528Y-99809918D01*
X128950227Y-100106696D01*
X128813635Y-100436459D01*
X128744000Y-100786534D01*
X128744000Y-101143466D01*
X128813635Y-101493541D01*
X128950227Y-101823304D01*
X129148528Y-102120082D01*
X129400918Y-102372472D01*
X129697696Y-102570773D01*
X130027459Y-102707365D01*
X130377534Y-102777000D01*
X130734466Y-102777000D01*
X131084541Y-102707365D01*
X131414304Y-102570773D01*
X131711082Y-102372472D01*
X131826000Y-102257554D01*
X131940918Y-102372472D01*
X132237696Y-102570773D01*
X132567459Y-102707365D01*
X132917534Y-102777000D01*
X133274466Y-102777000D01*
X133624541Y-102707365D01*
X133954304Y-102570773D01*
X134251082Y-102372472D01*
X134503472Y-102120082D01*
X134701773Y-101823304D01*
X134838365Y-101493541D01*
X134908000Y-101143466D01*
X134908000Y-100786534D01*
X134838365Y-100436459D01*
X134701773Y-100106696D01*
X134503472Y-99809918D01*
X134388554Y-99695000D01*
X134503472Y-99580082D01*
X134701773Y-99283304D01*
X134838365Y-98953541D01*
X134908000Y-98603466D01*
X134908000Y-98303779D01*
X149785360Y-98303779D01*
X149785360Y-98673221D01*
X149857434Y-99035563D01*
X149998813Y-99376883D01*
X150204064Y-99684062D01*
X150465298Y-99945296D01*
X150746630Y-100133276D01*
X150632635Y-100303882D01*
X150476896Y-100679870D01*
X150397500Y-101079017D01*
X150397500Y-101485983D01*
X150476896Y-101885130D01*
X150632635Y-102261118D01*
X150858733Y-102599498D01*
X151146502Y-102887267D01*
X151484882Y-103113365D01*
X151860870Y-103269104D01*
X152260017Y-103348500D01*
X152666983Y-103348500D01*
X153066130Y-103269104D01*
X153442118Y-103113365D01*
X153780498Y-102887267D01*
X153814058Y-102853707D01*
X153729520Y-103011867D01*
X153641294Y-103302708D01*
X153611504Y-103605172D01*
X153611504Y-104595772D01*
X153641294Y-104898236D01*
X153729520Y-105189077D01*
X153872790Y-105457117D01*
X154065600Y-105692056D01*
X154084909Y-105707902D01*
X154072146Y-105720665D01*
X153848827Y-106054885D01*
X153695003Y-106426251D01*
X153616584Y-106820490D01*
X153616584Y-107222454D01*
X153695003Y-107616693D01*
X153848827Y-107988059D01*
X154072146Y-108322279D01*
X154356377Y-108606510D01*
X154690597Y-108829829D01*
X155061963Y-108983653D01*
X155456202Y-109062072D01*
X155858166Y-109062072D01*
X156252405Y-108983653D01*
X156623771Y-108829829D01*
X156957991Y-108606510D01*
X157242222Y-108322279D01*
X157465541Y-107988059D01*
X157619365Y-107616693D01*
X157697784Y-107222454D01*
X157697784Y-106820490D01*
X157619365Y-106426251D01*
X157465541Y-106054885D01*
X157242222Y-105720665D01*
X157229459Y-105707902D01*
X157248768Y-105692056D01*
X157441578Y-105457117D01*
X157584848Y-105189077D01*
X157673074Y-104898236D01*
X157702864Y-104595772D01*
X157702864Y-103605172D01*
X157673074Y-103302708D01*
X157584848Y-103011867D01*
X157441578Y-102743827D01*
X157248768Y-102508888D01*
X157013829Y-102316078D01*
X157004733Y-102311216D01*
X157107049Y-102158090D01*
X157262788Y-101782102D01*
X157342184Y-101382955D01*
X157342184Y-100975989D01*
X157262788Y-100576842D01*
X157107049Y-100200854D01*
X156880951Y-99862474D01*
X156649184Y-99630707D01*
X156686641Y-99593250D01*
X156912739Y-99254870D01*
X157068478Y-98878882D01*
X157147874Y-98479735D01*
X157147874Y-98072769D01*
X157068478Y-97673622D01*
X156912739Y-97297634D01*
X156686641Y-96959254D01*
X156398872Y-96671485D01*
X156060492Y-96445387D01*
X155684504Y-96289648D01*
X155285357Y-96210252D01*
X154878391Y-96210252D01*
X154479244Y-96289648D01*
X154103256Y-96445387D01*
X153764876Y-96671485D01*
X153477107Y-96959254D01*
X153251009Y-97297634D01*
X153201178Y-97417937D01*
X153117656Y-97292938D01*
X152856422Y-97031704D01*
X152549243Y-96826453D01*
X152207923Y-96685074D01*
X151845581Y-96613000D01*
X151476139Y-96613000D01*
X151113797Y-96685074D01*
X150772477Y-96826453D01*
X150465298Y-97031704D01*
X150204064Y-97292938D01*
X149998813Y-97600117D01*
X149857434Y-97941437D01*
X149785360Y-98303779D01*
X134908000Y-98303779D01*
X134908000Y-98246534D01*
X134838365Y-97896459D01*
X134701773Y-97566696D01*
X134503472Y-97269918D01*
X134388554Y-97155000D01*
X134503472Y-97040082D01*
X134701773Y-96743304D01*
X134838365Y-96413541D01*
X134908000Y-96063466D01*
X134908000Y-95706534D01*
X134838365Y-95356459D01*
X134701773Y-95026696D01*
X134503472Y-94729918D01*
X134388554Y-94615000D01*
X134503472Y-94500082D01*
X134701773Y-94203304D01*
X134838365Y-93873541D01*
X134908000Y-93523466D01*
X134908000Y-93166534D01*
X134838365Y-92816459D01*
X134701773Y-92486696D01*
X134503472Y-92189918D01*
X134251082Y-91937528D01*
X133954304Y-91739227D01*
X133759385Y-91658489D01*
X135002000Y-91658489D01*
X135002000Y-91983511D01*
X135065408Y-92302287D01*
X135102000Y-92390628D01*
X135102001Y-94553371D01*
X135065408Y-94641713D01*
X135002000Y-94960489D01*
X135002000Y-95285511D01*
X135065408Y-95604287D01*
X135189789Y-95904568D01*
X135370361Y-96174814D01*
X135600186Y-96404639D01*
X135870432Y-96585211D01*
X136170713Y-96709592D01*
X136489489Y-96773000D01*
X136814511Y-96773000D01*
X137133287Y-96709592D01*
X137433568Y-96585211D01*
X137477500Y-96555857D01*
X137521432Y-96585211D01*
X137821713Y-96709592D01*
X138140489Y-96773000D01*
X138465511Y-96773000D01*
X138784287Y-96709592D01*
X139084568Y-96585211D01*
X139354814Y-96404639D01*
X139584639Y-96174814D01*
X139765211Y-95904568D01*
X139889592Y-95604287D01*
X139953000Y-95285511D01*
X139953000Y-94960489D01*
X139900796Y-94698039D01*
X147425700Y-94698039D01*
X147425700Y-95039961D01*
X147492406Y-95375314D01*
X147623254Y-95691210D01*
X147813216Y-95975508D01*
X148054992Y-96217284D01*
X148339290Y-96407246D01*
X148655186Y-96538094D01*
X148990539Y-96604800D01*
X149332461Y-96604800D01*
X149667814Y-96538094D01*
X149983710Y-96407246D01*
X150268008Y-96217284D01*
X150431500Y-96053792D01*
X150594992Y-96217284D01*
X150879290Y-96407246D01*
X151195186Y-96538094D01*
X151530539Y-96604800D01*
X151872461Y-96604800D01*
X152207814Y-96538094D01*
X152523710Y-96407246D01*
X152808008Y-96217284D01*
X153049784Y-95975508D01*
X153239746Y-95691210D01*
X153370594Y-95375314D01*
X153437300Y-95039961D01*
X153437300Y-94698039D01*
X153370594Y-94362686D01*
X153239746Y-94046790D01*
X153049784Y-93762492D01*
X152808008Y-93520716D01*
X152523710Y-93330754D01*
X152207814Y-93199906D01*
X151872461Y-93133200D01*
X151530539Y-93133200D01*
X151195186Y-93199906D01*
X150879290Y-93330754D01*
X150594992Y-93520716D01*
X150431500Y-93684208D01*
X150268008Y-93520716D01*
X149983710Y-93330754D01*
X149667814Y-93199906D01*
X149332461Y-93133200D01*
X148990539Y-93133200D01*
X148655186Y-93199906D01*
X148339290Y-93330754D01*
X148054992Y-93520716D01*
X147813216Y-93762492D01*
X147623254Y-94046790D01*
X147492406Y-94362686D01*
X147425700Y-94698039D01*
X139900796Y-94698039D01*
X139889592Y-94641713D01*
X139830141Y-94498186D01*
X139830141Y-92985327D01*
X177447250Y-92985327D01*
X177467523Y-93191163D01*
X177527563Y-93389089D01*
X177625063Y-93571498D01*
X177756276Y-93731381D01*
X179121275Y-95096380D01*
X179281158Y-95227593D01*
X179463567Y-95325093D01*
X179661493Y-95385133D01*
X179867329Y-95405406D01*
X180073165Y-95385133D01*
X180271091Y-95325093D01*
X180453500Y-95227593D01*
X180613383Y-95096380D01*
X181978382Y-93731381D01*
X182109595Y-93571498D01*
X182207095Y-93389089D01*
X182267135Y-93191163D01*
X182287408Y-92985327D01*
X182267135Y-92779491D01*
X182207095Y-92581565D01*
X182109595Y-92399156D01*
X181978382Y-92239273D01*
X180613383Y-90874274D01*
X180453500Y-90743061D01*
X180271091Y-90645561D01*
X180073165Y-90585521D01*
X179867329Y-90565248D01*
X179661493Y-90585521D01*
X179463567Y-90645561D01*
X179281158Y-90743061D01*
X179121275Y-90874274D01*
X177756276Y-92239273D01*
X177625063Y-92399156D01*
X177527563Y-92581565D01*
X177467523Y-92779491D01*
X177447250Y-92985327D01*
X139830141Y-92985327D01*
X139830141Y-92367769D01*
X139866733Y-92279428D01*
X139930141Y-91960652D01*
X139930141Y-91635630D01*
X139910026Y-91534504D01*
X140008597Y-91575333D01*
X140393022Y-91651800D01*
X140784978Y-91651800D01*
X141169403Y-91575333D01*
X141531524Y-91425338D01*
X141857424Y-91207579D01*
X142134579Y-90930424D01*
X142352338Y-90604524D01*
X142502333Y-90242403D01*
X142578800Y-89857978D01*
X142578800Y-89466022D01*
X142571146Y-89427539D01*
X147489200Y-89427539D01*
X147489200Y-89769461D01*
X147555906Y-90104814D01*
X147686754Y-90420710D01*
X147876716Y-90705008D01*
X148118492Y-90946784D01*
X148402790Y-91136746D01*
X148718686Y-91267594D01*
X149054039Y-91334300D01*
X149395961Y-91334300D01*
X149731314Y-91267594D01*
X150047210Y-91136746D01*
X150331508Y-90946784D01*
X150495000Y-90783292D01*
X150658492Y-90946784D01*
X150942790Y-91136746D01*
X151258686Y-91267594D01*
X151594039Y-91334300D01*
X151935961Y-91334300D01*
X152271314Y-91267594D01*
X152587210Y-91136746D01*
X152871508Y-90946784D01*
X153113284Y-90705008D01*
X153303246Y-90420710D01*
X153434094Y-90104814D01*
X153500800Y-89769461D01*
X153500800Y-89427539D01*
X153434094Y-89092186D01*
X153303246Y-88776290D01*
X153113284Y-88491992D01*
X152871508Y-88250216D01*
X152587210Y-88060254D01*
X152271314Y-87929406D01*
X151935961Y-87862700D01*
X151594039Y-87862700D01*
X151258686Y-87929406D01*
X150942790Y-88060254D01*
X150658492Y-88250216D01*
X150495000Y-88413708D01*
X150331508Y-88250216D01*
X150047210Y-88060254D01*
X149731314Y-87929406D01*
X149395961Y-87862700D01*
X149054039Y-87862700D01*
X148718686Y-87929406D01*
X148402790Y-88060254D01*
X148118492Y-88250216D01*
X147876716Y-88491992D01*
X147686754Y-88776290D01*
X147555906Y-89092186D01*
X147489200Y-89427539D01*
X142571146Y-89427539D01*
X142502333Y-89081597D01*
X142352338Y-88719476D01*
X142134579Y-88393576D01*
X141857424Y-88116421D01*
X141531524Y-87898662D01*
X141169403Y-87748667D01*
X140784978Y-87672200D01*
X140393022Y-87672200D01*
X140008597Y-87748667D01*
X139646476Y-87898662D01*
X139320576Y-88116421D01*
X139043421Y-88393576D01*
X138825662Y-88719476D01*
X138675667Y-89081597D01*
X138599200Y-89466022D01*
X138599200Y-89857978D01*
X138665744Y-90192516D01*
X138442652Y-90148141D01*
X138117630Y-90148141D01*
X137798854Y-90211549D01*
X137498573Y-90335930D01*
X137448965Y-90369077D01*
X137433568Y-90358789D01*
X137133287Y-90234408D01*
X136814511Y-90171000D01*
X136489489Y-90171000D01*
X136170713Y-90234408D01*
X135870432Y-90358789D01*
X135600186Y-90539361D01*
X135370361Y-90769186D01*
X135189789Y-91039432D01*
X135065408Y-91339713D01*
X135002000Y-91658489D01*
X133759385Y-91658489D01*
X133624541Y-91602635D01*
X133274466Y-91533000D01*
X132917534Y-91533000D01*
X132567459Y-91602635D01*
X132237696Y-91739227D01*
X131940918Y-91937528D01*
X131826000Y-92052446D01*
X131711082Y-91937528D01*
X131414304Y-91739227D01*
X131084541Y-91602635D01*
X130734466Y-91533000D01*
X130377534Y-91533000D01*
X130027459Y-91602635D01*
X129697696Y-91739227D01*
X129400918Y-91937528D01*
X129148528Y-92189918D01*
X128950227Y-92486696D01*
X128813635Y-92816459D01*
X128744000Y-93166534D01*
X127134000Y-93166534D01*
X127134000Y-85038917D01*
X151146800Y-85038917D01*
X151146800Y-85445883D01*
X151226196Y-85845030D01*
X151381935Y-86221018D01*
X151608033Y-86559398D01*
X151895802Y-86847167D01*
X152234182Y-87073265D01*
X152610170Y-87229004D01*
X153009317Y-87308400D01*
X153416283Y-87308400D01*
X153469100Y-87297894D01*
X153546121Y-87685102D01*
X153701860Y-88061090D01*
X153927958Y-88399470D01*
X154112362Y-88583874D01*
X153970233Y-88726002D01*
X153744135Y-89064382D01*
X153588396Y-89440370D01*
X153509000Y-89839517D01*
X153509000Y-90246483D01*
X153588396Y-90645630D01*
X153744135Y-91021618D01*
X153970233Y-91359998D01*
X154258002Y-91647767D01*
X154596382Y-91873865D01*
X154972370Y-92029604D01*
X155371517Y-92109000D01*
X155778483Y-92109000D01*
X156177630Y-92029604D01*
X156553618Y-91873865D01*
X156891998Y-91647767D01*
X157179767Y-91359998D01*
X157405865Y-91021618D01*
X157561604Y-90645630D01*
X157641000Y-90246483D01*
X157641000Y-89839517D01*
X157561604Y-89440370D01*
X157405865Y-89064382D01*
X157179767Y-88726002D01*
X156995364Y-88541599D01*
X157137492Y-88399470D01*
X157363590Y-88061090D01*
X157519329Y-87685102D01*
X157598725Y-87285955D01*
X157598725Y-86878989D01*
X157519329Y-86479842D01*
X157363590Y-86103854D01*
X157260606Y-85949727D01*
X157267829Y-85945866D01*
X157502768Y-85753056D01*
X157695578Y-85518117D01*
X157838848Y-85250077D01*
X157927074Y-84959236D01*
X157956864Y-84656772D01*
X157956864Y-83666172D01*
X157927074Y-83363708D01*
X157838848Y-83072867D01*
X157695578Y-82804827D01*
X157502768Y-82569888D01*
X157483459Y-82554042D01*
X157496222Y-82541279D01*
X157719541Y-82207059D01*
X157873365Y-81835693D01*
X157951784Y-81441454D01*
X157951784Y-81039490D01*
X157873365Y-80645251D01*
X157719541Y-80273885D01*
X157496222Y-79939665D01*
X157235909Y-79679352D01*
X158673800Y-79679352D01*
X158879636Y-79659079D01*
X159077562Y-79599039D01*
X159259971Y-79501539D01*
X159328149Y-79445587D01*
X159331476Y-79447810D01*
X159693597Y-79597805D01*
X160078022Y-79674272D01*
X160469978Y-79674272D01*
X160854403Y-79597805D01*
X161216524Y-79447810D01*
X161542424Y-79230051D01*
X161544000Y-79228475D01*
X161545576Y-79230051D01*
X161871476Y-79447810D01*
X162233597Y-79597805D01*
X162618022Y-79674272D01*
X163009978Y-79674272D01*
X163232636Y-79629982D01*
X163209600Y-79648888D01*
X163016790Y-79883827D01*
X162873520Y-80151867D01*
X162785294Y-80442708D01*
X162755504Y-80745172D01*
X162755504Y-81735772D01*
X162785294Y-82038236D01*
X162873520Y-82329077D01*
X163016790Y-82597117D01*
X163209600Y-82832056D01*
X163228909Y-82847902D01*
X163216146Y-82860665D01*
X162992827Y-83194885D01*
X162839003Y-83566251D01*
X162760584Y-83960490D01*
X162760584Y-84362454D01*
X162839003Y-84756693D01*
X162992827Y-85128059D01*
X163216146Y-85462279D01*
X163500377Y-85746510D01*
X163564155Y-85789125D01*
X163353860Y-86103854D01*
X163198121Y-86479842D01*
X163118725Y-86878989D01*
X163118725Y-87285955D01*
X163198121Y-87685102D01*
X163353860Y-88061090D01*
X163579958Y-88399470D01*
X163764362Y-88583874D01*
X163622233Y-88726002D01*
X163396135Y-89064382D01*
X163240396Y-89440370D01*
X163161000Y-89839517D01*
X163161000Y-90246483D01*
X163240396Y-90645630D01*
X163396135Y-91021618D01*
X163622233Y-91359998D01*
X163910002Y-91647767D01*
X164248382Y-91873865D01*
X164624370Y-92029604D01*
X165023517Y-92109000D01*
X165430483Y-92109000D01*
X165829630Y-92029604D01*
X166205618Y-91873865D01*
X166543998Y-91647767D01*
X166831767Y-91359998D01*
X167057865Y-91021618D01*
X167213604Y-90645630D01*
X167293000Y-90246483D01*
X167293000Y-89839517D01*
X167213604Y-89440370D01*
X167057865Y-89064382D01*
X166831767Y-88726002D01*
X166647364Y-88541599D01*
X166789492Y-88399470D01*
X167015590Y-88061090D01*
X167171329Y-87685102D01*
X167250725Y-87285955D01*
X167250725Y-86959489D01*
X167641000Y-86959489D01*
X167641000Y-87284511D01*
X167704408Y-87603287D01*
X167828789Y-87903568D01*
X168009361Y-88173814D01*
X168239186Y-88403639D01*
X168509432Y-88584211D01*
X168809713Y-88708592D01*
X169128489Y-88772000D01*
X169453511Y-88772000D01*
X169772287Y-88708592D01*
X170072568Y-88584211D01*
X170342814Y-88403639D01*
X170572639Y-88173814D01*
X170753211Y-87903568D01*
X170877592Y-87603287D01*
X170941000Y-87284511D01*
X170941000Y-86959489D01*
X170877592Y-86640713D01*
X170753211Y-86340432D01*
X170572639Y-86070186D01*
X170342814Y-85840361D01*
X170072568Y-85659789D01*
X169772287Y-85535408D01*
X169453511Y-85472000D01*
X169128489Y-85472000D01*
X168809713Y-85535408D01*
X168509432Y-85659789D01*
X168239186Y-85840361D01*
X168009361Y-86070186D01*
X167828789Y-86340432D01*
X167704408Y-86640713D01*
X167641000Y-86959489D01*
X167250725Y-86959489D01*
X167250725Y-86878989D01*
X167171329Y-86479842D01*
X167015590Y-86103854D01*
X166789492Y-85765474D01*
X166501723Y-85477705D01*
X166414746Y-85419589D01*
X166609541Y-85128059D01*
X166763365Y-84756693D01*
X166841784Y-84362454D01*
X166841784Y-83960490D01*
X166763365Y-83566251D01*
X166609541Y-83194885D01*
X166430691Y-82927217D01*
X171757360Y-82927217D01*
X171777633Y-83133053D01*
X171837673Y-83330979D01*
X171935173Y-83513388D01*
X172066386Y-83673271D01*
X173431385Y-85038270D01*
X173591268Y-85169483D01*
X173773677Y-85266983D01*
X173971603Y-85327023D01*
X174177439Y-85347296D01*
X174383275Y-85327023D01*
X174581201Y-85266983D01*
X174763610Y-85169483D01*
X174923493Y-85038270D01*
X176288492Y-83673271D01*
X176419705Y-83513388D01*
X176517205Y-83330979D01*
X176577245Y-83133053D01*
X176597518Y-82927217D01*
X176577245Y-82721381D01*
X176570760Y-82700000D01*
X188192976Y-82700000D01*
X188192976Y-83096960D01*
X188270419Y-83486292D01*
X188422329Y-83853035D01*
X188642868Y-84183095D01*
X188923561Y-84463788D01*
X189253621Y-84684327D01*
X189620364Y-84836237D01*
X190009696Y-84913680D01*
X190406656Y-84913680D01*
X190795988Y-84836237D01*
X191162731Y-84684327D01*
X191492791Y-84463788D01*
X191773484Y-84183095D01*
X191994023Y-83853035D01*
X192145933Y-83486292D01*
X192223376Y-83096960D01*
X192223376Y-82700000D01*
X192145933Y-82310668D01*
X191994023Y-81943925D01*
X191773484Y-81613865D01*
X191492791Y-81333172D01*
X191162731Y-81112633D01*
X190795988Y-80960723D01*
X190406656Y-80883280D01*
X190009696Y-80883280D01*
X189620364Y-80960723D01*
X189253621Y-81112633D01*
X188923561Y-81333172D01*
X188642868Y-81613865D01*
X188422329Y-81943925D01*
X188270419Y-82310668D01*
X188192976Y-82700000D01*
X176570760Y-82700000D01*
X176517205Y-82523455D01*
X176419705Y-82341046D01*
X176288492Y-82181163D01*
X174923493Y-80816164D01*
X174763610Y-80684951D01*
X174581201Y-80587451D01*
X174383275Y-80527411D01*
X174177439Y-80507138D01*
X173971603Y-80527411D01*
X173773677Y-80587451D01*
X173591268Y-80684951D01*
X173431385Y-80816164D01*
X172066386Y-82181163D01*
X171935173Y-82341046D01*
X171837673Y-82523455D01*
X171777633Y-82721381D01*
X171757360Y-82927217D01*
X166430691Y-82927217D01*
X166386222Y-82860665D01*
X166373459Y-82847902D01*
X166392768Y-82832056D01*
X166585578Y-82597117D01*
X166728848Y-82329077D01*
X166817074Y-82038236D01*
X166846864Y-81735772D01*
X166846864Y-80745172D01*
X166817074Y-80442708D01*
X166728848Y-80151867D01*
X166585578Y-79883827D01*
X166392768Y-79648888D01*
X166157829Y-79456078D01*
X165889789Y-79312808D01*
X165598948Y-79224582D01*
X165296484Y-79194792D01*
X164305884Y-79194792D01*
X164097122Y-79215353D01*
X164359579Y-78952896D01*
X164577338Y-78626996D01*
X164727333Y-78264875D01*
X164803800Y-77880450D01*
X164803800Y-77488494D01*
X164727333Y-77104069D01*
X164577338Y-76741948D01*
X164359579Y-76416048D01*
X164082424Y-76138893D01*
X163756524Y-75921134D01*
X163394403Y-75771139D01*
X163009978Y-75694672D01*
X162618022Y-75694672D01*
X162233597Y-75771139D01*
X161871476Y-75921134D01*
X161545576Y-76138893D01*
X161544000Y-76140469D01*
X161542424Y-76138893D01*
X161216524Y-75921134D01*
X160854403Y-75771139D01*
X160469978Y-75694672D01*
X160078022Y-75694672D01*
X159693597Y-75771139D01*
X159331476Y-75921134D01*
X159328149Y-75923357D01*
X159259971Y-75867405D01*
X159077562Y-75769905D01*
X158879636Y-75709865D01*
X158673800Y-75689592D01*
X156794200Y-75689592D01*
X156588364Y-75709865D01*
X156390438Y-75769905D01*
X156208029Y-75867405D01*
X156048146Y-75998618D01*
X155916933Y-76158501D01*
X155819433Y-76340910D01*
X155759393Y-76538836D01*
X155739120Y-76744672D01*
X155739120Y-78624272D01*
X155759393Y-78830108D01*
X155819433Y-79028034D01*
X155911283Y-79199872D01*
X155710202Y-79199872D01*
X155315963Y-79278291D01*
X154944597Y-79432115D01*
X154610377Y-79655434D01*
X154326146Y-79939665D01*
X154102827Y-80273885D01*
X153949003Y-80645251D01*
X153870584Y-81039490D01*
X153870584Y-81441454D01*
X153949003Y-81835693D01*
X154102827Y-82207059D01*
X154326146Y-82541279D01*
X154338909Y-82554042D01*
X154319600Y-82569888D01*
X154126790Y-82804827D01*
X153983520Y-83072867D01*
X153915460Y-83297230D01*
X153815430Y-83255796D01*
X153416283Y-83176400D01*
X153009317Y-83176400D01*
X152610170Y-83255796D01*
X152234182Y-83411535D01*
X151895802Y-83637633D01*
X151608033Y-83925402D01*
X151381935Y-84263782D01*
X151226196Y-84639770D01*
X151146800Y-85038917D01*
X127134000Y-85038917D01*
X127134000Y-82423000D01*
X128738920Y-82423000D01*
X128738920Y-83947000D01*
X128759193Y-84152836D01*
X128819233Y-84350762D01*
X128916733Y-84533171D01*
X129047946Y-84693054D01*
X129207829Y-84824267D01*
X129390238Y-84921767D01*
X129588164Y-84981807D01*
X129794000Y-85002080D01*
X131318000Y-85002080D01*
X131523836Y-84981807D01*
X131721762Y-84921767D01*
X131904171Y-84824267D01*
X132064054Y-84693054D01*
X132073756Y-84681232D01*
X132237696Y-84790773D01*
X132567459Y-84927365D01*
X132917534Y-84997000D01*
X133274466Y-84997000D01*
X133624541Y-84927365D01*
X133954304Y-84790773D01*
X134251082Y-84592472D01*
X134503472Y-84340082D01*
X134701773Y-84043304D01*
X134838365Y-83713541D01*
X134908000Y-83363466D01*
X134908000Y-83006534D01*
X134838365Y-82656459D01*
X134701773Y-82326696D01*
X134503472Y-82029918D01*
X134251082Y-81777528D01*
X134180369Y-81730279D01*
X140151140Y-81730279D01*
X140151140Y-82099721D01*
X140223214Y-82462063D01*
X140364593Y-82803383D01*
X140569844Y-83110562D01*
X140831078Y-83371796D01*
X141138257Y-83577047D01*
X141479577Y-83718426D01*
X141841919Y-83790500D01*
X142211361Y-83790500D01*
X142573703Y-83718426D01*
X142915023Y-83577047D01*
X143222202Y-83371796D01*
X143483436Y-83110562D01*
X143688687Y-82803383D01*
X143830066Y-82462063D01*
X143902140Y-82099721D01*
X143902140Y-81730279D01*
X143830066Y-81367937D01*
X143688687Y-81026617D01*
X143483436Y-80719438D01*
X143222202Y-80458204D01*
X142915023Y-80252953D01*
X142573703Y-80111574D01*
X142211361Y-80039500D01*
X141841919Y-80039500D01*
X141479577Y-80111574D01*
X141138257Y-80252953D01*
X140831078Y-80458204D01*
X140569844Y-80719438D01*
X140364593Y-81026617D01*
X140223214Y-81367937D01*
X140151140Y-81730279D01*
X134180369Y-81730279D01*
X133954304Y-81579227D01*
X133624541Y-81442635D01*
X133274466Y-81373000D01*
X132917534Y-81373000D01*
X132567459Y-81442635D01*
X132237696Y-81579227D01*
X132073756Y-81688768D01*
X132064054Y-81676946D01*
X131904171Y-81545733D01*
X131721762Y-81448233D01*
X131523836Y-81388193D01*
X131318000Y-81367920D01*
X129794000Y-81367920D01*
X129588164Y-81388193D01*
X129390238Y-81448233D01*
X129207829Y-81545733D01*
X129047946Y-81676946D01*
X128916733Y-81836829D01*
X128819233Y-82019238D01*
X128759193Y-82217164D01*
X128738920Y-82423000D01*
X127134000Y-82423000D01*
X127134000Y-75347161D01*
X128931400Y-75347161D01*
X128931400Y-75672183D01*
X128994808Y-75990959D01*
X129119189Y-76291240D01*
X129299761Y-76561486D01*
X129529586Y-76791311D01*
X129799832Y-76971883D01*
X130100113Y-77096264D01*
X130418889Y-77159672D01*
X130743911Y-77159672D01*
X131062687Y-77096264D01*
X131362968Y-76971883D01*
X131633214Y-76791311D01*
X131679853Y-76744672D01*
X139991120Y-76744672D01*
X139991120Y-78624272D01*
X140011393Y-78830108D01*
X140071433Y-79028034D01*
X140168933Y-79210443D01*
X140300146Y-79370326D01*
X140460029Y-79501539D01*
X140642438Y-79599039D01*
X140840364Y-79659079D01*
X141046200Y-79679352D01*
X142925800Y-79679352D01*
X143131636Y-79659079D01*
X143329562Y-79599039D01*
X143511971Y-79501539D01*
X143671854Y-79370326D01*
X143803067Y-79210443D01*
X143900567Y-79028034D01*
X143960607Y-78830108D01*
X143980880Y-78624272D01*
X143980880Y-77488494D01*
X145076200Y-77488494D01*
X145076200Y-77880450D01*
X145152667Y-78264875D01*
X145302662Y-78626996D01*
X145520421Y-78952896D01*
X145797576Y-79230051D01*
X146123476Y-79447810D01*
X146485597Y-79597805D01*
X146870022Y-79674272D01*
X147261978Y-79674272D01*
X147646403Y-79597805D01*
X148008524Y-79447810D01*
X148334424Y-79230051D01*
X148611579Y-78952896D01*
X148829338Y-78626996D01*
X148979333Y-78264875D01*
X149055800Y-77880450D01*
X149055800Y-77488494D01*
X148979333Y-77104069D01*
X148829338Y-76741948D01*
X148611579Y-76416048D01*
X148334424Y-76138893D01*
X148008524Y-75921134D01*
X147646403Y-75771139D01*
X147261978Y-75694672D01*
X146870022Y-75694672D01*
X146485597Y-75771139D01*
X146123476Y-75921134D01*
X145797576Y-76138893D01*
X145520421Y-76416048D01*
X145302662Y-76741948D01*
X145152667Y-77104069D01*
X145076200Y-77488494D01*
X143980880Y-77488494D01*
X143980880Y-76744672D01*
X143960607Y-76538836D01*
X143900567Y-76340910D01*
X143803067Y-76158501D01*
X143671854Y-75998618D01*
X143511971Y-75867405D01*
X143329562Y-75769905D01*
X143131636Y-75709865D01*
X142925800Y-75689592D01*
X141046200Y-75689592D01*
X140840364Y-75709865D01*
X140642438Y-75769905D01*
X140460029Y-75867405D01*
X140300146Y-75998618D01*
X140168933Y-76158501D01*
X140071433Y-76340910D01*
X140011393Y-76538836D01*
X139991120Y-76744672D01*
X131679853Y-76744672D01*
X131863039Y-76561486D01*
X132043611Y-76291240D01*
X132167992Y-75990959D01*
X132231400Y-75672183D01*
X132231400Y-75347161D01*
X132167992Y-75028385D01*
X132043611Y-74728104D01*
X131863039Y-74457858D01*
X131633214Y-74228033D01*
X131362968Y-74047461D01*
X131062687Y-73923080D01*
X130743911Y-73859672D01*
X130418889Y-73859672D01*
X130100113Y-73923080D01*
X129799832Y-74047461D01*
X129529586Y-74228033D01*
X129299761Y-74457858D01*
X129119189Y-74728104D01*
X128994808Y-75028385D01*
X128931400Y-75347161D01*
X127134000Y-75347161D01*
X127134000Y-73032000D01*
X199764000Y-73032000D01*
X199764001Y-115182000D01*
G04 #@! TD*
M02*
