G04 #@! TF.GenerationSoftware,KiCad,Pcbnew,(5.0.2-5)-5*
G04 #@! TF.CreationDate,2022-02-02T03:02:31+07:00*
G04 #@! TF.ProjectId,adjustable PSU,61646a75-7374-4616-926c-65205053552e,rev?*
G04 #@! TF.SameCoordinates,Original*
G04 #@! TF.FileFunction,Legend,Bot*
G04 #@! TF.FilePolarity,Positive*
%FSLAX46Y46*%
G04 Gerber Fmt 4.6, Leading zero omitted, Abs format (unit mm)*
G04 Created by KiCad (PCBNEW (5.0.2-5)-5) date 2022 February 02, Wednesday 03:02:31*
%MOMM*%
%LPD*%
G01*
G04 APERTURE LIST*
%ADD10C,0.250000*%
%ADD11C,0.150000*%
%ADD12C,0.010000*%
G04 APERTURE END LIST*
D10*
X197213714Y-80414761D02*
X197118476Y-80462380D01*
X196928000Y-80462380D01*
X196832761Y-80414761D01*
X196785142Y-80319523D01*
X196785142Y-80271904D01*
X196832761Y-80176666D01*
X196928000Y-80129047D01*
X197070857Y-80129047D01*
X197166095Y-80081428D01*
X197213714Y-79986190D01*
X197213714Y-79938571D01*
X197166095Y-79843333D01*
X197070857Y-79795714D01*
X196928000Y-79795714D01*
X196832761Y-79843333D01*
X195928000Y-79795714D02*
X195928000Y-80795714D01*
X195928000Y-80414761D02*
X196023238Y-80462380D01*
X196213714Y-80462380D01*
X196308952Y-80414761D01*
X196356571Y-80367142D01*
X196404190Y-80271904D01*
X196404190Y-79986190D01*
X196356571Y-79890952D01*
X196308952Y-79843333D01*
X196213714Y-79795714D01*
X196023238Y-79795714D01*
X195928000Y-79843333D01*
X195023238Y-79795714D02*
X195023238Y-80462380D01*
X195451809Y-79795714D02*
X195451809Y-80319523D01*
X195404190Y-80414761D01*
X195308952Y-80462380D01*
X195166095Y-80462380D01*
X195070857Y-80414761D01*
X195023238Y-80367142D01*
X194118476Y-80462380D02*
X194118476Y-79938571D01*
X194166095Y-79843333D01*
X194261333Y-79795714D01*
X194451809Y-79795714D01*
X194547047Y-79843333D01*
X194118476Y-80414761D02*
X194213714Y-80462380D01*
X194451809Y-80462380D01*
X194547047Y-80414761D01*
X194594666Y-80319523D01*
X194594666Y-80224285D01*
X194547047Y-80129047D01*
X194451809Y-80081428D01*
X194213714Y-80081428D01*
X194118476Y-80033809D01*
X193642285Y-80462380D02*
X193642285Y-79795714D01*
X193642285Y-79986190D02*
X193594666Y-79890952D01*
X193547047Y-79843333D01*
X193451809Y-79795714D01*
X193356571Y-79795714D01*
X192642285Y-80414761D02*
X192737523Y-80462380D01*
X192928000Y-80462380D01*
X193023238Y-80414761D01*
X193070857Y-80319523D01*
X193070857Y-79938571D01*
X193023238Y-79843333D01*
X192928000Y-79795714D01*
X192737523Y-79795714D01*
X192642285Y-79843333D01*
X192594666Y-79938571D01*
X192594666Y-80033809D01*
X193070857Y-80129047D01*
X192213714Y-80414761D02*
X192118476Y-80462380D01*
X191928000Y-80462380D01*
X191832761Y-80414761D01*
X191785142Y-80319523D01*
X191785142Y-80271904D01*
X191832761Y-80176666D01*
X191928000Y-80129047D01*
X192070857Y-80129047D01*
X192166095Y-80081428D01*
X192213714Y-79986190D01*
X192213714Y-79938571D01*
X192166095Y-79843333D01*
X192070857Y-79795714D01*
X191928000Y-79795714D01*
X191832761Y-79843333D01*
X191213714Y-80462380D02*
X191308952Y-80414761D01*
X191356571Y-80367142D01*
X191404190Y-80271904D01*
X191404190Y-79986190D01*
X191356571Y-79890952D01*
X191308952Y-79843333D01*
X191213714Y-79795714D01*
X191070857Y-79795714D01*
X190975619Y-79843333D01*
X190928000Y-79890952D01*
X190880380Y-79986190D01*
X190880380Y-80271904D01*
X190928000Y-80367142D01*
X190975619Y-80414761D01*
X191070857Y-80462380D01*
X191213714Y-80462380D01*
X190308952Y-80462380D02*
X190404190Y-80414761D01*
X190451809Y-80319523D01*
X190451809Y-79462380D01*
X189928000Y-80462380D02*
X189928000Y-79795714D01*
X189928000Y-79462380D02*
X189975619Y-79510000D01*
X189928000Y-79557619D01*
X189880380Y-79510000D01*
X189928000Y-79462380D01*
X189928000Y-79557619D01*
X189023238Y-80462380D02*
X189023238Y-79462380D01*
X189023238Y-80414761D02*
X189118476Y-80462380D01*
X189308952Y-80462380D01*
X189404190Y-80414761D01*
X189451809Y-80367142D01*
X189499428Y-80271904D01*
X189499428Y-79986190D01*
X189451809Y-79890952D01*
X189404190Y-79843333D01*
X189308952Y-79795714D01*
X189118476Y-79795714D01*
X189023238Y-79843333D01*
X188547047Y-80367142D02*
X188499428Y-80414761D01*
X188547047Y-80462380D01*
X188594666Y-80414761D01*
X188547047Y-80367142D01*
X188547047Y-80462380D01*
X188070857Y-80462380D02*
X188070857Y-79795714D01*
X188070857Y-79462380D02*
X188118476Y-79510000D01*
X188070857Y-79557619D01*
X188023238Y-79510000D01*
X188070857Y-79462380D01*
X188070857Y-79557619D01*
X187594666Y-79795714D02*
X187594666Y-80462380D01*
X187594666Y-79890952D02*
X187547047Y-79843333D01*
X187451809Y-79795714D01*
X187308952Y-79795714D01*
X187213714Y-79843333D01*
X187166095Y-79938571D01*
X187166095Y-80462380D01*
X186737523Y-80414761D02*
X186642285Y-80462380D01*
X186451809Y-80462380D01*
X186356571Y-80414761D01*
X186308952Y-80319523D01*
X186308952Y-80271904D01*
X186356571Y-80176666D01*
X186451809Y-80129047D01*
X186594666Y-80129047D01*
X186689904Y-80081428D01*
X186737523Y-79986190D01*
X186737523Y-79938571D01*
X186689904Y-79843333D01*
X186594666Y-79795714D01*
X186451809Y-79795714D01*
X186356571Y-79843333D01*
X186023238Y-79795714D02*
X185642285Y-79795714D01*
X185880380Y-79462380D02*
X185880380Y-80319523D01*
X185832761Y-80414761D01*
X185737523Y-80462380D01*
X185642285Y-80462380D01*
X185308952Y-80462380D02*
X185308952Y-79795714D01*
X185308952Y-79986190D02*
X185261333Y-79890952D01*
X185213714Y-79843333D01*
X185118476Y-79795714D01*
X185023238Y-79795714D01*
X184261333Y-79795714D02*
X184261333Y-80462380D01*
X184689904Y-79795714D02*
X184689904Y-80319523D01*
X184642285Y-80414761D01*
X184547047Y-80462380D01*
X184404190Y-80462380D01*
X184308952Y-80414761D01*
X184261333Y-80367142D01*
X183785142Y-80462380D02*
X183785142Y-79795714D01*
X183785142Y-79890952D02*
X183737523Y-79843333D01*
X183642285Y-79795714D01*
X183499428Y-79795714D01*
X183404190Y-79843333D01*
X183356571Y-79938571D01*
X183356571Y-80462380D01*
X183356571Y-79938571D02*
X183308952Y-79843333D01*
X183213714Y-79795714D01*
X183070857Y-79795714D01*
X182975619Y-79843333D01*
X182928000Y-79938571D01*
X182928000Y-80462380D01*
X182070857Y-80414761D02*
X182166095Y-80462380D01*
X182356571Y-80462380D01*
X182451809Y-80414761D01*
X182499428Y-80319523D01*
X182499428Y-79938571D01*
X182451809Y-79843333D01*
X182356571Y-79795714D01*
X182166095Y-79795714D01*
X182070857Y-79843333D01*
X182023238Y-79938571D01*
X182023238Y-80033809D01*
X182499428Y-80129047D01*
X181594666Y-79795714D02*
X181594666Y-80462380D01*
X181594666Y-79890952D02*
X181547047Y-79843333D01*
X181451809Y-79795714D01*
X181308952Y-79795714D01*
X181213714Y-79843333D01*
X181166095Y-79938571D01*
X181166095Y-80462380D01*
X180832761Y-79795714D02*
X180451809Y-79795714D01*
X180689904Y-79462380D02*
X180689904Y-80319523D01*
X180642285Y-80414761D01*
X180547047Y-80462380D01*
X180451809Y-80462380D01*
X179689904Y-80462380D02*
X179689904Y-79938571D01*
X179737523Y-79843333D01*
X179832761Y-79795714D01*
X180023238Y-79795714D01*
X180118476Y-79843333D01*
X179689904Y-80414761D02*
X179785142Y-80462380D01*
X180023238Y-80462380D01*
X180118476Y-80414761D01*
X180166095Y-80319523D01*
X180166095Y-80224285D01*
X180118476Y-80129047D01*
X180023238Y-80081428D01*
X179785142Y-80081428D01*
X179689904Y-80033809D01*
X179261333Y-80414761D02*
X179166095Y-80462380D01*
X178975619Y-80462380D01*
X178880380Y-80414761D01*
X178832761Y-80319523D01*
X178832761Y-80271904D01*
X178880380Y-80176666D01*
X178975619Y-80129047D01*
X179118476Y-80129047D01*
X179213714Y-80081428D01*
X179261333Y-79986190D01*
X179261333Y-79938571D01*
X179213714Y-79843333D01*
X179118476Y-79795714D01*
X178975619Y-79795714D01*
X178880380Y-79843333D01*
X178404190Y-80462380D02*
X178404190Y-79795714D01*
X178404190Y-79462380D02*
X178451809Y-79510000D01*
X178404190Y-79557619D01*
X178356571Y-79510000D01*
X178404190Y-79462380D01*
X178404190Y-79557619D01*
X177499428Y-80462380D02*
X177499428Y-79938571D01*
X177547047Y-79843333D01*
X177642285Y-79795714D01*
X177832761Y-79795714D01*
X177928000Y-79843333D01*
X177499428Y-80414761D02*
X177594666Y-80462380D01*
X177832761Y-80462380D01*
X177928000Y-80414761D01*
X177975619Y-80319523D01*
X177975619Y-80224285D01*
X177928000Y-80129047D01*
X177832761Y-80081428D01*
X177594666Y-80081428D01*
X177499428Y-80033809D01*
X177023238Y-80367142D02*
X176975619Y-80414761D01*
X177023238Y-80462380D01*
X177070857Y-80414761D01*
X177023238Y-80367142D01*
X177023238Y-80462380D01*
X176547047Y-79795714D02*
X176547047Y-80462380D01*
X176547047Y-79890952D02*
X176499428Y-79843333D01*
X176404190Y-79795714D01*
X176261333Y-79795714D01*
X176166095Y-79843333D01*
X176118476Y-79938571D01*
X176118476Y-80462380D01*
X175261333Y-80414761D02*
X175356571Y-80462380D01*
X175547047Y-80462380D01*
X175642285Y-80414761D01*
X175689904Y-80319523D01*
X175689904Y-79938571D01*
X175642285Y-79843333D01*
X175547047Y-79795714D01*
X175356571Y-79795714D01*
X175261333Y-79843333D01*
X175213714Y-79938571D01*
X175213714Y-80033809D01*
X175689904Y-80129047D01*
X174928000Y-79795714D02*
X174547047Y-79795714D01*
X174785142Y-79462380D02*
X174785142Y-80319523D01*
X174737523Y-80414761D01*
X174642285Y-80462380D01*
X174547047Y-80462380D01*
D11*
G04 #@! TO.C,G\002A\002A\002A*
X187505927Y-86334600D02*
G75*
G03X187505927Y-86334600I-104727J0D01*
G01*
D12*
G36*
X190180481Y-84715125D02*
X190154702Y-84732182D01*
X189829199Y-85019315D01*
X189596934Y-85360975D01*
X189488302Y-85709387D01*
X189484000Y-85786367D01*
X189556701Y-86109899D01*
X189748099Y-86359269D01*
X190018138Y-86518389D01*
X190326760Y-86571166D01*
X190633908Y-86501512D01*
X190859363Y-86338834D01*
X191012934Y-86113613D01*
X191143621Y-85814856D01*
X191182340Y-85682667D01*
X191267149Y-85414461D01*
X191369450Y-85206494D01*
X191420970Y-85143784D01*
X191505552Y-85043315D01*
X191449372Y-84987520D01*
X191323843Y-84913611D01*
X190923333Y-84955484D01*
X190855163Y-85072116D01*
X190789278Y-85047667D01*
X190690532Y-84998438D01*
X190688736Y-84947125D01*
X190773009Y-84835317D01*
X190893700Y-84836000D01*
X190969900Y-84937600D01*
X191260528Y-84924900D01*
X191315135Y-84908484D01*
X191127988Y-84767702D01*
X191098483Y-84743235D01*
X190807676Y-84574384D01*
X190509940Y-84565111D01*
X190180481Y-84715125D01*
X190180481Y-84715125D01*
G37*
X190180481Y-84715125D02*
X190154702Y-84732182D01*
X189829199Y-85019315D01*
X189596934Y-85360975D01*
X189488302Y-85709387D01*
X189484000Y-85786367D01*
X189556701Y-86109899D01*
X189748099Y-86359269D01*
X190018138Y-86518389D01*
X190326760Y-86571166D01*
X190633908Y-86501512D01*
X190859363Y-86338834D01*
X191012934Y-86113613D01*
X191143621Y-85814856D01*
X191182340Y-85682667D01*
X191267149Y-85414461D01*
X191369450Y-85206494D01*
X191420970Y-85143784D01*
X191505552Y-85043315D01*
X191449372Y-84987520D01*
X191323843Y-84913611D01*
X190923333Y-84955484D01*
X190855163Y-85072116D01*
X190789278Y-85047667D01*
X190690532Y-84998438D01*
X190688736Y-84947125D01*
X190773009Y-84835317D01*
X190893700Y-84836000D01*
X190969900Y-84937600D01*
X191260528Y-84924900D01*
X191315135Y-84908484D01*
X191127988Y-84767702D01*
X191098483Y-84743235D01*
X190807676Y-84574384D01*
X190509940Y-84565111D01*
X190180481Y-84715125D01*
G36*
X188357575Y-85377431D02*
X188219252Y-85571992D01*
X188108168Y-85836249D01*
X188048955Y-86121105D01*
X188044983Y-86205688D01*
X188071665Y-86471586D01*
X188173861Y-86650536D01*
X188267751Y-86734855D01*
X188470862Y-86869252D01*
X188645582Y-86893125D01*
X188870855Y-86822774D01*
X189090717Y-86650332D01*
X189198318Y-86371336D01*
X189182552Y-86015026D01*
X189180758Y-86006646D01*
X189138136Y-85759969D01*
X189103000Y-85572600D01*
X189103000Y-85547200D01*
X188806666Y-85555667D01*
X188738090Y-85630781D01*
X188679666Y-85640334D01*
X188566995Y-85594616D01*
X188552666Y-85555667D01*
X188621243Y-85480552D01*
X188691064Y-85448141D01*
X188803736Y-85493859D01*
X188806666Y-85555667D01*
X189103000Y-85547200D01*
X189103000Y-85521800D01*
X189153801Y-85445600D01*
X188995512Y-85423717D01*
X188782948Y-85289682D01*
X188508653Y-85298149D01*
X188357575Y-85377431D01*
X188357575Y-85377431D01*
G37*
X188357575Y-85377431D02*
X188219252Y-85571992D01*
X188108168Y-85836249D01*
X188048955Y-86121105D01*
X188044983Y-86205688D01*
X188071665Y-86471586D01*
X188173861Y-86650536D01*
X188267751Y-86734855D01*
X188470862Y-86869252D01*
X188645582Y-86893125D01*
X188870855Y-86822774D01*
X189090717Y-86650332D01*
X189198318Y-86371336D01*
X189182552Y-86015026D01*
X189180758Y-86006646D01*
X189138136Y-85759969D01*
X189103000Y-85572600D01*
X189103000Y-85547200D01*
X188806666Y-85555667D01*
X188738090Y-85630781D01*
X188679666Y-85640334D01*
X188566995Y-85594616D01*
X188552666Y-85555667D01*
X188621243Y-85480552D01*
X188691064Y-85448141D01*
X188803736Y-85493859D01*
X188806666Y-85555667D01*
X189103000Y-85547200D01*
X189103000Y-85521800D01*
X189153801Y-85445600D01*
X188995512Y-85423717D01*
X188782948Y-85289682D01*
X188508653Y-85298149D01*
X188357575Y-85377431D01*
G36*
X187375800Y-86156800D02*
X187217546Y-86183981D01*
X187068840Y-86280083D01*
X187049833Y-86301328D01*
X186950935Y-86545319D01*
X186950953Y-86849298D01*
X187042514Y-87141432D01*
X187151818Y-87295182D01*
X187361212Y-87461898D01*
X187546858Y-87486448D01*
X187765283Y-87375762D01*
X187771828Y-87371199D01*
X187920228Y-87173576D01*
X187954542Y-86904340D01*
X187873606Y-86618062D01*
X187790666Y-86487000D01*
X187734483Y-86402334D01*
X187477400Y-86334600D01*
X187350400Y-86410800D01*
X187299600Y-86436200D01*
X187257711Y-86427671D01*
X187240333Y-86402334D01*
X187247046Y-86324315D01*
X187383491Y-86253070D01*
X187469709Y-86314530D01*
X187452000Y-86334600D01*
X187734483Y-86402334D01*
X187655200Y-86309200D01*
X187629800Y-86233000D01*
X187623216Y-86181241D01*
X187528200Y-86182200D01*
X187401200Y-86156800D01*
X187375800Y-86156800D01*
G37*
X187375800Y-86156800D02*
X187217546Y-86183981D01*
X187068840Y-86280083D01*
X187049833Y-86301328D01*
X186950935Y-86545319D01*
X186950953Y-86849298D01*
X187042514Y-87141432D01*
X187151818Y-87295182D01*
X187361212Y-87461898D01*
X187546858Y-87486448D01*
X187765283Y-87375762D01*
X187771828Y-87371199D01*
X187920228Y-87173576D01*
X187954542Y-86904340D01*
X187873606Y-86618062D01*
X187790666Y-86487000D01*
X187734483Y-86402334D01*
X187477400Y-86334600D01*
X187350400Y-86410800D01*
X187299600Y-86436200D01*
X187257711Y-86427671D01*
X187240333Y-86402334D01*
X187247046Y-86324315D01*
X187383491Y-86253070D01*
X187469709Y-86314530D01*
X187452000Y-86334600D01*
X187734483Y-86402334D01*
X187655200Y-86309200D01*
X187629800Y-86233000D01*
X187623216Y-86181241D01*
X187528200Y-86182200D01*
X187401200Y-86156800D01*
X187375800Y-86156800D01*
G36*
X189802469Y-87077507D02*
X189056037Y-87322662D01*
X188295202Y-87729503D01*
X187525758Y-88295209D01*
X187115411Y-88659450D01*
X186517860Y-89281245D01*
X185993847Y-89945272D01*
X185557386Y-90626483D01*
X185222488Y-91299831D01*
X185003164Y-91940267D01*
X184913425Y-92522744D01*
X184912000Y-92598367D01*
X184895705Y-92814715D01*
X184832137Y-92907232D01*
X184748714Y-92921667D01*
X184543073Y-92855493D01*
X184345073Y-92648590D01*
X184143519Y-92288388D01*
X184142736Y-92286667D01*
X183726666Y-92286667D01*
X183659309Y-92459319D01*
X183496668Y-92645572D01*
X183297888Y-92789562D01*
X183143993Y-92837000D01*
X182978653Y-92774166D01*
X182808058Y-92622136D01*
X182801478Y-92613915D01*
X182679880Y-92425806D01*
X182626138Y-92276331D01*
X182626000Y-92271400D01*
X182690369Y-92116667D01*
X182844155Y-91937726D01*
X183028372Y-91791925D01*
X183176333Y-91736334D01*
X183324647Y-91792670D01*
X183504114Y-91929741D01*
X183518848Y-91944152D01*
X183660756Y-92122574D01*
X183726168Y-92276828D01*
X183726666Y-92286667D01*
X184142736Y-92286667D01*
X184100322Y-92193515D01*
X183858724Y-91778312D01*
X183574926Y-91510657D01*
X183263880Y-91395531D01*
X182940538Y-91437913D01*
X182619852Y-91642783D01*
X182575200Y-91685533D01*
X182356016Y-91973246D01*
X182284779Y-92267041D01*
X182361622Y-92592250D01*
X182581832Y-92967413D01*
X182742573Y-93203605D01*
X182813285Y-93351846D01*
X182807176Y-93458408D01*
X182749212Y-93553816D01*
X182470534Y-93968939D01*
X182317949Y-94303602D01*
X182287467Y-94585749D01*
X182375096Y-94843327D01*
X182534388Y-95058164D01*
X182727312Y-95240253D01*
X182924140Y-95319388D01*
X183160499Y-95334667D01*
X183454418Y-95302962D01*
X183684247Y-95190397D01*
X183880570Y-94970795D01*
X184073970Y-94617979D01*
X184123374Y-94510518D01*
X184166052Y-94436324D01*
X183675970Y-94436324D01*
X183620510Y-94705799D01*
X183533823Y-94847834D01*
X183398573Y-94920807D01*
X183182196Y-94953536D01*
X183167918Y-94953667D01*
X182916429Y-94906432D01*
X182745618Y-94742617D01*
X182652691Y-94477005D01*
X182698491Y-94223226D01*
X182870630Y-94033892D01*
X182918425Y-94008709D01*
X183204460Y-93949539D01*
X183442816Y-94023928D01*
X183608362Y-94197612D01*
X183675970Y-94436324D01*
X184166052Y-94436324D01*
X184335267Y-94142153D01*
X184579656Y-93888285D01*
X184831895Y-93772806D01*
X184888955Y-93768334D01*
X184954021Y-93840307D01*
X185061112Y-94030279D01*
X185188614Y-94299330D01*
X185206319Y-94339834D01*
X185518550Y-94902748D01*
X185904157Y-95386400D01*
X186463519Y-95857855D01*
X187122517Y-96214826D01*
X187849754Y-96450087D01*
X188613835Y-96556413D01*
X189383364Y-96526579D01*
X190118411Y-96356276D01*
X190423244Y-96241251D01*
X190664689Y-96113678D01*
X190893599Y-95938587D01*
X191160823Y-95681007D01*
X191279755Y-95557620D01*
X191844346Y-94848872D01*
X192304893Y-94027453D01*
X192650652Y-93122003D01*
X192870878Y-92161162D01*
X192954826Y-91173572D01*
X192955333Y-91091380D01*
X192955333Y-90477526D01*
X193764692Y-89887227D01*
X194574052Y-89296928D01*
X194124526Y-89133304D01*
X193600071Y-88942355D01*
X193576099Y-88933470D01*
X191680953Y-88933470D01*
X191662553Y-89198631D01*
X191574546Y-89426869D01*
X191545211Y-89464833D01*
X191332343Y-89588436D01*
X191060136Y-89610117D01*
X190805522Y-89528470D01*
X190739500Y-89479545D01*
X190619326Y-89271206D01*
X190588725Y-88991535D01*
X190654736Y-88717056D01*
X190667100Y-88692506D01*
X190835930Y-88535756D01*
X191081355Y-88478479D01*
X191344290Y-88518837D01*
X191565647Y-88654990D01*
X191620537Y-88722175D01*
X191680953Y-88933470D01*
X193576099Y-88933470D01*
X193211306Y-88798263D01*
X192935162Y-88688987D01*
X192748569Y-88602486D01*
X192628457Y-88526721D01*
X192551756Y-88449651D01*
X192495396Y-88359235D01*
X192442432Y-88255393D01*
X192094204Y-87715252D01*
X191676233Y-87328145D01*
X191182926Y-87090393D01*
X190608690Y-86998318D01*
X190528710Y-86996860D01*
X189802469Y-87077507D01*
X189802469Y-87077507D01*
G37*
X189802469Y-87077507D02*
X189056037Y-87322662D01*
X188295202Y-87729503D01*
X187525758Y-88295209D01*
X187115411Y-88659450D01*
X186517860Y-89281245D01*
X185993847Y-89945272D01*
X185557386Y-90626483D01*
X185222488Y-91299831D01*
X185003164Y-91940267D01*
X184913425Y-92522744D01*
X184912000Y-92598367D01*
X184895705Y-92814715D01*
X184832137Y-92907232D01*
X184748714Y-92921667D01*
X184543073Y-92855493D01*
X184345073Y-92648590D01*
X184143519Y-92288388D01*
X184142736Y-92286667D01*
X183726666Y-92286667D01*
X183659309Y-92459319D01*
X183496668Y-92645572D01*
X183297888Y-92789562D01*
X183143993Y-92837000D01*
X182978653Y-92774166D01*
X182808058Y-92622136D01*
X182801478Y-92613915D01*
X182679880Y-92425806D01*
X182626138Y-92276331D01*
X182626000Y-92271400D01*
X182690369Y-92116667D01*
X182844155Y-91937726D01*
X183028372Y-91791925D01*
X183176333Y-91736334D01*
X183324647Y-91792670D01*
X183504114Y-91929741D01*
X183518848Y-91944152D01*
X183660756Y-92122574D01*
X183726168Y-92276828D01*
X183726666Y-92286667D01*
X184142736Y-92286667D01*
X184100322Y-92193515D01*
X183858724Y-91778312D01*
X183574926Y-91510657D01*
X183263880Y-91395531D01*
X182940538Y-91437913D01*
X182619852Y-91642783D01*
X182575200Y-91685533D01*
X182356016Y-91973246D01*
X182284779Y-92267041D01*
X182361622Y-92592250D01*
X182581832Y-92967413D01*
X182742573Y-93203605D01*
X182813285Y-93351846D01*
X182807176Y-93458408D01*
X182749212Y-93553816D01*
X182470534Y-93968939D01*
X182317949Y-94303602D01*
X182287467Y-94585749D01*
X182375096Y-94843327D01*
X182534388Y-95058164D01*
X182727312Y-95240253D01*
X182924140Y-95319388D01*
X183160499Y-95334667D01*
X183454418Y-95302962D01*
X183684247Y-95190397D01*
X183880570Y-94970795D01*
X184073970Y-94617979D01*
X184123374Y-94510518D01*
X184166052Y-94436324D01*
X183675970Y-94436324D01*
X183620510Y-94705799D01*
X183533823Y-94847834D01*
X183398573Y-94920807D01*
X183182196Y-94953536D01*
X183167918Y-94953667D01*
X182916429Y-94906432D01*
X182745618Y-94742617D01*
X182652691Y-94477005D01*
X182698491Y-94223226D01*
X182870630Y-94033892D01*
X182918425Y-94008709D01*
X183204460Y-93949539D01*
X183442816Y-94023928D01*
X183608362Y-94197612D01*
X183675970Y-94436324D01*
X184166052Y-94436324D01*
X184335267Y-94142153D01*
X184579656Y-93888285D01*
X184831895Y-93772806D01*
X184888955Y-93768334D01*
X184954021Y-93840307D01*
X185061112Y-94030279D01*
X185188614Y-94299330D01*
X185206319Y-94339834D01*
X185518550Y-94902748D01*
X185904157Y-95386400D01*
X186463519Y-95857855D01*
X187122517Y-96214826D01*
X187849754Y-96450087D01*
X188613835Y-96556413D01*
X189383364Y-96526579D01*
X190118411Y-96356276D01*
X190423244Y-96241251D01*
X190664689Y-96113678D01*
X190893599Y-95938587D01*
X191160823Y-95681007D01*
X191279755Y-95557620D01*
X191844346Y-94848872D01*
X192304893Y-94027453D01*
X192650652Y-93122003D01*
X192870878Y-92161162D01*
X192954826Y-91173572D01*
X192955333Y-91091380D01*
X192955333Y-90477526D01*
X193764692Y-89887227D01*
X194574052Y-89296928D01*
X194124526Y-89133304D01*
X193600071Y-88942355D01*
X193576099Y-88933470D01*
X191680953Y-88933470D01*
X191662553Y-89198631D01*
X191574546Y-89426869D01*
X191545211Y-89464833D01*
X191332343Y-89588436D01*
X191060136Y-89610117D01*
X190805522Y-89528470D01*
X190739500Y-89479545D01*
X190619326Y-89271206D01*
X190588725Y-88991535D01*
X190654736Y-88717056D01*
X190667100Y-88692506D01*
X190835930Y-88535756D01*
X191081355Y-88478479D01*
X191344290Y-88518837D01*
X191565647Y-88654990D01*
X191620537Y-88722175D01*
X191680953Y-88933470D01*
X193576099Y-88933470D01*
X193211306Y-88798263D01*
X192935162Y-88688987D01*
X192748569Y-88602486D01*
X192628457Y-88526721D01*
X192551756Y-88449651D01*
X192495396Y-88359235D01*
X192442432Y-88255393D01*
X192094204Y-87715252D01*
X191676233Y-87328145D01*
X191182926Y-87090393D01*
X190608690Y-86998318D01*
X190528710Y-86996860D01*
X189802469Y-87077507D01*
D11*
X190989562Y-84937600D02*
G75*
G03X190989562Y-84937600I-172436J0D01*
G01*
X188851515Y-85547200D02*
G75*
G03X188851515Y-85547200I-129515J0D01*
G01*
G04 #@! TD*
M02*
