G04 #@! TF.GenerationSoftware,KiCad,Pcbnew,(5.0.2-5)-5*
G04 #@! TF.CreationDate,2022-02-02T03:02:31+07:00*
G04 #@! TF.ProjectId,adjustable PSU,61646a75-7374-4616-926c-65205053552e,rev?*
G04 #@! TF.SameCoordinates,Original*
G04 #@! TF.FileFunction,Soldermask,Top*
G04 #@! TF.FilePolarity,Negative*
%FSLAX46Y46*%
G04 Gerber Fmt 4.6, Leading zero omitted, Abs format (unit mm)*
G04 Created by KiCad (PCBNEW (5.0.2-5)-5) date 2022 February 02, Wednesday 03:02:31*
%MOMM*%
%LPD*%
G01*
G04 APERTURE LIST*
%ADD10C,0.100000*%
G04 APERTURE END LIST*
D10*
G36*
X135199992Y-112209348D02*
X135403382Y-112293595D01*
X135586429Y-112415903D01*
X135742097Y-112571571D01*
X135864405Y-112754618D01*
X135948652Y-112958008D01*
X135991600Y-113173926D01*
X135991600Y-113394074D01*
X135948652Y-113609992D01*
X135864405Y-113813382D01*
X135742097Y-113996429D01*
X135586429Y-114152097D01*
X135403382Y-114274405D01*
X135199992Y-114358652D01*
X134984074Y-114401600D01*
X134763926Y-114401600D01*
X134548008Y-114358652D01*
X134344618Y-114274405D01*
X134161571Y-114152097D01*
X134005903Y-113996429D01*
X133883595Y-113813382D01*
X133799348Y-113609992D01*
X133756400Y-113394074D01*
X133756400Y-113173926D01*
X133799348Y-112958008D01*
X133883595Y-112754618D01*
X134005903Y-112571571D01*
X134161571Y-112415903D01*
X134344618Y-112293595D01*
X134548008Y-112209348D01*
X134763926Y-112166400D01*
X134984074Y-112166400D01*
X135199992Y-112209348D01*
X135199992Y-112209348D01*
G37*
G36*
X174701412Y-112471775D02*
X174856284Y-112535925D01*
X174995665Y-112629057D01*
X175114199Y-112747591D01*
X175207331Y-112886972D01*
X175271481Y-113041844D01*
X175304184Y-113206256D01*
X175304184Y-113373888D01*
X175271481Y-113538300D01*
X175207331Y-113693172D01*
X175114199Y-113832553D01*
X174995665Y-113951087D01*
X174856284Y-114044219D01*
X174701412Y-114108369D01*
X174537000Y-114141072D01*
X174369368Y-114141072D01*
X174204956Y-114108369D01*
X174050084Y-114044219D01*
X173910703Y-113951087D01*
X173792169Y-113832553D01*
X173699037Y-113693172D01*
X173634887Y-113538300D01*
X173602184Y-113373888D01*
X173602184Y-113206256D01*
X173634887Y-113041844D01*
X173699037Y-112886972D01*
X173792169Y-112747591D01*
X173910703Y-112629057D01*
X174050084Y-112535925D01*
X174204956Y-112471775D01*
X174369368Y-112439072D01*
X174537000Y-112439072D01*
X174701412Y-112471775D01*
X174701412Y-112471775D01*
G37*
G36*
X196672412Y-112420975D02*
X196827284Y-112485125D01*
X196966665Y-112578257D01*
X197085199Y-112696791D01*
X197178331Y-112836172D01*
X197242481Y-112991044D01*
X197275184Y-113155456D01*
X197275184Y-113323088D01*
X197242481Y-113487500D01*
X197178331Y-113642372D01*
X197085199Y-113781753D01*
X196966665Y-113900287D01*
X196827284Y-113993419D01*
X196672412Y-114057569D01*
X196508000Y-114090272D01*
X196340368Y-114090272D01*
X196175956Y-114057569D01*
X196021084Y-113993419D01*
X195881703Y-113900287D01*
X195763169Y-113781753D01*
X195670037Y-113642372D01*
X195605887Y-113487500D01*
X195573184Y-113323088D01*
X195573184Y-113155456D01*
X195605887Y-112991044D01*
X195670037Y-112836172D01*
X195763169Y-112696791D01*
X195881703Y-112578257D01*
X196021084Y-112485125D01*
X196175956Y-112420975D01*
X196340368Y-112388272D01*
X196508000Y-112388272D01*
X196672412Y-112420975D01*
X196672412Y-112420975D01*
G37*
G36*
X130771290Y-112429417D02*
X130889761Y-112478489D01*
X130996392Y-112549738D01*
X131087062Y-112640408D01*
X131158311Y-112747039D01*
X131207383Y-112865510D01*
X131232400Y-112991281D01*
X131232400Y-113119519D01*
X131207383Y-113245290D01*
X131158311Y-113363761D01*
X131087062Y-113470392D01*
X130996392Y-113561062D01*
X130889761Y-113632311D01*
X130771290Y-113681383D01*
X130645519Y-113706400D01*
X130517281Y-113706400D01*
X130391510Y-113681383D01*
X130273039Y-113632311D01*
X130166408Y-113561062D01*
X130075738Y-113470392D01*
X130004489Y-113363761D01*
X129955417Y-113245290D01*
X129930400Y-113119519D01*
X129930400Y-112991281D01*
X129955417Y-112865510D01*
X130004489Y-112747039D01*
X130075738Y-112640408D01*
X130166408Y-112549738D01*
X130273039Y-112478489D01*
X130391510Y-112429417D01*
X130517281Y-112404400D01*
X130645519Y-112404400D01*
X130771290Y-112429417D01*
X130771290Y-112429417D01*
G37*
G36*
X128771290Y-112429417D02*
X128889761Y-112478489D01*
X128996392Y-112549738D01*
X129087062Y-112640408D01*
X129158311Y-112747039D01*
X129207383Y-112865510D01*
X129232400Y-112991281D01*
X129232400Y-113119519D01*
X129207383Y-113245290D01*
X129158311Y-113363761D01*
X129087062Y-113470392D01*
X128996392Y-113561062D01*
X128889761Y-113632311D01*
X128771290Y-113681383D01*
X128645519Y-113706400D01*
X128517281Y-113706400D01*
X128391510Y-113681383D01*
X128273039Y-113632311D01*
X128166408Y-113561062D01*
X128075738Y-113470392D01*
X128004489Y-113363761D01*
X127955417Y-113245290D01*
X127930400Y-113119519D01*
X127930400Y-112991281D01*
X127955417Y-112865510D01*
X128004489Y-112747039D01*
X128075738Y-112640408D01*
X128166408Y-112549738D01*
X128273039Y-112478489D01*
X128391510Y-112429417D01*
X128517281Y-112404400D01*
X128645519Y-112404400D01*
X128771290Y-112429417D01*
X128771290Y-112429417D01*
G37*
G36*
X182684980Y-113068100D02*
X180068780Y-113068100D01*
X180068780Y-110451900D01*
X182684980Y-110451900D01*
X182684980Y-113068100D01*
X182684980Y-113068100D01*
G37*
G36*
X185256016Y-110502169D02*
X185256018Y-110502170D01*
X185256019Y-110502170D01*
X185389762Y-110557568D01*
X185494078Y-110600777D01*
X185708328Y-110743935D01*
X185890525Y-110926132D01*
X186033683Y-111140382D01*
X186132291Y-111378444D01*
X186172155Y-111578852D01*
X186182560Y-111631163D01*
X186182560Y-111888837D01*
X186132290Y-112141559D01*
X186069315Y-112293595D01*
X186033683Y-112379618D01*
X185890525Y-112593868D01*
X185708328Y-112776065D01*
X185708325Y-112776067D01*
X185494078Y-112919223D01*
X185256019Y-113017830D01*
X185256018Y-113017830D01*
X185256016Y-113017831D01*
X185003298Y-113068100D01*
X184745622Y-113068100D01*
X184492904Y-113017831D01*
X184492902Y-113017830D01*
X184492901Y-113017830D01*
X184254842Y-112919223D01*
X184040595Y-112776067D01*
X184040592Y-112776065D01*
X183858395Y-112593868D01*
X183715237Y-112379618D01*
X183679605Y-112293595D01*
X183616630Y-112141559D01*
X183566360Y-111888837D01*
X183566360Y-111631163D01*
X183576765Y-111578852D01*
X183616629Y-111378444D01*
X183715237Y-111140382D01*
X183858395Y-110926132D01*
X184040592Y-110743935D01*
X184254842Y-110600777D01*
X184359158Y-110557568D01*
X184492901Y-110502170D01*
X184492902Y-110502170D01*
X184492904Y-110502169D01*
X184745622Y-110451900D01*
X185003298Y-110451900D01*
X185256016Y-110502169D01*
X185256016Y-110502169D01*
G37*
G36*
X188756136Y-110502169D02*
X188756138Y-110502170D01*
X188756139Y-110502170D01*
X188889882Y-110557568D01*
X188994198Y-110600777D01*
X189208448Y-110743935D01*
X189390645Y-110926132D01*
X189533803Y-111140382D01*
X189632411Y-111378444D01*
X189672275Y-111578852D01*
X189682680Y-111631163D01*
X189682680Y-111888837D01*
X189632410Y-112141559D01*
X189569435Y-112293595D01*
X189533803Y-112379618D01*
X189390645Y-112593868D01*
X189208448Y-112776065D01*
X189208445Y-112776067D01*
X188994198Y-112919223D01*
X188756139Y-113017830D01*
X188756138Y-113017830D01*
X188756136Y-113017831D01*
X188503418Y-113068100D01*
X188245742Y-113068100D01*
X187993024Y-113017831D01*
X187993022Y-113017830D01*
X187993021Y-113017830D01*
X187754962Y-112919223D01*
X187540715Y-112776067D01*
X187540712Y-112776065D01*
X187358515Y-112593868D01*
X187215357Y-112379618D01*
X187179725Y-112293595D01*
X187116750Y-112141559D01*
X187066480Y-111888837D01*
X187066480Y-111631163D01*
X187076885Y-111578852D01*
X187116749Y-111378444D01*
X187215357Y-111140382D01*
X187358515Y-110926132D01*
X187540712Y-110743935D01*
X187754962Y-110600777D01*
X187859278Y-110557568D01*
X187993021Y-110502170D01*
X187993022Y-110502170D01*
X187993024Y-110502169D01*
X188245742Y-110451900D01*
X188503418Y-110451900D01*
X188756136Y-110502169D01*
X188756136Y-110502169D01*
G37*
G36*
X148107400Y-111618872D02*
X146024600Y-111618872D01*
X146024600Y-109536072D01*
X148107400Y-109536072D01*
X148107400Y-111618872D01*
X148107400Y-111618872D01*
G37*
G36*
X144829765Y-109576092D02*
X145019289Y-109654595D01*
X145189855Y-109768564D01*
X145334908Y-109913617D01*
X145448877Y-110084183D01*
X145527380Y-110273707D01*
X145567400Y-110474902D01*
X145567400Y-110680042D01*
X145527380Y-110881237D01*
X145448877Y-111070761D01*
X145334908Y-111241327D01*
X145189855Y-111386380D01*
X145019289Y-111500349D01*
X144829765Y-111578852D01*
X144628570Y-111618872D01*
X144423430Y-111618872D01*
X144222235Y-111578852D01*
X144032711Y-111500349D01*
X143862145Y-111386380D01*
X143717092Y-111241327D01*
X143603123Y-111070761D01*
X143524620Y-110881237D01*
X143484600Y-110680042D01*
X143484600Y-110474902D01*
X143524620Y-110273707D01*
X143603123Y-110084183D01*
X143717092Y-109913617D01*
X143862145Y-109768564D01*
X144032711Y-109654595D01*
X144222235Y-109576092D01*
X144423430Y-109536072D01*
X144628570Y-109536072D01*
X144829765Y-109576092D01*
X144829765Y-109576092D01*
G37*
G36*
X142289765Y-109576092D02*
X142479289Y-109654595D01*
X142649855Y-109768564D01*
X142794908Y-109913617D01*
X142908877Y-110084183D01*
X142987380Y-110273707D01*
X143027400Y-110474902D01*
X143027400Y-110680042D01*
X142987380Y-110881237D01*
X142908877Y-111070761D01*
X142794908Y-111241327D01*
X142649855Y-111386380D01*
X142479289Y-111500349D01*
X142289765Y-111578852D01*
X142088570Y-111618872D01*
X141883430Y-111618872D01*
X141682235Y-111578852D01*
X141492711Y-111500349D01*
X141322145Y-111386380D01*
X141177092Y-111241327D01*
X141063123Y-111070761D01*
X140984620Y-110881237D01*
X140944600Y-110680042D01*
X140944600Y-110474902D01*
X140984620Y-110273707D01*
X141063123Y-110084183D01*
X141177092Y-109913617D01*
X141322145Y-109768564D01*
X141492711Y-109654595D01*
X141682235Y-109576092D01*
X141883430Y-109536072D01*
X142088570Y-109536072D01*
X142289765Y-109576092D01*
X142289765Y-109576092D01*
G37*
G36*
X158037765Y-109576092D02*
X158227289Y-109654595D01*
X158397855Y-109768564D01*
X158542908Y-109913617D01*
X158656877Y-110084183D01*
X158735380Y-110273707D01*
X158775400Y-110474902D01*
X158775400Y-110680042D01*
X158735380Y-110881237D01*
X158656877Y-111070761D01*
X158542908Y-111241327D01*
X158397855Y-111386380D01*
X158227289Y-111500349D01*
X158037765Y-111578852D01*
X157836570Y-111618872D01*
X157631430Y-111618872D01*
X157430235Y-111578852D01*
X157240711Y-111500349D01*
X157070145Y-111386380D01*
X156925092Y-111241327D01*
X156811123Y-111070761D01*
X156732620Y-110881237D01*
X156692600Y-110680042D01*
X156692600Y-110474902D01*
X156732620Y-110273707D01*
X156811123Y-110084183D01*
X156925092Y-109913617D01*
X157070145Y-109768564D01*
X157240711Y-109654595D01*
X157430235Y-109576092D01*
X157631430Y-109536072D01*
X157836570Y-109536072D01*
X158037765Y-109576092D01*
X158037765Y-109576092D01*
G37*
G36*
X160577765Y-109576092D02*
X160767289Y-109654595D01*
X160937855Y-109768564D01*
X161082908Y-109913617D01*
X161196877Y-110084183D01*
X161275380Y-110273707D01*
X161315400Y-110474902D01*
X161315400Y-110680042D01*
X161275380Y-110881237D01*
X161196877Y-111070761D01*
X161082908Y-111241327D01*
X160937855Y-111386380D01*
X160767289Y-111500349D01*
X160577765Y-111578852D01*
X160376570Y-111618872D01*
X160171430Y-111618872D01*
X159970235Y-111578852D01*
X159780711Y-111500349D01*
X159610145Y-111386380D01*
X159465092Y-111241327D01*
X159351123Y-111070761D01*
X159272620Y-110881237D01*
X159232600Y-110680042D01*
X159232600Y-110474902D01*
X159272620Y-110273707D01*
X159351123Y-110084183D01*
X159465092Y-109913617D01*
X159610145Y-109768564D01*
X159780711Y-109654595D01*
X159970235Y-109576092D01*
X160171430Y-109536072D01*
X160376570Y-109536072D01*
X160577765Y-109576092D01*
X160577765Y-109576092D01*
G37*
G36*
X163855400Y-111618872D02*
X161772600Y-111618872D01*
X161772600Y-109536072D01*
X163855400Y-109536072D01*
X163855400Y-111618872D01*
X163855400Y-111618872D01*
G37*
G36*
X174701412Y-108971775D02*
X174856284Y-109035925D01*
X174995665Y-109129057D01*
X175114199Y-109247591D01*
X175207331Y-109386972D01*
X175271481Y-109541844D01*
X175304184Y-109706256D01*
X175304184Y-109873888D01*
X175271481Y-110038300D01*
X175207331Y-110193172D01*
X175114199Y-110332553D01*
X174995665Y-110451087D01*
X174856284Y-110544219D01*
X174701412Y-110608369D01*
X174537000Y-110641072D01*
X174369368Y-110641072D01*
X174204956Y-110608369D01*
X174050084Y-110544219D01*
X173910703Y-110451087D01*
X173792169Y-110332553D01*
X173699037Y-110193172D01*
X173634887Y-110038300D01*
X173602184Y-109873888D01*
X173602184Y-109706256D01*
X173634887Y-109541844D01*
X173699037Y-109386972D01*
X173792169Y-109247591D01*
X173910703Y-109129057D01*
X174050084Y-109035925D01*
X174204956Y-108971775D01*
X174369368Y-108939072D01*
X174537000Y-108939072D01*
X174701412Y-108971775D01*
X174701412Y-108971775D01*
G37*
G36*
X196672412Y-108920975D02*
X196827284Y-108985125D01*
X196966665Y-109078257D01*
X197085199Y-109196791D01*
X197178331Y-109336172D01*
X197242481Y-109491044D01*
X197275184Y-109655456D01*
X197275184Y-109823088D01*
X197242481Y-109987500D01*
X197178331Y-110142372D01*
X197085199Y-110281753D01*
X196966665Y-110400287D01*
X196827284Y-110493419D01*
X196672412Y-110557569D01*
X196508000Y-110590272D01*
X196340368Y-110590272D01*
X196175956Y-110557569D01*
X196021084Y-110493419D01*
X195881703Y-110400287D01*
X195763169Y-110281753D01*
X195670037Y-110142372D01*
X195605887Y-109987500D01*
X195573184Y-109823088D01*
X195573184Y-109655456D01*
X195605887Y-109491044D01*
X195670037Y-109336172D01*
X195763169Y-109196791D01*
X195881703Y-109078257D01*
X196021084Y-108985125D01*
X196175956Y-108920975D01*
X196340368Y-108888272D01*
X196508000Y-108888272D01*
X196672412Y-108920975D01*
X196672412Y-108920975D01*
G37*
G36*
X129945365Y-106186620D02*
X130134889Y-106265123D01*
X130305455Y-106379092D01*
X130450508Y-106524145D01*
X130564477Y-106694711D01*
X130642980Y-106884235D01*
X130683000Y-107085430D01*
X130683000Y-107290570D01*
X130642980Y-107491765D01*
X130564477Y-107681289D01*
X130450508Y-107851855D01*
X130305455Y-107996908D01*
X130134889Y-108110877D01*
X129945365Y-108189380D01*
X129744170Y-108229400D01*
X129539030Y-108229400D01*
X129337835Y-108189380D01*
X129148311Y-108110877D01*
X128977745Y-107996908D01*
X128832692Y-107851855D01*
X128718723Y-107681289D01*
X128640220Y-107491765D01*
X128600200Y-107290570D01*
X128600200Y-107085430D01*
X128640220Y-106884235D01*
X128718723Y-106694711D01*
X128832692Y-106524145D01*
X128977745Y-106379092D01*
X129148311Y-106265123D01*
X129337835Y-106186620D01*
X129539030Y-106146600D01*
X129744170Y-106146600D01*
X129945365Y-106186620D01*
X129945365Y-106186620D01*
G37*
G36*
X132485365Y-106186620D02*
X132674889Y-106265123D01*
X132845455Y-106379092D01*
X132990508Y-106524145D01*
X133104477Y-106694711D01*
X133182980Y-106884235D01*
X133223000Y-107085430D01*
X133223000Y-107290570D01*
X133182980Y-107491765D01*
X133104477Y-107681289D01*
X132990508Y-107851855D01*
X132845455Y-107996908D01*
X132674889Y-108110877D01*
X132485365Y-108189380D01*
X132284170Y-108229400D01*
X132079030Y-108229400D01*
X131877835Y-108189380D01*
X131688311Y-108110877D01*
X131517745Y-107996908D01*
X131372692Y-107851855D01*
X131258723Y-107681289D01*
X131180220Y-107491765D01*
X131140200Y-107290570D01*
X131140200Y-107085430D01*
X131180220Y-106884235D01*
X131258723Y-106694711D01*
X131372692Y-106524145D01*
X131517745Y-106379092D01*
X131688311Y-106265123D01*
X131877835Y-106186620D01*
X132079030Y-106146600D01*
X132284170Y-106146600D01*
X132485365Y-106186620D01*
X132485365Y-106186620D01*
G37*
G36*
X165250013Y-105939157D02*
X165340616Y-105966642D01*
X165424123Y-106011278D01*
X165497313Y-106071343D01*
X165557378Y-106144533D01*
X165602014Y-106228040D01*
X165629499Y-106318643D01*
X165639384Y-106419012D01*
X165639384Y-107623932D01*
X165629499Y-107724301D01*
X165602014Y-107814904D01*
X165557378Y-107898411D01*
X165497313Y-107971601D01*
X165424123Y-108031666D01*
X165340616Y-108076302D01*
X165250013Y-108103787D01*
X165149644Y-108113672D01*
X163944724Y-108113672D01*
X163844355Y-108103787D01*
X163753752Y-108076302D01*
X163670245Y-108031666D01*
X163597055Y-107971601D01*
X163536990Y-107898411D01*
X163492354Y-107814904D01*
X163464869Y-107724301D01*
X163454984Y-107623932D01*
X163454984Y-106419012D01*
X163464869Y-106318643D01*
X163492354Y-106228040D01*
X163536990Y-106144533D01*
X163597055Y-106071343D01*
X163670245Y-106011278D01*
X163753752Y-105966642D01*
X163844355Y-105939157D01*
X163944724Y-105929272D01*
X165149644Y-105929272D01*
X165250013Y-105939157D01*
X165250013Y-105939157D01*
G37*
G36*
X155975767Y-105971244D02*
X156174534Y-106053576D01*
X156353423Y-106173106D01*
X156505550Y-106325233D01*
X156625080Y-106504122D01*
X156707412Y-106702889D01*
X156749384Y-106913898D01*
X156749384Y-107129046D01*
X156707412Y-107340055D01*
X156625080Y-107538822D01*
X156505550Y-107717711D01*
X156353423Y-107869838D01*
X156174534Y-107989368D01*
X155975767Y-108071700D01*
X155764758Y-108113672D01*
X155549610Y-108113672D01*
X155338601Y-108071700D01*
X155139834Y-107989368D01*
X154960945Y-107869838D01*
X154808818Y-107717711D01*
X154689288Y-107538822D01*
X154606956Y-107340055D01*
X154564984Y-107129046D01*
X154564984Y-106913898D01*
X154606956Y-106702889D01*
X154689288Y-106504122D01*
X154808818Y-106325233D01*
X154960945Y-106173106D01*
X155139834Y-106053576D01*
X155338601Y-105971244D01*
X155549610Y-105929272D01*
X155764758Y-105929272D01*
X155975767Y-105971244D01*
X155975767Y-105971244D01*
G37*
G36*
X142048890Y-105927017D02*
X142167361Y-105976089D01*
X142273992Y-106047338D01*
X142364662Y-106138008D01*
X142435911Y-106244639D01*
X142484983Y-106363110D01*
X142510000Y-106488881D01*
X142510000Y-106617119D01*
X142484983Y-106742890D01*
X142435911Y-106861361D01*
X142435909Y-106861364D01*
X142400806Y-106913900D01*
X142364662Y-106967992D01*
X142273992Y-107058662D01*
X142167361Y-107129911D01*
X142048890Y-107178983D01*
X141923119Y-107204000D01*
X141794881Y-107204000D01*
X141669110Y-107178983D01*
X141550639Y-107129911D01*
X141444008Y-107058662D01*
X141353338Y-106967992D01*
X141317195Y-106913900D01*
X141282091Y-106861364D01*
X141282089Y-106861361D01*
X141233017Y-106742890D01*
X141208000Y-106617119D01*
X141208000Y-106488881D01*
X141233017Y-106363110D01*
X141282089Y-106244639D01*
X141353338Y-106138008D01*
X141444008Y-106047338D01*
X141550639Y-105976089D01*
X141669110Y-105927017D01*
X141794881Y-105902000D01*
X141923119Y-105902000D01*
X142048890Y-105927017D01*
X142048890Y-105927017D01*
G37*
G36*
X147509890Y-105927017D02*
X147628361Y-105976089D01*
X147734992Y-106047338D01*
X147825662Y-106138008D01*
X147896911Y-106244639D01*
X147945983Y-106363110D01*
X147971000Y-106488881D01*
X147971000Y-106617119D01*
X147945983Y-106742890D01*
X147896911Y-106861361D01*
X147896909Y-106861364D01*
X147861806Y-106913900D01*
X147825662Y-106967992D01*
X147734992Y-107058662D01*
X147628361Y-107129911D01*
X147509890Y-107178983D01*
X147384119Y-107204000D01*
X147255881Y-107204000D01*
X147130110Y-107178983D01*
X147011639Y-107129911D01*
X146905008Y-107058662D01*
X146814338Y-106967992D01*
X146778195Y-106913900D01*
X146743091Y-106861364D01*
X146743089Y-106861361D01*
X146694017Y-106742890D01*
X146669000Y-106617119D01*
X146669000Y-106488881D01*
X146694017Y-106363110D01*
X146743089Y-106244639D01*
X146814338Y-106138008D01*
X146905008Y-106047338D01*
X147011639Y-105976089D01*
X147130110Y-105927017D01*
X147255881Y-105902000D01*
X147384119Y-105902000D01*
X147509890Y-105927017D01*
X147509890Y-105927017D01*
G37*
G36*
X190942024Y-104440509D02*
X191031281Y-104458263D01*
X191120459Y-104495202D01*
X191283514Y-104562741D01*
X191283517Y-104562743D01*
X191449420Y-104673596D01*
X191510527Y-104714427D01*
X191703573Y-104907473D01*
X191703575Y-104907476D01*
X191703576Y-104907477D01*
X191811080Y-105068368D01*
X191855259Y-105134486D01*
X191884052Y-105204000D01*
X191952039Y-105368134D01*
X191959737Y-105386720D01*
X192013000Y-105654489D01*
X192013000Y-105927511D01*
X191994343Y-106021306D01*
X191959737Y-106195281D01*
X191945295Y-106230147D01*
X191855259Y-106447514D01*
X191703573Y-106674527D01*
X191510527Y-106867573D01*
X191283514Y-107019259D01*
X191120459Y-107086798D01*
X191031281Y-107123737D01*
X190942024Y-107141491D01*
X190763511Y-107177000D01*
X190490489Y-107177000D01*
X190311976Y-107141491D01*
X190222719Y-107123737D01*
X190133541Y-107086798D01*
X189970486Y-107019259D01*
X189743473Y-106867573D01*
X189550427Y-106674527D01*
X189398741Y-106447514D01*
X189308705Y-106230147D01*
X189294263Y-106195281D01*
X189259657Y-106021306D01*
X189241000Y-105927511D01*
X189241000Y-105654489D01*
X189294263Y-105386720D01*
X189301962Y-105368134D01*
X189369948Y-105204000D01*
X189398741Y-105134486D01*
X189442920Y-105068368D01*
X189550424Y-104907477D01*
X189550425Y-104907476D01*
X189550427Y-104907473D01*
X189743473Y-104714427D01*
X189804581Y-104673596D01*
X189970483Y-104562743D01*
X189970486Y-104562741D01*
X190133541Y-104495202D01*
X190222719Y-104458263D01*
X190311976Y-104440509D01*
X190490489Y-104405000D01*
X190763511Y-104405000D01*
X190942024Y-104440509D01*
X190942024Y-104440509D01*
G37*
G36*
X187132024Y-104440509D02*
X187221281Y-104458263D01*
X187310459Y-104495202D01*
X187473514Y-104562741D01*
X187473517Y-104562743D01*
X187639420Y-104673596D01*
X187700527Y-104714427D01*
X187893573Y-104907473D01*
X187893575Y-104907476D01*
X187893576Y-104907477D01*
X188001080Y-105068368D01*
X188045259Y-105134486D01*
X188074052Y-105204000D01*
X188142039Y-105368134D01*
X188149737Y-105386720D01*
X188203000Y-105654489D01*
X188203000Y-105927511D01*
X188184343Y-106021306D01*
X188149737Y-106195281D01*
X188135295Y-106230147D01*
X188045259Y-106447514D01*
X187893573Y-106674527D01*
X187700527Y-106867573D01*
X187473514Y-107019259D01*
X187310459Y-107086798D01*
X187221281Y-107123737D01*
X187132024Y-107141491D01*
X186953511Y-107177000D01*
X186680489Y-107177000D01*
X186501976Y-107141491D01*
X186412719Y-107123737D01*
X186323541Y-107086798D01*
X186160486Y-107019259D01*
X185933473Y-106867573D01*
X185740427Y-106674527D01*
X185588741Y-106447514D01*
X185498705Y-106230147D01*
X185484263Y-106195281D01*
X185449657Y-106021306D01*
X185431000Y-105927511D01*
X185431000Y-105654489D01*
X185484263Y-105386720D01*
X185491962Y-105368134D01*
X185559948Y-105204000D01*
X185588741Y-105134486D01*
X185632920Y-105068368D01*
X185740424Y-104907477D01*
X185740425Y-104907476D01*
X185740427Y-104907473D01*
X185933473Y-104714427D01*
X185994581Y-104673596D01*
X186160483Y-104562743D01*
X186160486Y-104562741D01*
X186323541Y-104495202D01*
X186412719Y-104458263D01*
X186501976Y-104440509D01*
X186680489Y-104405000D01*
X186953511Y-104405000D01*
X187132024Y-104440509D01*
X187132024Y-104440509D01*
G37*
G36*
X183322024Y-104440509D02*
X183411281Y-104458263D01*
X183500459Y-104495202D01*
X183663514Y-104562741D01*
X183663517Y-104562743D01*
X183829420Y-104673596D01*
X183890527Y-104714427D01*
X184083573Y-104907473D01*
X184083575Y-104907476D01*
X184083576Y-104907477D01*
X184191080Y-105068368D01*
X184235259Y-105134486D01*
X184264052Y-105204000D01*
X184332039Y-105368134D01*
X184339737Y-105386720D01*
X184393000Y-105654489D01*
X184393000Y-105927511D01*
X184374343Y-106021306D01*
X184339737Y-106195281D01*
X184325295Y-106230147D01*
X184235259Y-106447514D01*
X184083573Y-106674527D01*
X183890527Y-106867573D01*
X183663514Y-107019259D01*
X183500459Y-107086798D01*
X183411281Y-107123737D01*
X183322024Y-107141491D01*
X183143511Y-107177000D01*
X182870489Y-107177000D01*
X182691976Y-107141491D01*
X182602719Y-107123737D01*
X182513541Y-107086798D01*
X182350486Y-107019259D01*
X182123473Y-106867573D01*
X181930427Y-106674527D01*
X181778741Y-106447514D01*
X181688705Y-106230147D01*
X181674263Y-106195281D01*
X181639657Y-106021306D01*
X181621000Y-105927511D01*
X181621000Y-105654489D01*
X181674263Y-105386720D01*
X181681962Y-105368134D01*
X181749948Y-105204000D01*
X181778741Y-105134486D01*
X181822920Y-105068368D01*
X181930424Y-104907477D01*
X181930425Y-104907476D01*
X181930427Y-104907473D01*
X182123473Y-104714427D01*
X182184581Y-104673596D01*
X182350483Y-104562743D01*
X182350486Y-104562741D01*
X182513541Y-104495202D01*
X182602719Y-104458263D01*
X182691976Y-104440509D01*
X182870489Y-104405000D01*
X183143511Y-104405000D01*
X183322024Y-104440509D01*
X183322024Y-104440509D01*
G37*
G36*
X180583000Y-107177000D02*
X177811000Y-107177000D01*
X177811000Y-104405000D01*
X180583000Y-104405000D01*
X180583000Y-107177000D01*
X180583000Y-107177000D01*
G37*
G36*
X135199992Y-104589348D02*
X135403382Y-104673595D01*
X135586429Y-104795903D01*
X135742097Y-104951571D01*
X135864405Y-105134618D01*
X135948652Y-105338008D01*
X135991600Y-105553926D01*
X135991600Y-105774074D01*
X135948652Y-105989992D01*
X135864405Y-106193382D01*
X135742097Y-106376429D01*
X135586429Y-106532097D01*
X135403382Y-106654405D01*
X135199992Y-106738652D01*
X134984074Y-106781600D01*
X134763926Y-106781600D01*
X134548008Y-106738652D01*
X134344618Y-106654405D01*
X134161571Y-106532097D01*
X134005903Y-106376429D01*
X133883595Y-106193382D01*
X133799348Y-105989992D01*
X133756400Y-105774074D01*
X133756400Y-105553926D01*
X133799348Y-105338008D01*
X133883595Y-105134618D01*
X134005903Y-104951571D01*
X134161571Y-104795903D01*
X134344618Y-104673595D01*
X134548008Y-104589348D01*
X134763926Y-104546400D01*
X134984074Y-104546400D01*
X135199992Y-104589348D01*
X135199992Y-104589348D01*
G37*
G36*
X199365782Y-104899527D02*
X199365784Y-104899528D01*
X199365785Y-104899528D01*
X199534507Y-104969414D01*
X199685668Y-105070417D01*
X199686355Y-105070876D01*
X199815484Y-105200005D01*
X199815486Y-105200008D01*
X199916946Y-105351853D01*
X199983890Y-105513472D01*
X199986833Y-105520578D01*
X200022460Y-105699687D01*
X200022460Y-105882313D01*
X199988394Y-106053576D01*
X199986832Y-106061425D01*
X199916946Y-106230147D01*
X199824279Y-106368833D01*
X199815484Y-106381995D01*
X199686355Y-106511124D01*
X199686352Y-106511126D01*
X199534507Y-106612586D01*
X199365785Y-106682472D01*
X199365784Y-106682472D01*
X199365782Y-106682473D01*
X199186673Y-106718100D01*
X199004047Y-106718100D01*
X198824938Y-106682473D01*
X198824936Y-106682472D01*
X198824935Y-106682472D01*
X198656213Y-106612586D01*
X198504368Y-106511126D01*
X198504365Y-106511124D01*
X198375236Y-106381995D01*
X198366441Y-106368833D01*
X198273774Y-106230147D01*
X198203888Y-106061425D01*
X198202327Y-106053576D01*
X198168260Y-105882313D01*
X198168260Y-105699687D01*
X198203887Y-105520578D01*
X198206830Y-105513472D01*
X198273774Y-105351853D01*
X198375234Y-105200008D01*
X198375236Y-105200005D01*
X198504365Y-105070876D01*
X198505052Y-105070417D01*
X198656213Y-104969414D01*
X198824935Y-104899528D01*
X198824936Y-104899528D01*
X198824938Y-104899527D01*
X199004047Y-104863900D01*
X199186673Y-104863900D01*
X199365782Y-104899527D01*
X199365782Y-104899527D01*
G37*
G36*
X194367062Y-104899527D02*
X194367064Y-104899528D01*
X194367065Y-104899528D01*
X194535787Y-104969414D01*
X194686948Y-105070417D01*
X194687635Y-105070876D01*
X194816764Y-105200005D01*
X194816766Y-105200008D01*
X194918226Y-105351853D01*
X194985170Y-105513472D01*
X194988113Y-105520578D01*
X195023740Y-105699687D01*
X195023740Y-105882313D01*
X194989674Y-106053576D01*
X194988112Y-106061425D01*
X194918226Y-106230147D01*
X194825559Y-106368833D01*
X194816764Y-106381995D01*
X194687635Y-106511124D01*
X194687632Y-106511126D01*
X194535787Y-106612586D01*
X194367065Y-106682472D01*
X194367064Y-106682472D01*
X194367062Y-106682473D01*
X194187953Y-106718100D01*
X194005327Y-106718100D01*
X193826218Y-106682473D01*
X193826216Y-106682472D01*
X193826215Y-106682472D01*
X193657493Y-106612586D01*
X193505648Y-106511126D01*
X193505645Y-106511124D01*
X193376516Y-106381995D01*
X193367721Y-106368833D01*
X193275054Y-106230147D01*
X193205168Y-106061425D01*
X193203607Y-106053576D01*
X193169540Y-105882313D01*
X193169540Y-105699687D01*
X193205167Y-105520578D01*
X193208110Y-105513472D01*
X193275054Y-105351853D01*
X193376514Y-105200008D01*
X193376516Y-105200005D01*
X193505645Y-105070876D01*
X193506332Y-105070417D01*
X193657493Y-104969414D01*
X193826215Y-104899528D01*
X193826216Y-104899528D01*
X193826218Y-104899527D01*
X194005327Y-104863900D01*
X194187953Y-104863900D01*
X194367062Y-104899527D01*
X194367062Y-104899527D01*
G37*
G36*
X171010874Y-104236489D02*
X171129345Y-104285561D01*
X171235976Y-104356810D01*
X171326646Y-104447480D01*
X171326648Y-104447483D01*
X171326649Y-104447484D01*
X171354310Y-104488882D01*
X171397895Y-104554111D01*
X171446967Y-104672582D01*
X171471984Y-104798353D01*
X171471984Y-104926591D01*
X171446967Y-105052362D01*
X171397895Y-105170833D01*
X171326646Y-105277464D01*
X171235976Y-105368134D01*
X171235973Y-105368136D01*
X171235972Y-105368137D01*
X171129348Y-105439381D01*
X171129345Y-105439383D01*
X171010874Y-105488455D01*
X170885103Y-105513472D01*
X170756865Y-105513472D01*
X170631094Y-105488455D01*
X170512623Y-105439383D01*
X170512620Y-105439381D01*
X170405996Y-105368137D01*
X170405995Y-105368136D01*
X170405992Y-105368134D01*
X170315322Y-105277464D01*
X170244073Y-105170833D01*
X170195001Y-105052362D01*
X170169984Y-104926591D01*
X170169984Y-104798353D01*
X170195001Y-104672582D01*
X170244073Y-104554111D01*
X170287658Y-104488882D01*
X170315319Y-104447484D01*
X170315320Y-104447483D01*
X170315322Y-104447480D01*
X170405992Y-104356810D01*
X170512623Y-104285561D01*
X170631094Y-104236489D01*
X170756865Y-104211472D01*
X170885103Y-104211472D01*
X171010874Y-104236489D01*
X171010874Y-104236489D01*
G37*
G36*
X173010874Y-104236489D02*
X173129345Y-104285561D01*
X173235976Y-104356810D01*
X173326646Y-104447480D01*
X173326648Y-104447483D01*
X173326649Y-104447484D01*
X173354310Y-104488882D01*
X173397895Y-104554111D01*
X173446967Y-104672582D01*
X173471984Y-104798353D01*
X173471984Y-104926591D01*
X173446967Y-105052362D01*
X173397895Y-105170833D01*
X173326646Y-105277464D01*
X173235976Y-105368134D01*
X173235973Y-105368136D01*
X173235972Y-105368137D01*
X173129348Y-105439381D01*
X173129345Y-105439383D01*
X173010874Y-105488455D01*
X172885103Y-105513472D01*
X172756865Y-105513472D01*
X172631094Y-105488455D01*
X172512623Y-105439383D01*
X172512620Y-105439381D01*
X172405996Y-105368137D01*
X172405995Y-105368136D01*
X172405992Y-105368134D01*
X172315322Y-105277464D01*
X172244073Y-105170833D01*
X172195001Y-105052362D01*
X172169984Y-104926591D01*
X172169984Y-104798353D01*
X172195001Y-104672582D01*
X172244073Y-104554111D01*
X172287658Y-104488882D01*
X172315319Y-104447484D01*
X172315320Y-104447483D01*
X172315322Y-104447480D01*
X172405992Y-104356810D01*
X172512623Y-104285561D01*
X172631094Y-104236489D01*
X172756865Y-104211472D01*
X172885103Y-104211472D01*
X173010874Y-104236489D01*
X173010874Y-104236489D01*
G37*
G36*
X142048890Y-103927017D02*
X142167361Y-103976089D01*
X142273992Y-104047338D01*
X142364662Y-104138008D01*
X142435911Y-104244639D01*
X142484983Y-104363110D01*
X142510000Y-104488881D01*
X142510000Y-104617119D01*
X142484983Y-104742890D01*
X142435911Y-104861361D01*
X142435909Y-104861364D01*
X142375635Y-104951571D01*
X142364662Y-104967992D01*
X142273992Y-105058662D01*
X142167361Y-105129911D01*
X142048890Y-105178983D01*
X141923119Y-105204000D01*
X141794881Y-105204000D01*
X141669110Y-105178983D01*
X141550639Y-105129911D01*
X141444008Y-105058662D01*
X141353338Y-104967992D01*
X141342366Y-104951571D01*
X141282091Y-104861364D01*
X141282089Y-104861361D01*
X141233017Y-104742890D01*
X141208000Y-104617119D01*
X141208000Y-104488881D01*
X141233017Y-104363110D01*
X141282089Y-104244639D01*
X141353338Y-104138008D01*
X141444008Y-104047338D01*
X141550639Y-103976089D01*
X141669110Y-103927017D01*
X141794881Y-103902000D01*
X141923119Y-103902000D01*
X142048890Y-103927017D01*
X142048890Y-103927017D01*
G37*
G36*
X147509890Y-103927017D02*
X147628361Y-103976089D01*
X147734992Y-104047338D01*
X147825662Y-104138008D01*
X147896911Y-104244639D01*
X147945983Y-104363110D01*
X147971000Y-104488881D01*
X147971000Y-104617119D01*
X147945983Y-104742890D01*
X147896911Y-104861361D01*
X147896909Y-104861364D01*
X147836635Y-104951571D01*
X147825662Y-104967992D01*
X147734992Y-105058662D01*
X147628361Y-105129911D01*
X147509890Y-105178983D01*
X147384119Y-105204000D01*
X147255881Y-105204000D01*
X147130110Y-105178983D01*
X147011639Y-105129911D01*
X146905008Y-105058662D01*
X146814338Y-104967992D01*
X146803366Y-104951571D01*
X146743091Y-104861364D01*
X146743089Y-104861361D01*
X146694017Y-104742890D01*
X146669000Y-104617119D01*
X146669000Y-104488881D01*
X146694017Y-104363110D01*
X146743089Y-104244639D01*
X146814338Y-104138008D01*
X146905008Y-104047338D01*
X147011639Y-103976089D01*
X147130110Y-103927017D01*
X147255881Y-103902000D01*
X147384119Y-103902000D01*
X147509890Y-103927017D01*
X147509890Y-103927017D01*
G37*
G36*
X164865767Y-103050244D02*
X165064534Y-103132576D01*
X165243423Y-103252106D01*
X165395550Y-103404233D01*
X165515080Y-103583122D01*
X165597412Y-103781889D01*
X165639384Y-103992898D01*
X165639384Y-104208046D01*
X165597412Y-104419055D01*
X165515080Y-104617822D01*
X165395550Y-104796711D01*
X165243423Y-104948838D01*
X165064534Y-105068368D01*
X164865767Y-105150700D01*
X164654758Y-105192672D01*
X164439610Y-105192672D01*
X164228601Y-105150700D01*
X164029834Y-105068368D01*
X163850945Y-104948838D01*
X163698818Y-104796711D01*
X163579288Y-104617822D01*
X163496956Y-104419055D01*
X163454984Y-104208046D01*
X163454984Y-103992898D01*
X163496956Y-103781889D01*
X163579288Y-103583122D01*
X163698818Y-103404233D01*
X163850945Y-103252106D01*
X164029834Y-103132576D01*
X164228601Y-103050244D01*
X164439610Y-103008272D01*
X164654758Y-103008272D01*
X164865767Y-103050244D01*
X164865767Y-103050244D01*
G37*
G36*
X156360013Y-103018157D02*
X156450616Y-103045642D01*
X156534123Y-103090278D01*
X156607313Y-103150343D01*
X156667378Y-103223533D01*
X156712014Y-103307040D01*
X156739499Y-103397643D01*
X156749384Y-103498012D01*
X156749384Y-104702932D01*
X156739499Y-104803301D01*
X156712014Y-104893904D01*
X156667378Y-104977411D01*
X156607313Y-105050601D01*
X156534123Y-105110666D01*
X156450616Y-105155302D01*
X156360013Y-105182787D01*
X156259644Y-105192672D01*
X155054724Y-105192672D01*
X154954355Y-105182787D01*
X154863752Y-105155302D01*
X154780245Y-105110666D01*
X154707055Y-105050601D01*
X154646990Y-104977411D01*
X154602354Y-104893904D01*
X154574869Y-104803301D01*
X154564984Y-104702932D01*
X154564984Y-103498012D01*
X154574869Y-103397643D01*
X154602354Y-103307040D01*
X154646990Y-103223533D01*
X154707055Y-103150343D01*
X154780245Y-103090278D01*
X154863752Y-103045642D01*
X154954355Y-103018157D01*
X155054724Y-103008272D01*
X156259644Y-103008272D01*
X156360013Y-103018157D01*
X156360013Y-103018157D01*
G37*
G36*
X185400112Y-99530566D02*
X185578917Y-99566133D01*
X185915777Y-99705665D01*
X186162110Y-99870260D01*
X186218947Y-99908237D01*
X186476763Y-100166053D01*
X186476765Y-100166056D01*
X186679335Y-100469223D01*
X186818867Y-100806083D01*
X186890000Y-101163692D01*
X186890000Y-101528308D01*
X186818867Y-101885917D01*
X186679335Y-102222777D01*
X186589549Y-102357151D01*
X186476763Y-102525947D01*
X186218947Y-102783763D01*
X186218944Y-102783765D01*
X185915777Y-102986335D01*
X185578917Y-103125867D01*
X185455868Y-103150343D01*
X185221309Y-103197000D01*
X184856691Y-103197000D01*
X184622132Y-103150343D01*
X184499083Y-103125867D01*
X184162223Y-102986335D01*
X183859056Y-102783765D01*
X183859053Y-102783763D01*
X183601237Y-102525947D01*
X183488451Y-102357151D01*
X183398665Y-102222777D01*
X183259133Y-101885917D01*
X183188000Y-101528308D01*
X183188000Y-101163692D01*
X183259133Y-100806083D01*
X183398665Y-100469223D01*
X183601235Y-100166056D01*
X183601237Y-100166053D01*
X183859053Y-99908237D01*
X183915890Y-99870260D01*
X184162223Y-99705665D01*
X184499083Y-99566133D01*
X184677888Y-99530566D01*
X184856691Y-99495000D01*
X185221309Y-99495000D01*
X185400112Y-99530566D01*
X185400112Y-99530566D01*
G37*
G36*
X152789492Y-100207848D02*
X152992882Y-100292095D01*
X153175929Y-100414403D01*
X153331597Y-100570071D01*
X153453905Y-100753118D01*
X153538152Y-100956508D01*
X153581100Y-101172426D01*
X153581100Y-101392574D01*
X153538152Y-101608492D01*
X153453905Y-101811882D01*
X153331597Y-101994929D01*
X153175929Y-102150597D01*
X152992882Y-102272905D01*
X152789492Y-102357152D01*
X152573574Y-102400100D01*
X152353426Y-102400100D01*
X152137508Y-102357152D01*
X151934118Y-102272905D01*
X151751071Y-102150597D01*
X151595403Y-101994929D01*
X151473095Y-101811882D01*
X151388848Y-101608492D01*
X151345900Y-101392574D01*
X151345900Y-101172426D01*
X151388848Y-100956508D01*
X151473095Y-100753118D01*
X151595403Y-100570071D01*
X151751071Y-100414403D01*
X151934118Y-100292095D01*
X152137508Y-100207848D01*
X152353426Y-100164900D01*
X152573574Y-100164900D01*
X152789492Y-100207848D01*
X152789492Y-100207848D01*
G37*
G36*
X143137492Y-100207848D02*
X143340882Y-100292095D01*
X143523929Y-100414403D01*
X143679597Y-100570071D01*
X143801905Y-100753118D01*
X143886152Y-100956508D01*
X143929100Y-101172426D01*
X143929100Y-101392574D01*
X143886152Y-101608492D01*
X143801905Y-101811882D01*
X143679597Y-101994929D01*
X143523929Y-102150597D01*
X143340882Y-102272905D01*
X143137492Y-102357152D01*
X142921574Y-102400100D01*
X142701426Y-102400100D01*
X142485508Y-102357152D01*
X142282118Y-102272905D01*
X142099071Y-102150597D01*
X141943403Y-101994929D01*
X141821095Y-101811882D01*
X141736848Y-101608492D01*
X141693900Y-101392574D01*
X141693900Y-101172426D01*
X141736848Y-100956508D01*
X141821095Y-100753118D01*
X141943403Y-100570071D01*
X142099071Y-100414403D01*
X142282118Y-100292095D01*
X142485508Y-100207848D01*
X142701426Y-100164900D01*
X142921574Y-100164900D01*
X143137492Y-100207848D01*
X143137492Y-100207848D01*
G37*
G36*
X165254176Y-100104820D02*
X165457566Y-100189067D01*
X165640613Y-100311375D01*
X165796281Y-100467043D01*
X165918589Y-100650090D01*
X166002836Y-100853480D01*
X166045784Y-101069398D01*
X166045784Y-101289546D01*
X166002836Y-101505464D01*
X165918589Y-101708854D01*
X165796281Y-101891901D01*
X165640613Y-102047569D01*
X165457566Y-102169877D01*
X165254176Y-102254124D01*
X165038258Y-102297072D01*
X164818110Y-102297072D01*
X164602192Y-102254124D01*
X164398802Y-102169877D01*
X164215755Y-102047569D01*
X164060087Y-101891901D01*
X163937779Y-101708854D01*
X163853532Y-101505464D01*
X163810584Y-101289546D01*
X163810584Y-101069398D01*
X163853532Y-100853480D01*
X163937779Y-100650090D01*
X164060087Y-100467043D01*
X164215755Y-100311375D01*
X164398802Y-100189067D01*
X164602192Y-100104820D01*
X164818110Y-100061872D01*
X165038258Y-100061872D01*
X165254176Y-100104820D01*
X165254176Y-100104820D01*
G37*
G36*
X155602176Y-100104820D02*
X155805566Y-100189067D01*
X155988613Y-100311375D01*
X156144281Y-100467043D01*
X156266589Y-100650090D01*
X156350836Y-100853480D01*
X156393784Y-101069398D01*
X156393784Y-101289546D01*
X156350836Y-101505464D01*
X156266589Y-101708854D01*
X156144281Y-101891901D01*
X155988613Y-102047569D01*
X155805566Y-102169877D01*
X155602176Y-102254124D01*
X155386258Y-102297072D01*
X155166110Y-102297072D01*
X154950192Y-102254124D01*
X154746802Y-102169877D01*
X154563755Y-102047569D01*
X154408087Y-101891901D01*
X154285779Y-101708854D01*
X154201532Y-101505464D01*
X154158584Y-101289546D01*
X154158584Y-101069398D01*
X154201532Y-100853480D01*
X154285779Y-100650090D01*
X154408087Y-100467043D01*
X154563755Y-100311375D01*
X154746802Y-100189067D01*
X154950192Y-100104820D01*
X155166110Y-100061872D01*
X155386258Y-100061872D01*
X155602176Y-100104820D01*
X155602176Y-100104820D01*
G37*
G36*
X130793142Y-100183242D02*
X130941102Y-100244530D01*
X131008130Y-100289317D01*
X131074257Y-100333501D01*
X131187499Y-100446743D01*
X131202520Y-100469224D01*
X131276470Y-100579898D01*
X131337758Y-100727858D01*
X131369000Y-100884925D01*
X131369000Y-101045075D01*
X131337758Y-101202142D01*
X131276470Y-101350102D01*
X131187498Y-101483258D01*
X131074258Y-101596498D01*
X130941102Y-101685470D01*
X130793142Y-101746758D01*
X130636075Y-101778000D01*
X130475925Y-101778000D01*
X130318858Y-101746758D01*
X130170898Y-101685470D01*
X130037742Y-101596498D01*
X129924502Y-101483258D01*
X129835530Y-101350102D01*
X129774242Y-101202142D01*
X129743000Y-101045075D01*
X129743000Y-100884925D01*
X129774242Y-100727858D01*
X129835530Y-100579898D01*
X129909480Y-100469224D01*
X129924501Y-100446743D01*
X130037743Y-100333501D01*
X130103870Y-100289317D01*
X130170898Y-100244530D01*
X130318858Y-100183242D01*
X130475925Y-100152000D01*
X130636075Y-100152000D01*
X130793142Y-100183242D01*
X130793142Y-100183242D01*
G37*
G36*
X133333142Y-100183242D02*
X133481102Y-100244530D01*
X133548130Y-100289317D01*
X133614257Y-100333501D01*
X133727499Y-100446743D01*
X133742520Y-100469224D01*
X133816470Y-100579898D01*
X133877758Y-100727858D01*
X133909000Y-100884925D01*
X133909000Y-101045075D01*
X133877758Y-101202142D01*
X133816470Y-101350102D01*
X133727498Y-101483258D01*
X133614258Y-101596498D01*
X133481102Y-101685470D01*
X133333142Y-101746758D01*
X133176075Y-101778000D01*
X133015925Y-101778000D01*
X132858858Y-101746758D01*
X132710898Y-101685470D01*
X132577742Y-101596498D01*
X132464502Y-101483258D01*
X132375530Y-101350102D01*
X132314242Y-101202142D01*
X132283000Y-101045075D01*
X132283000Y-100884925D01*
X132314242Y-100727858D01*
X132375530Y-100579898D01*
X132449480Y-100469224D01*
X132464501Y-100446743D01*
X132577743Y-100333501D01*
X132643870Y-100289317D01*
X132710898Y-100244530D01*
X132858858Y-100183242D01*
X133015925Y-100152000D01*
X133176075Y-100152000D01*
X133333142Y-100183242D01*
X133333142Y-100183242D01*
G37*
G36*
X167935822Y-99905887D02*
X167935824Y-99905888D01*
X167935825Y-99905888D01*
X168104547Y-99975774D01*
X168233401Y-100061872D01*
X168256395Y-100077236D01*
X168385524Y-100206365D01*
X168385526Y-100206368D01*
X168486986Y-100358213D01*
X168556872Y-100526935D01*
X168556873Y-100526938D01*
X168592500Y-100706047D01*
X168592500Y-100888673D01*
X168561390Y-101045075D01*
X168556872Y-101067785D01*
X168486986Y-101236507D01*
X168451546Y-101289546D01*
X168385524Y-101388355D01*
X168256395Y-101517484D01*
X168256392Y-101517486D01*
X168104547Y-101618946D01*
X167935825Y-101688832D01*
X167935824Y-101688832D01*
X167935822Y-101688833D01*
X167756713Y-101724460D01*
X167574087Y-101724460D01*
X167394978Y-101688833D01*
X167394976Y-101688832D01*
X167394975Y-101688832D01*
X167226253Y-101618946D01*
X167074408Y-101517486D01*
X167074405Y-101517484D01*
X166945276Y-101388355D01*
X166879254Y-101289546D01*
X166843814Y-101236507D01*
X166773928Y-101067785D01*
X166769411Y-101045075D01*
X166738300Y-100888673D01*
X166738300Y-100706047D01*
X166773927Y-100526938D01*
X166773928Y-100526935D01*
X166843814Y-100358213D01*
X166945274Y-100206368D01*
X166945276Y-100206365D01*
X167074405Y-100077236D01*
X167097399Y-100061872D01*
X167226253Y-99975774D01*
X167394975Y-99905888D01*
X167394976Y-99905888D01*
X167394978Y-99905887D01*
X167574087Y-99870260D01*
X167756713Y-99870260D01*
X167935822Y-99905887D01*
X167935822Y-99905887D01*
G37*
G36*
X174517350Y-97620676D02*
X174711494Y-97701093D01*
X174886224Y-97817844D01*
X175034812Y-97966432D01*
X175151563Y-98141162D01*
X175231980Y-98335306D01*
X175272976Y-98541408D01*
X175272976Y-98751552D01*
X175231980Y-98957654D01*
X175151563Y-99151798D01*
X175034812Y-99326528D01*
X174886224Y-99475116D01*
X174711494Y-99591867D01*
X174517350Y-99672284D01*
X174311248Y-99713280D01*
X174101104Y-99713280D01*
X173895002Y-99672284D01*
X173700858Y-99591867D01*
X173526128Y-99475116D01*
X173377540Y-99326528D01*
X173260789Y-99151798D01*
X173180372Y-98957654D01*
X173139376Y-98751552D01*
X173139376Y-98541408D01*
X173180372Y-98335306D01*
X173260789Y-98141162D01*
X173377540Y-97966432D01*
X173526128Y-97817844D01*
X173700858Y-97701093D01*
X173895002Y-97620676D01*
X174101104Y-97579680D01*
X174311248Y-97579680D01*
X174517350Y-97620676D01*
X174517350Y-97620676D01*
G37*
G36*
X190519350Y-97500676D02*
X190713494Y-97581093D01*
X190888224Y-97697844D01*
X191036812Y-97846432D01*
X191153563Y-98021162D01*
X191233980Y-98215306D01*
X191274976Y-98421408D01*
X191274976Y-98631552D01*
X191233980Y-98837654D01*
X191153563Y-99031798D01*
X191036812Y-99206528D01*
X190888224Y-99355116D01*
X190713494Y-99471867D01*
X190519350Y-99552284D01*
X190313248Y-99593280D01*
X190103104Y-99593280D01*
X189897002Y-99552284D01*
X189702858Y-99471867D01*
X189528128Y-99355116D01*
X189379540Y-99206528D01*
X189262789Y-99031798D01*
X189182372Y-98837654D01*
X189141376Y-98631552D01*
X189141376Y-98421408D01*
X189182372Y-98215306D01*
X189262789Y-98021162D01*
X189379540Y-97846432D01*
X189528128Y-97697844D01*
X189702858Y-97581093D01*
X189897002Y-97500676D01*
X190103104Y-97459680D01*
X190313248Y-97459680D01*
X190519350Y-97500676D01*
X190519350Y-97500676D01*
G37*
G36*
X151931282Y-97597027D02*
X151931284Y-97597028D01*
X151931285Y-97597028D01*
X152100007Y-97666914D01*
X152251168Y-97767917D01*
X152251855Y-97768376D01*
X152380984Y-97897505D01*
X152380986Y-97897508D01*
X152482446Y-98049353D01*
X152551185Y-98215306D01*
X152552333Y-98218078D01*
X152587960Y-98397187D01*
X152587960Y-98579813D01*
X152553710Y-98752000D01*
X152552332Y-98758925D01*
X152482446Y-98927647D01*
X152396350Y-99056498D01*
X152380984Y-99079495D01*
X152251855Y-99208624D01*
X152251852Y-99208626D01*
X152100007Y-99310086D01*
X151931285Y-99379972D01*
X151931284Y-99379972D01*
X151931282Y-99379973D01*
X151752173Y-99415600D01*
X151569547Y-99415600D01*
X151390438Y-99379973D01*
X151390436Y-99379972D01*
X151390435Y-99379972D01*
X151221713Y-99310086D01*
X151069868Y-99208626D01*
X151069865Y-99208624D01*
X150940736Y-99079495D01*
X150925370Y-99056498D01*
X150839274Y-98927647D01*
X150769388Y-98758925D01*
X150768011Y-98752000D01*
X150733760Y-98579813D01*
X150733760Y-98397187D01*
X150769387Y-98218078D01*
X150770535Y-98215306D01*
X150839274Y-98049353D01*
X150940734Y-97897508D01*
X150940736Y-97897505D01*
X151069865Y-97768376D01*
X151070552Y-97767917D01*
X151221713Y-97666914D01*
X151390435Y-97597028D01*
X151390436Y-97597028D01*
X151390438Y-97597027D01*
X151569547Y-97561400D01*
X151752173Y-97561400D01*
X151931282Y-97597027D01*
X151931282Y-97597027D01*
G37*
G36*
X146932562Y-97597027D02*
X146932564Y-97597028D01*
X146932565Y-97597028D01*
X147101287Y-97666914D01*
X147252448Y-97767917D01*
X147253135Y-97768376D01*
X147382264Y-97897505D01*
X147382266Y-97897508D01*
X147483726Y-98049353D01*
X147552465Y-98215306D01*
X147553613Y-98218078D01*
X147589240Y-98397187D01*
X147589240Y-98579813D01*
X147554990Y-98752000D01*
X147553612Y-98758925D01*
X147483726Y-98927647D01*
X147397630Y-99056498D01*
X147382264Y-99079495D01*
X147253135Y-99208624D01*
X147253132Y-99208626D01*
X147101287Y-99310086D01*
X146932565Y-99379972D01*
X146932564Y-99379972D01*
X146932562Y-99379973D01*
X146753453Y-99415600D01*
X146570827Y-99415600D01*
X146391718Y-99379973D01*
X146391716Y-99379972D01*
X146391715Y-99379972D01*
X146222993Y-99310086D01*
X146071148Y-99208626D01*
X146071145Y-99208624D01*
X145942016Y-99079495D01*
X145926650Y-99056498D01*
X145840554Y-98927647D01*
X145770668Y-98758925D01*
X145769291Y-98752000D01*
X145735040Y-98579813D01*
X145735040Y-98397187D01*
X145770667Y-98218078D01*
X145771815Y-98215306D01*
X145840554Y-98049353D01*
X145942014Y-97897508D01*
X145942016Y-97897505D01*
X146071145Y-97768376D01*
X146071832Y-97767917D01*
X146222993Y-97666914D01*
X146391715Y-97597028D01*
X146391716Y-97597028D01*
X146391718Y-97597027D01*
X146570827Y-97561400D01*
X146753453Y-97561400D01*
X146932562Y-97597027D01*
X146932562Y-97597027D01*
G37*
G36*
X155407866Y-97201600D02*
X155611256Y-97285847D01*
X155794303Y-97408155D01*
X155949971Y-97563823D01*
X156072279Y-97746870D01*
X156156526Y-97950260D01*
X156199474Y-98166178D01*
X156199474Y-98386326D01*
X156156526Y-98602244D01*
X156072279Y-98805634D01*
X155949971Y-98988681D01*
X155794303Y-99144349D01*
X155611256Y-99266657D01*
X155407866Y-99350904D01*
X155191948Y-99393852D01*
X154971800Y-99393852D01*
X154755882Y-99350904D01*
X154552492Y-99266657D01*
X154369445Y-99144349D01*
X154213777Y-98988681D01*
X154091469Y-98805634D01*
X154007222Y-98602244D01*
X153964274Y-98386326D01*
X153964274Y-98166178D01*
X154007222Y-97950260D01*
X154091469Y-97746870D01*
X154213777Y-97563823D01*
X154369445Y-97408155D01*
X154552492Y-97285847D01*
X154755882Y-97201600D01*
X154971800Y-97158652D01*
X155191948Y-97158652D01*
X155407866Y-97201600D01*
X155407866Y-97201600D01*
G37*
G36*
X165443406Y-97183820D02*
X165646796Y-97268067D01*
X165829843Y-97390375D01*
X165985511Y-97546043D01*
X166107819Y-97729090D01*
X166192066Y-97932480D01*
X166235014Y-98148398D01*
X166235014Y-98368546D01*
X166192066Y-98584464D01*
X166107819Y-98787854D01*
X165985511Y-98970901D01*
X165829843Y-99126569D01*
X165646796Y-99248877D01*
X165443406Y-99333124D01*
X165227488Y-99376072D01*
X165007340Y-99376072D01*
X164791422Y-99333124D01*
X164588032Y-99248877D01*
X164404985Y-99126569D01*
X164249317Y-98970901D01*
X164127009Y-98787854D01*
X164042762Y-98584464D01*
X163999814Y-98368546D01*
X163999814Y-98148398D01*
X164042762Y-97932480D01*
X164127009Y-97729090D01*
X164249317Y-97546043D01*
X164404985Y-97390375D01*
X164588032Y-97268067D01*
X164791422Y-97183820D01*
X165007340Y-97140872D01*
X165227488Y-97140872D01*
X165443406Y-97183820D01*
X165443406Y-97183820D01*
G37*
G36*
X133333142Y-97643242D02*
X133447583Y-97690646D01*
X133472805Y-97701093D01*
X133481102Y-97704530D01*
X133517860Y-97729091D01*
X133614257Y-97793501D01*
X133727499Y-97906743D01*
X133816471Y-98039900D01*
X133830354Y-98073417D01*
X133877758Y-98187858D01*
X133909000Y-98344925D01*
X133909000Y-98505075D01*
X133877758Y-98662142D01*
X133816470Y-98810102D01*
X133727498Y-98943258D01*
X133614258Y-99056498D01*
X133481102Y-99145470D01*
X133333142Y-99206758D01*
X133176075Y-99238000D01*
X133015925Y-99238000D01*
X132858858Y-99206758D01*
X132710898Y-99145470D01*
X132577742Y-99056498D01*
X132464502Y-98943258D01*
X132375530Y-98810102D01*
X132314242Y-98662142D01*
X132283000Y-98505075D01*
X132283000Y-98344925D01*
X132314242Y-98187858D01*
X132361646Y-98073417D01*
X132375529Y-98039900D01*
X132464501Y-97906743D01*
X132577743Y-97793501D01*
X132674140Y-97729091D01*
X132710898Y-97704530D01*
X132719196Y-97701093D01*
X132744417Y-97690646D01*
X132858858Y-97643242D01*
X133015925Y-97612000D01*
X133176075Y-97612000D01*
X133333142Y-97643242D01*
X133333142Y-97643242D01*
G37*
G36*
X130793142Y-97643242D02*
X130907583Y-97690646D01*
X130932805Y-97701093D01*
X130941102Y-97704530D01*
X130977860Y-97729091D01*
X131074257Y-97793501D01*
X131187499Y-97906743D01*
X131276471Y-98039900D01*
X131290354Y-98073417D01*
X131337758Y-98187858D01*
X131369000Y-98344925D01*
X131369000Y-98505075D01*
X131337758Y-98662142D01*
X131276470Y-98810102D01*
X131187498Y-98943258D01*
X131074258Y-99056498D01*
X130941102Y-99145470D01*
X130793142Y-99206758D01*
X130636075Y-99238000D01*
X130475925Y-99238000D01*
X130318858Y-99206758D01*
X130170898Y-99145470D01*
X130037742Y-99056498D01*
X129924502Y-98943258D01*
X129835530Y-98810102D01*
X129774242Y-98662142D01*
X129743000Y-98505075D01*
X129743000Y-98344925D01*
X129774242Y-98187858D01*
X129821646Y-98073417D01*
X129835529Y-98039900D01*
X129924501Y-97906743D01*
X130037743Y-97793501D01*
X130134140Y-97729091D01*
X130170898Y-97704530D01*
X130179196Y-97701093D01*
X130204417Y-97690646D01*
X130318858Y-97643242D01*
X130475925Y-97612000D01*
X130636075Y-97612000D01*
X130793142Y-97643242D01*
X130793142Y-97643242D01*
G37*
G36*
X141585112Y-95085566D02*
X141763917Y-95121133D01*
X142100777Y-95260665D01*
X142265812Y-95370938D01*
X142403947Y-95463237D01*
X142661763Y-95721053D01*
X142661765Y-95721056D01*
X142864335Y-96024223D01*
X142966181Y-96270102D01*
X143003867Y-96361084D01*
X143064670Y-96666757D01*
X143075000Y-96718692D01*
X143075000Y-97083308D01*
X143003867Y-97440917D01*
X142864335Y-97777777D01*
X142701711Y-98021161D01*
X142661763Y-98080947D01*
X142403947Y-98338763D01*
X142403944Y-98338765D01*
X142100777Y-98541335D01*
X141763917Y-98680867D01*
X141585112Y-98716434D01*
X141406309Y-98752000D01*
X141041691Y-98752000D01*
X140862888Y-98716434D01*
X140684083Y-98680867D01*
X140347223Y-98541335D01*
X140044056Y-98338765D01*
X140044053Y-98338763D01*
X139786237Y-98080947D01*
X139746289Y-98021161D01*
X139583665Y-97777777D01*
X139444133Y-97440917D01*
X139373000Y-97083308D01*
X139373000Y-96718692D01*
X139383331Y-96666757D01*
X139444133Y-96361084D01*
X139481819Y-96270102D01*
X139583665Y-96024223D01*
X139786235Y-95721056D01*
X139786237Y-95721053D01*
X140044053Y-95463237D01*
X140182188Y-95370938D01*
X140347223Y-95260665D01*
X140684083Y-95121133D01*
X140862887Y-95085567D01*
X141041691Y-95050000D01*
X141406309Y-95050000D01*
X141585112Y-95085566D01*
X141585112Y-95085566D01*
G37*
G36*
X167935822Y-94907167D02*
X167935824Y-94907168D01*
X167935825Y-94907168D01*
X168104547Y-94977054D01*
X168213718Y-95050000D01*
X168256395Y-95078516D01*
X168385524Y-95207645D01*
X168385526Y-95207648D01*
X168486986Y-95359493D01*
X168556872Y-95528215D01*
X168556873Y-95528218D01*
X168592500Y-95707327D01*
X168592500Y-95889953D01*
X168565792Y-96024224D01*
X168556872Y-96069065D01*
X168486986Y-96237787D01*
X168404602Y-96361083D01*
X168385524Y-96389635D01*
X168256395Y-96518764D01*
X168256392Y-96518766D01*
X168104547Y-96620226D01*
X167935825Y-96690112D01*
X167935824Y-96690112D01*
X167935822Y-96690113D01*
X167756713Y-96725740D01*
X167574087Y-96725740D01*
X167394978Y-96690113D01*
X167394976Y-96690112D01*
X167394975Y-96690112D01*
X167226253Y-96620226D01*
X167074408Y-96518766D01*
X167074405Y-96518764D01*
X166945276Y-96389635D01*
X166926198Y-96361083D01*
X166843814Y-96237787D01*
X166773928Y-96069065D01*
X166765009Y-96024224D01*
X166738300Y-95889953D01*
X166738300Y-95707327D01*
X166773927Y-95528218D01*
X166773928Y-95528215D01*
X166843814Y-95359493D01*
X166945274Y-95207648D01*
X166945276Y-95207645D01*
X167074405Y-95078516D01*
X167117082Y-95050000D01*
X167226253Y-94977054D01*
X167394975Y-94907168D01*
X167394976Y-94907168D01*
X167394978Y-94907167D01*
X167574087Y-94871540D01*
X167756713Y-94871540D01*
X167935822Y-94907167D01*
X167935822Y-94907167D01*
G37*
G36*
X133333142Y-95103242D02*
X133481102Y-95164530D01*
X133614258Y-95253502D01*
X133727498Y-95366742D01*
X133816470Y-95499898D01*
X133877758Y-95647858D01*
X133909000Y-95804925D01*
X133909000Y-95965075D01*
X133877758Y-96122142D01*
X133830354Y-96236583D01*
X133816471Y-96270100D01*
X133755679Y-96361083D01*
X133727498Y-96403258D01*
X133614258Y-96516498D01*
X133481102Y-96605470D01*
X133333142Y-96666758D01*
X133176075Y-96698000D01*
X133015925Y-96698000D01*
X132858858Y-96666758D01*
X132710898Y-96605470D01*
X132577742Y-96516498D01*
X132464502Y-96403258D01*
X132436322Y-96361083D01*
X132375529Y-96270100D01*
X132361646Y-96236583D01*
X132314242Y-96122142D01*
X132283000Y-95965075D01*
X132283000Y-95804925D01*
X132314242Y-95647858D01*
X132375530Y-95499898D01*
X132464502Y-95366742D01*
X132577742Y-95253502D01*
X132710898Y-95164530D01*
X132858858Y-95103242D01*
X133015925Y-95072000D01*
X133176075Y-95072000D01*
X133333142Y-95103242D01*
X133333142Y-95103242D01*
G37*
G36*
X130793142Y-95103242D02*
X130941102Y-95164530D01*
X131074258Y-95253502D01*
X131187498Y-95366742D01*
X131276470Y-95499898D01*
X131337758Y-95647858D01*
X131369000Y-95804925D01*
X131369000Y-95965075D01*
X131337758Y-96122142D01*
X131290354Y-96236583D01*
X131276471Y-96270100D01*
X131215679Y-96361083D01*
X131187498Y-96403258D01*
X131074258Y-96516498D01*
X130941102Y-96605470D01*
X130793142Y-96666758D01*
X130636075Y-96698000D01*
X130475925Y-96698000D01*
X130318858Y-96666758D01*
X130170898Y-96605470D01*
X130037742Y-96516498D01*
X129924502Y-96403258D01*
X129896322Y-96361083D01*
X129835529Y-96270100D01*
X129821646Y-96236583D01*
X129774242Y-96122142D01*
X129743000Y-95965075D01*
X129743000Y-95804925D01*
X129774242Y-95647858D01*
X129835530Y-95499898D01*
X129924502Y-95366742D01*
X130037742Y-95253502D01*
X130170898Y-95164530D01*
X130318858Y-95103242D01*
X130475925Y-95072000D01*
X130636075Y-95072000D01*
X130793142Y-95103242D01*
X130793142Y-95103242D01*
G37*
G36*
X160254113Y-92355067D02*
X160432917Y-92390633D01*
X160769777Y-92530165D01*
X161044158Y-92713501D01*
X161072947Y-92732737D01*
X161330763Y-92990553D01*
X161330765Y-92990556D01*
X161533335Y-93293723D01*
X161652802Y-93582142D01*
X161672867Y-93630584D01*
X161744000Y-93988191D01*
X161744000Y-94352809D01*
X161715913Y-94494010D01*
X161672867Y-94710417D01*
X161533335Y-95047277D01*
X161390753Y-95260665D01*
X161330763Y-95350447D01*
X161072947Y-95608263D01*
X161072944Y-95608265D01*
X160769777Y-95810835D01*
X160432917Y-95950367D01*
X160254112Y-95985934D01*
X160075309Y-96021500D01*
X159710691Y-96021500D01*
X159531887Y-95985933D01*
X159353083Y-95950367D01*
X159016223Y-95810835D01*
X158713056Y-95608265D01*
X158713053Y-95608263D01*
X158455237Y-95350447D01*
X158395247Y-95260665D01*
X158252665Y-95047277D01*
X158113133Y-94710417D01*
X158070087Y-94494010D01*
X158042000Y-94352809D01*
X158042000Y-93988191D01*
X158113133Y-93630584D01*
X158133198Y-93582142D01*
X158252665Y-93293723D01*
X158455235Y-92990556D01*
X158455237Y-92990553D01*
X158713053Y-92732737D01*
X158741842Y-92713501D01*
X159016223Y-92530165D01*
X159353083Y-92390633D01*
X159531887Y-92355067D01*
X159710691Y-92319500D01*
X160075309Y-92319500D01*
X160254113Y-92355067D01*
X160254113Y-92355067D01*
G37*
G36*
X151931176Y-94111859D02*
X152074474Y-94171214D01*
X152203440Y-94257387D01*
X152313113Y-94367060D01*
X152399286Y-94496026D01*
X152458641Y-94639324D01*
X152488900Y-94791446D01*
X152488900Y-94946554D01*
X152458641Y-95098676D01*
X152399286Y-95241974D01*
X152313113Y-95370940D01*
X152203440Y-95480613D01*
X152074474Y-95566786D01*
X151931176Y-95626141D01*
X151779054Y-95656400D01*
X151623946Y-95656400D01*
X151471824Y-95626141D01*
X151328526Y-95566786D01*
X151199560Y-95480613D01*
X151089887Y-95370940D01*
X151003714Y-95241974D01*
X150944359Y-95098676D01*
X150914100Y-94946554D01*
X150914100Y-94791446D01*
X150944359Y-94639324D01*
X151003714Y-94496026D01*
X151089887Y-94367060D01*
X151199560Y-94257387D01*
X151328526Y-94171214D01*
X151471824Y-94111859D01*
X151623946Y-94081600D01*
X151779054Y-94081600D01*
X151931176Y-94111859D01*
X151931176Y-94111859D01*
G37*
G36*
X149391176Y-94111859D02*
X149534474Y-94171214D01*
X149663440Y-94257387D01*
X149773113Y-94367060D01*
X149859286Y-94496026D01*
X149918641Y-94639324D01*
X149948900Y-94791446D01*
X149948900Y-94946554D01*
X149918641Y-95098676D01*
X149859286Y-95241974D01*
X149773113Y-95370940D01*
X149663440Y-95480613D01*
X149534474Y-95566786D01*
X149391176Y-95626141D01*
X149239054Y-95656400D01*
X149083946Y-95656400D01*
X148931824Y-95626141D01*
X148788526Y-95566786D01*
X148659560Y-95480613D01*
X148549887Y-95370940D01*
X148463714Y-95241974D01*
X148404359Y-95098676D01*
X148374100Y-94946554D01*
X148374100Y-94791446D01*
X148404359Y-94639324D01*
X148463714Y-94496026D01*
X148549887Y-94367060D01*
X148659560Y-94257387D01*
X148788526Y-94171214D01*
X148931824Y-94111859D01*
X149083946Y-94081600D01*
X149239054Y-94081600D01*
X149391176Y-94111859D01*
X149391176Y-94111859D01*
G37*
G36*
X146851176Y-94111859D02*
X146994474Y-94171214D01*
X147123440Y-94257387D01*
X147233113Y-94367060D01*
X147319286Y-94496026D01*
X147378641Y-94639324D01*
X147408900Y-94791446D01*
X147408900Y-94946554D01*
X147378641Y-95098676D01*
X147319286Y-95241974D01*
X147233113Y-95370940D01*
X147123440Y-95480613D01*
X146994474Y-95566786D01*
X146851176Y-95626141D01*
X146699054Y-95656400D01*
X146543946Y-95656400D01*
X146391824Y-95626141D01*
X146248526Y-95566786D01*
X146119560Y-95480613D01*
X146009887Y-95370940D01*
X145923714Y-95241974D01*
X145864359Y-95098676D01*
X145834100Y-94946554D01*
X145834100Y-94791446D01*
X145864359Y-94639324D01*
X145923714Y-94496026D01*
X146009887Y-94367060D01*
X146119560Y-94257387D01*
X146248526Y-94171214D01*
X146391824Y-94111859D01*
X146543946Y-94081600D01*
X146699054Y-94081600D01*
X146851176Y-94111859D01*
X146851176Y-94111859D01*
G37*
G36*
X181376013Y-92985327D02*
X179867329Y-94494011D01*
X178358645Y-92985327D01*
X179867329Y-91476643D01*
X181376013Y-92985327D01*
X181376013Y-92985327D01*
G37*
G36*
X197378013Y-92865327D02*
X195869329Y-94374011D01*
X194360645Y-92865327D01*
X195869329Y-91356643D01*
X197378013Y-92865327D01*
X197378013Y-92865327D01*
G37*
G36*
X133333142Y-92563242D02*
X133481102Y-92624530D01*
X133614258Y-92713502D01*
X133727498Y-92826742D01*
X133816470Y-92959898D01*
X133877758Y-93107858D01*
X133909000Y-93264925D01*
X133909000Y-93425075D01*
X133877758Y-93582142D01*
X133857692Y-93630584D01*
X133816471Y-93730100D01*
X133727499Y-93863257D01*
X133614257Y-93976499D01*
X133596757Y-93988192D01*
X133481102Y-94065470D01*
X133333142Y-94126758D01*
X133176075Y-94158000D01*
X133015925Y-94158000D01*
X132858858Y-94126758D01*
X132710898Y-94065470D01*
X132595243Y-93988192D01*
X132577743Y-93976499D01*
X132464501Y-93863257D01*
X132375529Y-93730100D01*
X132334308Y-93630584D01*
X132314242Y-93582142D01*
X132283000Y-93425075D01*
X132283000Y-93264925D01*
X132314242Y-93107858D01*
X132375530Y-92959898D01*
X132464502Y-92826742D01*
X132577742Y-92713502D01*
X132710898Y-92624530D01*
X132858858Y-92563242D01*
X133015925Y-92532000D01*
X133176075Y-92532000D01*
X133333142Y-92563242D01*
X133333142Y-92563242D01*
G37*
G36*
X130793142Y-92563242D02*
X130941102Y-92624530D01*
X131074258Y-92713502D01*
X131187498Y-92826742D01*
X131276470Y-92959898D01*
X131337758Y-93107858D01*
X131369000Y-93264925D01*
X131369000Y-93425075D01*
X131337758Y-93582142D01*
X131317692Y-93630584D01*
X131276471Y-93730100D01*
X131187499Y-93863257D01*
X131074257Y-93976499D01*
X131056757Y-93988192D01*
X130941102Y-94065470D01*
X130793142Y-94126758D01*
X130636075Y-94158000D01*
X130475925Y-94158000D01*
X130318858Y-94126758D01*
X130170898Y-94065470D01*
X130055243Y-93988192D01*
X130037743Y-93976499D01*
X129924501Y-93863257D01*
X129835529Y-93730100D01*
X129794308Y-93630584D01*
X129774242Y-93582142D01*
X129743000Y-93425075D01*
X129743000Y-93264925D01*
X129774242Y-93107858D01*
X129835530Y-92959898D01*
X129924502Y-92826742D01*
X130037742Y-92713502D01*
X130170898Y-92624530D01*
X130318858Y-92563242D01*
X130475925Y-92532000D01*
X130636075Y-92532000D01*
X130793142Y-92563242D01*
X130793142Y-92563242D01*
G37*
G36*
X133333142Y-90023242D02*
X133481102Y-90084530D01*
X133504910Y-90100438D01*
X133614257Y-90173501D01*
X133727499Y-90286743D01*
X133771683Y-90352870D01*
X133816470Y-90419898D01*
X133877758Y-90567858D01*
X133909000Y-90724925D01*
X133909000Y-90885075D01*
X133877758Y-91042142D01*
X133816470Y-91190102D01*
X133727498Y-91323258D01*
X133614258Y-91436498D01*
X133481102Y-91525470D01*
X133333142Y-91586758D01*
X133176075Y-91618000D01*
X133015925Y-91618000D01*
X132858858Y-91586758D01*
X132710898Y-91525470D01*
X132577742Y-91436498D01*
X132464502Y-91323258D01*
X132375530Y-91190102D01*
X132314242Y-91042142D01*
X132283000Y-90885075D01*
X132283000Y-90724925D01*
X132314242Y-90567858D01*
X132375530Y-90419898D01*
X132420317Y-90352870D01*
X132464501Y-90286743D01*
X132577743Y-90173501D01*
X132687090Y-90100438D01*
X132710898Y-90084530D01*
X132858858Y-90023242D01*
X133015925Y-89992000D01*
X133176075Y-89992000D01*
X133333142Y-90023242D01*
X133333142Y-90023242D01*
G37*
G36*
X130793142Y-90023242D02*
X130941102Y-90084530D01*
X130964910Y-90100438D01*
X131074257Y-90173501D01*
X131187499Y-90286743D01*
X131231683Y-90352870D01*
X131276470Y-90419898D01*
X131337758Y-90567858D01*
X131369000Y-90724925D01*
X131369000Y-90885075D01*
X131337758Y-91042142D01*
X131276470Y-91190102D01*
X131187498Y-91323258D01*
X131074258Y-91436498D01*
X130941102Y-91525470D01*
X130793142Y-91586758D01*
X130636075Y-91618000D01*
X130475925Y-91618000D01*
X130318858Y-91586758D01*
X130170898Y-91525470D01*
X130037742Y-91436498D01*
X129924502Y-91323258D01*
X129835530Y-91190102D01*
X129774242Y-91042142D01*
X129743000Y-90885075D01*
X129743000Y-90724925D01*
X129774242Y-90567858D01*
X129835530Y-90419898D01*
X129880317Y-90352870D01*
X129924501Y-90286743D01*
X130037743Y-90173501D01*
X130147090Y-90100438D01*
X130170898Y-90084530D01*
X130318858Y-90023242D01*
X130475925Y-89992000D01*
X130636075Y-89992000D01*
X130793142Y-90023242D01*
X130793142Y-90023242D01*
G37*
G36*
X165552992Y-88968348D02*
X165756382Y-89052595D01*
X165939429Y-89174903D01*
X166095097Y-89330571D01*
X166217405Y-89513618D01*
X166301652Y-89717008D01*
X166344600Y-89932926D01*
X166344600Y-90153074D01*
X166301652Y-90368992D01*
X166217405Y-90572382D01*
X166095097Y-90755429D01*
X165939429Y-90911097D01*
X165756382Y-91033405D01*
X165552992Y-91117652D01*
X165337074Y-91160600D01*
X165116926Y-91160600D01*
X164901008Y-91117652D01*
X164697618Y-91033405D01*
X164514571Y-90911097D01*
X164358903Y-90755429D01*
X164236595Y-90572382D01*
X164152348Y-90368992D01*
X164109400Y-90153074D01*
X164109400Y-89932926D01*
X164152348Y-89717008D01*
X164236595Y-89513618D01*
X164358903Y-89330571D01*
X164514571Y-89174903D01*
X164697618Y-89052595D01*
X164901008Y-88968348D01*
X165116926Y-88925400D01*
X165337074Y-88925400D01*
X165552992Y-88968348D01*
X165552992Y-88968348D01*
G37*
G36*
X155900992Y-88968348D02*
X156104382Y-89052595D01*
X156287429Y-89174903D01*
X156443097Y-89330571D01*
X156565405Y-89513618D01*
X156649652Y-89717008D01*
X156692600Y-89932926D01*
X156692600Y-90153074D01*
X156649652Y-90368992D01*
X156565405Y-90572382D01*
X156443097Y-90755429D01*
X156287429Y-90911097D01*
X156104382Y-91033405D01*
X155900992Y-91117652D01*
X155685074Y-91160600D01*
X155464926Y-91160600D01*
X155249008Y-91117652D01*
X155045618Y-91033405D01*
X154862571Y-90911097D01*
X154706903Y-90755429D01*
X154584595Y-90572382D01*
X154500348Y-90368992D01*
X154457400Y-90153074D01*
X154457400Y-89932926D01*
X154500348Y-89717008D01*
X154584595Y-89513618D01*
X154706903Y-89330571D01*
X154862571Y-89174903D01*
X155045618Y-89052595D01*
X155249008Y-88968348D01*
X155464926Y-88925400D01*
X155685074Y-88925400D01*
X155900992Y-88968348D01*
X155900992Y-88968348D01*
G37*
G36*
X140892765Y-88660620D02*
X141082289Y-88739123D01*
X141252855Y-88853092D01*
X141397908Y-88998145D01*
X141511877Y-89168711D01*
X141590380Y-89358235D01*
X141630400Y-89559430D01*
X141630400Y-89764570D01*
X141590380Y-89965765D01*
X141511877Y-90155289D01*
X141397908Y-90325855D01*
X141252855Y-90470908D01*
X141082289Y-90584877D01*
X140892765Y-90663380D01*
X140691570Y-90703400D01*
X140486430Y-90703400D01*
X140285235Y-90663380D01*
X140095711Y-90584877D01*
X139925145Y-90470908D01*
X139780092Y-90325855D01*
X139666123Y-90155289D01*
X139587620Y-89965765D01*
X139547600Y-89764570D01*
X139547600Y-89559430D01*
X139587620Y-89358235D01*
X139666123Y-89168711D01*
X139780092Y-88998145D01*
X139925145Y-88853092D01*
X140095711Y-88739123D01*
X140285235Y-88660620D01*
X140486430Y-88620600D01*
X140691570Y-88620600D01*
X140892765Y-88660620D01*
X140892765Y-88660620D01*
G37*
G36*
X149454676Y-88841359D02*
X149597974Y-88900714D01*
X149726940Y-88986887D01*
X149836613Y-89096560D01*
X149922786Y-89225526D01*
X149982141Y-89368824D01*
X150012400Y-89520946D01*
X150012400Y-89676054D01*
X149982141Y-89828176D01*
X149922786Y-89971474D01*
X149836613Y-90100440D01*
X149726940Y-90210113D01*
X149597974Y-90296286D01*
X149454676Y-90355641D01*
X149302554Y-90385900D01*
X149147446Y-90385900D01*
X148995324Y-90355641D01*
X148852026Y-90296286D01*
X148723060Y-90210113D01*
X148613387Y-90100440D01*
X148527214Y-89971474D01*
X148467859Y-89828176D01*
X148437600Y-89676054D01*
X148437600Y-89520946D01*
X148467859Y-89368824D01*
X148527214Y-89225526D01*
X148613387Y-89096560D01*
X148723060Y-88986887D01*
X148852026Y-88900714D01*
X148995324Y-88841359D01*
X149147446Y-88811100D01*
X149302554Y-88811100D01*
X149454676Y-88841359D01*
X149454676Y-88841359D01*
G37*
G36*
X146914676Y-88841359D02*
X147057974Y-88900714D01*
X147186940Y-88986887D01*
X147296613Y-89096560D01*
X147382786Y-89225526D01*
X147442141Y-89368824D01*
X147472400Y-89520946D01*
X147472400Y-89676054D01*
X147442141Y-89828176D01*
X147382786Y-89971474D01*
X147296613Y-90100440D01*
X147186940Y-90210113D01*
X147057974Y-90296286D01*
X146914676Y-90355641D01*
X146762554Y-90385900D01*
X146607446Y-90385900D01*
X146455324Y-90355641D01*
X146312026Y-90296286D01*
X146183060Y-90210113D01*
X146073387Y-90100440D01*
X145987214Y-89971474D01*
X145927859Y-89828176D01*
X145897600Y-89676054D01*
X145897600Y-89520946D01*
X145927859Y-89368824D01*
X145987214Y-89225526D01*
X146073387Y-89096560D01*
X146183060Y-88986887D01*
X146312026Y-88900714D01*
X146455324Y-88841359D01*
X146607446Y-88811100D01*
X146762554Y-88811100D01*
X146914676Y-88841359D01*
X146914676Y-88841359D01*
G37*
G36*
X151994676Y-88841359D02*
X152137974Y-88900714D01*
X152266940Y-88986887D01*
X152376613Y-89096560D01*
X152462786Y-89225526D01*
X152522141Y-89368824D01*
X152552400Y-89520946D01*
X152552400Y-89676054D01*
X152522141Y-89828176D01*
X152462786Y-89971474D01*
X152376613Y-90100440D01*
X152266940Y-90210113D01*
X152137974Y-90296286D01*
X151994676Y-90355641D01*
X151842554Y-90385900D01*
X151687446Y-90385900D01*
X151535324Y-90355641D01*
X151392026Y-90296286D01*
X151263060Y-90210113D01*
X151153387Y-90100440D01*
X151067214Y-89971474D01*
X151007859Y-89828176D01*
X150977600Y-89676054D01*
X150977600Y-89520946D01*
X151007859Y-89368824D01*
X151067214Y-89225526D01*
X151153387Y-89096560D01*
X151263060Y-88986887D01*
X151392026Y-88900714D01*
X151535324Y-88841359D01*
X151687446Y-88811100D01*
X151842554Y-88811100D01*
X151994676Y-88841359D01*
X151994676Y-88841359D01*
G37*
G36*
X169480890Y-88496017D02*
X169599361Y-88545089D01*
X169705992Y-88616338D01*
X169796662Y-88707008D01*
X169867911Y-88813639D01*
X169916983Y-88932110D01*
X169942000Y-89057881D01*
X169942000Y-89186119D01*
X169916983Y-89311890D01*
X169867911Y-89430361D01*
X169867909Y-89430364D01*
X169807383Y-89520948D01*
X169796662Y-89536992D01*
X169705992Y-89627662D01*
X169599361Y-89698911D01*
X169480890Y-89747983D01*
X169355119Y-89773000D01*
X169226881Y-89773000D01*
X169101110Y-89747983D01*
X168982639Y-89698911D01*
X168876008Y-89627662D01*
X168785338Y-89536992D01*
X168774618Y-89520948D01*
X168714091Y-89430364D01*
X168714089Y-89430361D01*
X168665017Y-89311890D01*
X168640000Y-89186119D01*
X168640000Y-89057881D01*
X168665017Y-88932110D01*
X168714089Y-88813639D01*
X168785338Y-88707008D01*
X168876008Y-88616338D01*
X168982639Y-88545089D01*
X169101110Y-88496017D01*
X169226881Y-88471000D01*
X169355119Y-88471000D01*
X169480890Y-88496017D01*
X169480890Y-88496017D01*
G37*
G36*
X133333142Y-87483242D02*
X133481102Y-87544530D01*
X133548130Y-87589317D01*
X133614257Y-87633501D01*
X133727499Y-87746743D01*
X133759677Y-87794901D01*
X133816470Y-87879898D01*
X133877758Y-88027858D01*
X133909000Y-88184925D01*
X133909000Y-88345075D01*
X133877758Y-88502142D01*
X133830457Y-88616335D01*
X133816471Y-88650100D01*
X133727499Y-88783257D01*
X133614257Y-88896499D01*
X133607947Y-88900715D01*
X133481102Y-88985470D01*
X133333142Y-89046758D01*
X133176075Y-89078000D01*
X133015925Y-89078000D01*
X132858858Y-89046758D01*
X132710898Y-88985470D01*
X132584053Y-88900715D01*
X132577743Y-88896499D01*
X132464501Y-88783257D01*
X132375529Y-88650100D01*
X132361543Y-88616335D01*
X132314242Y-88502142D01*
X132283000Y-88345075D01*
X132283000Y-88184925D01*
X132314242Y-88027858D01*
X132375530Y-87879898D01*
X132432323Y-87794901D01*
X132464501Y-87746743D01*
X132577743Y-87633501D01*
X132643870Y-87589317D01*
X132710898Y-87544530D01*
X132858858Y-87483242D01*
X133015925Y-87452000D01*
X133176075Y-87452000D01*
X133333142Y-87483242D01*
X133333142Y-87483242D01*
G37*
G36*
X130793142Y-87483242D02*
X130941102Y-87544530D01*
X131008130Y-87589317D01*
X131074257Y-87633501D01*
X131187499Y-87746743D01*
X131219677Y-87794901D01*
X131276470Y-87879898D01*
X131337758Y-88027858D01*
X131369000Y-88184925D01*
X131369000Y-88345075D01*
X131337758Y-88502142D01*
X131290457Y-88616335D01*
X131276471Y-88650100D01*
X131187499Y-88783257D01*
X131074257Y-88896499D01*
X131067947Y-88900715D01*
X130941102Y-88985470D01*
X130793142Y-89046758D01*
X130636075Y-89078000D01*
X130475925Y-89078000D01*
X130318858Y-89046758D01*
X130170898Y-88985470D01*
X130044053Y-88900715D01*
X130037743Y-88896499D01*
X129924501Y-88783257D01*
X129835529Y-88650100D01*
X129821543Y-88616335D01*
X129774242Y-88502142D01*
X129743000Y-88345075D01*
X129743000Y-88184925D01*
X129774242Y-88027858D01*
X129835530Y-87879898D01*
X129892323Y-87794901D01*
X129924501Y-87746743D01*
X130037743Y-87633501D01*
X130103870Y-87589317D01*
X130170898Y-87544530D01*
X130318858Y-87483242D01*
X130475925Y-87452000D01*
X130636075Y-87452000D01*
X130793142Y-87483242D01*
X130793142Y-87483242D01*
G37*
G36*
X155858717Y-86007820D02*
X156062107Y-86092067D01*
X156245154Y-86214375D01*
X156400822Y-86370043D01*
X156523130Y-86553090D01*
X156607377Y-86756480D01*
X156650325Y-86972398D01*
X156650325Y-87192546D01*
X156607377Y-87408464D01*
X156523130Y-87611854D01*
X156400822Y-87794901D01*
X156245154Y-87950569D01*
X156062107Y-88072877D01*
X155858717Y-88157124D01*
X155642799Y-88200072D01*
X155422651Y-88200072D01*
X155206733Y-88157124D01*
X155003343Y-88072877D01*
X154820296Y-87950569D01*
X154664628Y-87794901D01*
X154542320Y-87611854D01*
X154458073Y-87408464D01*
X154415125Y-87192546D01*
X154415125Y-86972398D01*
X154458073Y-86756480D01*
X154542320Y-86553090D01*
X154664628Y-86370043D01*
X154820296Y-86214375D01*
X155003343Y-86092067D01*
X155206733Y-86007820D01*
X155422651Y-85964872D01*
X155642799Y-85964872D01*
X155858717Y-86007820D01*
X155858717Y-86007820D01*
G37*
G36*
X165510717Y-86007820D02*
X165714107Y-86092067D01*
X165897154Y-86214375D01*
X166052822Y-86370043D01*
X166175130Y-86553090D01*
X166259377Y-86756480D01*
X166302325Y-86972398D01*
X166302325Y-87192546D01*
X166259377Y-87408464D01*
X166175130Y-87611854D01*
X166052822Y-87794901D01*
X165897154Y-87950569D01*
X165714107Y-88072877D01*
X165510717Y-88157124D01*
X165294799Y-88200072D01*
X165074651Y-88200072D01*
X164858733Y-88157124D01*
X164655343Y-88072877D01*
X164472296Y-87950569D01*
X164316628Y-87794901D01*
X164194320Y-87611854D01*
X164110073Y-87408464D01*
X164067125Y-87192546D01*
X164067125Y-86972398D01*
X164110073Y-86756480D01*
X164194320Y-86553090D01*
X164316628Y-86370043D01*
X164472296Y-86214375D01*
X164655343Y-86092067D01*
X164858733Y-86007820D01*
X165074651Y-85964872D01*
X165294799Y-85964872D01*
X165510717Y-86007820D01*
X165510717Y-86007820D01*
G37*
G36*
X140892765Y-86120620D02*
X141082289Y-86199123D01*
X141252855Y-86313092D01*
X141397908Y-86458145D01*
X141511877Y-86628711D01*
X141590380Y-86818235D01*
X141630400Y-87019430D01*
X141630400Y-87224570D01*
X141590380Y-87425765D01*
X141511877Y-87615289D01*
X141397908Y-87785855D01*
X141252855Y-87930908D01*
X141082289Y-88044877D01*
X140892765Y-88123380D01*
X140691570Y-88163400D01*
X140486430Y-88163400D01*
X140285235Y-88123380D01*
X140095711Y-88044877D01*
X139925145Y-87930908D01*
X139780092Y-87785855D01*
X139666123Y-87615289D01*
X139587620Y-87425765D01*
X139547600Y-87224570D01*
X139547600Y-87019430D01*
X139587620Y-86818235D01*
X139666123Y-86628711D01*
X139780092Y-86458145D01*
X139925145Y-86313092D01*
X140095711Y-86199123D01*
X140285235Y-86120620D01*
X140486430Y-86080600D01*
X140691570Y-86080600D01*
X140892765Y-86120620D01*
X140892765Y-86120620D01*
G37*
G36*
X169480890Y-86496017D02*
X169599361Y-86545089D01*
X169705992Y-86616338D01*
X169796662Y-86707008D01*
X169796664Y-86707011D01*
X169796665Y-86707012D01*
X169867909Y-86813636D01*
X169867911Y-86813639D01*
X169916983Y-86932110D01*
X169942000Y-87057881D01*
X169942000Y-87186119D01*
X169916983Y-87311890D01*
X169867911Y-87430361D01*
X169796662Y-87536992D01*
X169705992Y-87627662D01*
X169705989Y-87627664D01*
X169705988Y-87627665D01*
X169697252Y-87633502D01*
X169599361Y-87698911D01*
X169480890Y-87747983D01*
X169355119Y-87773000D01*
X169226881Y-87773000D01*
X169101110Y-87747983D01*
X168982639Y-87698911D01*
X168884748Y-87633502D01*
X168876012Y-87627665D01*
X168876011Y-87627664D01*
X168876008Y-87627662D01*
X168785338Y-87536992D01*
X168714089Y-87430361D01*
X168665017Y-87311890D01*
X168640000Y-87186119D01*
X168640000Y-87057881D01*
X168665017Y-86932110D01*
X168714089Y-86813639D01*
X168714091Y-86813636D01*
X168785335Y-86707012D01*
X168785336Y-86707011D01*
X168785338Y-86707008D01*
X168876008Y-86616338D01*
X168982639Y-86545089D01*
X169101110Y-86496017D01*
X169226881Y-86471000D01*
X169355119Y-86471000D01*
X169480890Y-86496017D01*
X169480890Y-86496017D01*
G37*
G36*
X130793142Y-84943242D02*
X130941102Y-85004530D01*
X130991808Y-85038411D01*
X131074257Y-85093501D01*
X131187499Y-85206743D01*
X131212251Y-85243787D01*
X131276470Y-85339898D01*
X131337758Y-85487858D01*
X131369000Y-85644925D01*
X131369000Y-85805075D01*
X131337758Y-85962142D01*
X131290354Y-86076583D01*
X131276471Y-86110100D01*
X131187499Y-86243257D01*
X131074257Y-86356499D01*
X131008130Y-86400683D01*
X130941102Y-86445470D01*
X130793142Y-86506758D01*
X130636075Y-86538000D01*
X130475925Y-86538000D01*
X130318858Y-86506758D01*
X130170898Y-86445470D01*
X130103870Y-86400683D01*
X130037743Y-86356499D01*
X129924501Y-86243257D01*
X129835529Y-86110100D01*
X129821646Y-86076583D01*
X129774242Y-85962142D01*
X129743000Y-85805075D01*
X129743000Y-85644925D01*
X129774242Y-85487858D01*
X129835530Y-85339898D01*
X129899749Y-85243787D01*
X129924501Y-85206743D01*
X130037743Y-85093501D01*
X130120192Y-85038411D01*
X130170898Y-85004530D01*
X130318858Y-84943242D01*
X130475925Y-84912000D01*
X130636075Y-84912000D01*
X130793142Y-84943242D01*
X130793142Y-84943242D01*
G37*
G36*
X133333142Y-84943242D02*
X133481102Y-85004530D01*
X133531808Y-85038411D01*
X133614257Y-85093501D01*
X133727499Y-85206743D01*
X133752251Y-85243787D01*
X133816470Y-85339898D01*
X133877758Y-85487858D01*
X133909000Y-85644925D01*
X133909000Y-85805075D01*
X133877758Y-85962142D01*
X133830354Y-86076583D01*
X133816471Y-86110100D01*
X133727499Y-86243257D01*
X133614257Y-86356499D01*
X133548130Y-86400683D01*
X133481102Y-86445470D01*
X133333142Y-86506758D01*
X133176075Y-86538000D01*
X133015925Y-86538000D01*
X132858858Y-86506758D01*
X132710898Y-86445470D01*
X132643870Y-86400683D01*
X132577743Y-86356499D01*
X132464501Y-86243257D01*
X132375529Y-86110100D01*
X132361646Y-86076583D01*
X132314242Y-85962142D01*
X132283000Y-85805075D01*
X132283000Y-85644925D01*
X132314242Y-85487858D01*
X132375530Y-85339898D01*
X132439749Y-85243787D01*
X132464501Y-85206743D01*
X132577743Y-85093501D01*
X132660192Y-85038411D01*
X132710898Y-85004530D01*
X132858858Y-84943242D01*
X133015925Y-84912000D01*
X133176075Y-84912000D01*
X133333142Y-84943242D01*
X133333142Y-84943242D01*
G37*
G36*
X143886792Y-84167748D02*
X144090182Y-84251995D01*
X144273229Y-84374303D01*
X144428897Y-84529971D01*
X144551205Y-84713018D01*
X144635452Y-84916408D01*
X144678400Y-85132326D01*
X144678400Y-85352474D01*
X144635452Y-85568392D01*
X144551205Y-85771782D01*
X144428897Y-85954829D01*
X144273229Y-86110497D01*
X144090182Y-86232805D01*
X143886792Y-86317052D01*
X143670874Y-86360000D01*
X143450726Y-86360000D01*
X143234808Y-86317052D01*
X143031418Y-86232805D01*
X142848371Y-86110497D01*
X142692703Y-85954829D01*
X142570395Y-85771782D01*
X142486148Y-85568392D01*
X142443200Y-85352474D01*
X142443200Y-85132326D01*
X142486148Y-84916408D01*
X142570395Y-84713018D01*
X142692703Y-84529971D01*
X142848371Y-84374303D01*
X143031418Y-84251995D01*
X143234808Y-84167748D01*
X143450726Y-84124800D01*
X143670874Y-84124800D01*
X143886792Y-84167748D01*
X143886792Y-84167748D01*
G37*
G36*
X153538792Y-84167748D02*
X153742182Y-84251995D01*
X153925229Y-84374303D01*
X154080897Y-84529971D01*
X154203205Y-84713018D01*
X154287452Y-84916408D01*
X154330400Y-85132326D01*
X154330400Y-85352474D01*
X154287452Y-85568392D01*
X154203205Y-85771782D01*
X154080897Y-85954829D01*
X153925229Y-86110497D01*
X153742182Y-86232805D01*
X153538792Y-86317052D01*
X153322874Y-86360000D01*
X153102726Y-86360000D01*
X152886808Y-86317052D01*
X152683418Y-86232805D01*
X152500371Y-86110497D01*
X152344703Y-85954829D01*
X152222395Y-85771782D01*
X152138148Y-85568392D01*
X152095200Y-85352474D01*
X152095200Y-85132326D01*
X152138148Y-84916408D01*
X152222395Y-84713018D01*
X152344703Y-84529971D01*
X152500371Y-84374303D01*
X152683418Y-84251995D01*
X152886808Y-84167748D01*
X153102726Y-84124800D01*
X153322874Y-84124800D01*
X153538792Y-84167748D01*
X153538792Y-84167748D01*
G37*
G36*
X156614013Y-83079157D02*
X156704616Y-83106642D01*
X156788123Y-83151278D01*
X156861313Y-83211343D01*
X156921378Y-83284533D01*
X156966014Y-83368040D01*
X156993499Y-83458643D01*
X157003384Y-83559012D01*
X157003384Y-84763932D01*
X156993499Y-84864301D01*
X156966014Y-84954904D01*
X156921378Y-85038411D01*
X156861313Y-85111601D01*
X156788123Y-85171666D01*
X156704616Y-85216302D01*
X156614013Y-85243787D01*
X156513644Y-85253672D01*
X155308724Y-85253672D01*
X155208355Y-85243787D01*
X155117752Y-85216302D01*
X155034245Y-85171666D01*
X154961055Y-85111601D01*
X154900990Y-85038411D01*
X154856354Y-84954904D01*
X154828869Y-84864301D01*
X154818984Y-84763932D01*
X154818984Y-83559012D01*
X154828869Y-83458643D01*
X154856354Y-83368040D01*
X154900990Y-83284533D01*
X154961055Y-83211343D01*
X155034245Y-83151278D01*
X155117752Y-83106642D01*
X155208355Y-83079157D01*
X155308724Y-83069272D01*
X156513644Y-83069272D01*
X156614013Y-83079157D01*
X156614013Y-83079157D01*
G37*
G36*
X165119767Y-83111244D02*
X165318534Y-83193576D01*
X165497423Y-83313106D01*
X165649550Y-83465233D01*
X165769080Y-83644122D01*
X165851412Y-83842889D01*
X165893384Y-84053898D01*
X165893384Y-84269046D01*
X165851412Y-84480055D01*
X165769080Y-84678822D01*
X165649550Y-84857711D01*
X165497423Y-85009838D01*
X165318534Y-85129368D01*
X165119767Y-85211700D01*
X164908758Y-85253672D01*
X164693610Y-85253672D01*
X164482601Y-85211700D01*
X164283834Y-85129368D01*
X164104945Y-85009838D01*
X163952818Y-84857711D01*
X163833288Y-84678822D01*
X163750956Y-84480055D01*
X163708984Y-84269046D01*
X163708984Y-84053898D01*
X163750956Y-83842889D01*
X163833288Y-83644122D01*
X163952818Y-83465233D01*
X164104945Y-83313106D01*
X164283834Y-83193576D01*
X164482601Y-83111244D01*
X164693610Y-83069272D01*
X164908758Y-83069272D01*
X165119767Y-83111244D01*
X165119767Y-83111244D01*
G37*
G36*
X175686123Y-82927217D02*
X174177439Y-84435901D01*
X172668755Y-82927217D01*
X174177439Y-81418533D01*
X175686123Y-82927217D01*
X175686123Y-82927217D01*
G37*
G36*
X131369000Y-83998000D02*
X129743000Y-83998000D01*
X129743000Y-82372000D01*
X131369000Y-82372000D01*
X131369000Y-83998000D01*
X131369000Y-83998000D01*
G37*
G36*
X133333142Y-82403242D02*
X133481102Y-82464530D01*
X133614258Y-82553502D01*
X133727498Y-82666742D01*
X133812134Y-82793408D01*
X133816471Y-82799900D01*
X133830354Y-82833417D01*
X133877758Y-82947858D01*
X133909000Y-83104925D01*
X133909000Y-83265075D01*
X133877758Y-83422142D01*
X133816470Y-83570102D01*
X133771683Y-83637130D01*
X133727499Y-83703257D01*
X133614257Y-83816499D01*
X133548130Y-83860683D01*
X133481102Y-83905470D01*
X133333142Y-83966758D01*
X133176075Y-83998000D01*
X133015925Y-83998000D01*
X132858858Y-83966758D01*
X132710898Y-83905470D01*
X132643870Y-83860683D01*
X132577743Y-83816499D01*
X132464501Y-83703257D01*
X132420317Y-83637130D01*
X132375530Y-83570102D01*
X132314242Y-83422142D01*
X132283000Y-83265075D01*
X132283000Y-83104925D01*
X132314242Y-82947858D01*
X132361646Y-82833417D01*
X132375529Y-82799900D01*
X132379867Y-82793408D01*
X132464502Y-82666742D01*
X132577742Y-82553502D01*
X132710898Y-82464530D01*
X132858858Y-82403242D01*
X133015925Y-82372000D01*
X133176075Y-82372000D01*
X133333142Y-82403242D01*
X133333142Y-82403242D01*
G37*
G36*
X190519350Y-81872676D02*
X190713494Y-81953093D01*
X190888224Y-82069844D01*
X191036812Y-82218432D01*
X191153563Y-82393162D01*
X191233980Y-82587306D01*
X191274976Y-82793408D01*
X191274976Y-83003552D01*
X191233980Y-83209654D01*
X191153563Y-83403798D01*
X191036812Y-83578528D01*
X190888224Y-83727116D01*
X190713494Y-83843867D01*
X190519350Y-83924284D01*
X190313248Y-83965280D01*
X190103104Y-83965280D01*
X189897002Y-83924284D01*
X189702858Y-83843867D01*
X189528128Y-83727116D01*
X189379540Y-83578528D01*
X189262789Y-83403798D01*
X189182372Y-83209654D01*
X189141376Y-83003552D01*
X189141376Y-82793408D01*
X189182372Y-82587306D01*
X189262789Y-82393162D01*
X189379540Y-82218432D01*
X189528128Y-82069844D01*
X189702858Y-81953093D01*
X189897002Y-81872676D01*
X190103104Y-81831680D01*
X190313248Y-81831680D01*
X190519350Y-81872676D01*
X190519350Y-81872676D01*
G37*
G36*
X142297062Y-81023527D02*
X142297064Y-81023528D01*
X142297065Y-81023528D01*
X142465787Y-81093414D01*
X142616948Y-81194417D01*
X142617635Y-81194876D01*
X142746764Y-81324005D01*
X142746766Y-81324008D01*
X142848226Y-81475853D01*
X142918112Y-81644575D01*
X142918113Y-81644578D01*
X142953740Y-81823687D01*
X142953740Y-82006313D01*
X142937100Y-82089969D01*
X142918112Y-82185425D01*
X142848226Y-82354147D01*
X142774471Y-82464529D01*
X142746764Y-82505995D01*
X142617635Y-82635124D01*
X142617632Y-82635126D01*
X142465787Y-82736586D01*
X142297065Y-82806472D01*
X142297064Y-82806472D01*
X142297062Y-82806473D01*
X142117953Y-82842100D01*
X141935327Y-82842100D01*
X141756218Y-82806473D01*
X141756216Y-82806472D01*
X141756215Y-82806472D01*
X141587493Y-82736586D01*
X141435648Y-82635126D01*
X141435645Y-82635124D01*
X141306516Y-82505995D01*
X141278809Y-82464529D01*
X141205054Y-82354147D01*
X141135168Y-82185425D01*
X141116181Y-82089969D01*
X141099540Y-82006313D01*
X141099540Y-81823687D01*
X141135167Y-81644578D01*
X141135168Y-81644575D01*
X141205054Y-81475853D01*
X141306514Y-81324008D01*
X141306516Y-81324005D01*
X141435645Y-81194876D01*
X141436332Y-81194417D01*
X141587493Y-81093414D01*
X141756215Y-81023528D01*
X141756216Y-81023528D01*
X141756218Y-81023527D01*
X141935327Y-80987900D01*
X142117953Y-80987900D01*
X142297062Y-81023527D01*
X142297062Y-81023527D01*
G37*
G36*
X147295782Y-81023527D02*
X147295784Y-81023528D01*
X147295785Y-81023528D01*
X147464507Y-81093414D01*
X147615668Y-81194417D01*
X147616355Y-81194876D01*
X147745484Y-81324005D01*
X147745486Y-81324008D01*
X147846946Y-81475853D01*
X147916832Y-81644575D01*
X147916833Y-81644578D01*
X147952460Y-81823687D01*
X147952460Y-82006313D01*
X147935820Y-82089969D01*
X147916832Y-82185425D01*
X147846946Y-82354147D01*
X147773191Y-82464529D01*
X147745484Y-82505995D01*
X147616355Y-82635124D01*
X147616352Y-82635126D01*
X147464507Y-82736586D01*
X147295785Y-82806472D01*
X147295784Y-82806472D01*
X147295782Y-82806473D01*
X147116673Y-82842100D01*
X146934047Y-82842100D01*
X146754938Y-82806473D01*
X146754936Y-82806472D01*
X146754935Y-82806472D01*
X146586213Y-82736586D01*
X146434368Y-82635126D01*
X146434365Y-82635124D01*
X146305236Y-82505995D01*
X146277529Y-82464529D01*
X146203774Y-82354147D01*
X146133888Y-82185425D01*
X146114901Y-82089969D01*
X146098260Y-82006313D01*
X146098260Y-81823687D01*
X146133887Y-81644578D01*
X146133888Y-81644575D01*
X146203774Y-81475853D01*
X146305234Y-81324008D01*
X146305236Y-81324005D01*
X146434365Y-81194876D01*
X146435052Y-81194417D01*
X146586213Y-81093414D01*
X146754935Y-81023528D01*
X146754936Y-81023528D01*
X146754938Y-81023527D01*
X146934047Y-80987900D01*
X147116673Y-80987900D01*
X147295782Y-81023527D01*
X147295782Y-81023527D01*
G37*
G36*
X165504013Y-80158157D02*
X165594616Y-80185642D01*
X165678123Y-80230278D01*
X165751313Y-80290343D01*
X165811378Y-80363533D01*
X165856014Y-80447040D01*
X165883499Y-80537643D01*
X165893384Y-80638012D01*
X165893384Y-81842932D01*
X165883499Y-81943301D01*
X165856014Y-82033904D01*
X165811378Y-82117411D01*
X165751313Y-82190601D01*
X165678123Y-82250666D01*
X165594616Y-82295302D01*
X165504013Y-82322787D01*
X165403644Y-82332672D01*
X164198724Y-82332672D01*
X164098355Y-82322787D01*
X164007752Y-82295302D01*
X163924245Y-82250666D01*
X163851055Y-82190601D01*
X163790990Y-82117411D01*
X163746354Y-82033904D01*
X163718869Y-81943301D01*
X163708984Y-81842932D01*
X163708984Y-80638012D01*
X163718869Y-80537643D01*
X163746354Y-80447040D01*
X163790990Y-80363533D01*
X163851055Y-80290343D01*
X163924245Y-80230278D01*
X164007752Y-80185642D01*
X164098355Y-80158157D01*
X164198724Y-80148272D01*
X165403644Y-80148272D01*
X165504013Y-80158157D01*
X165504013Y-80158157D01*
G37*
G36*
X156229767Y-80190244D02*
X156428534Y-80272576D01*
X156607423Y-80392106D01*
X156759550Y-80544233D01*
X156879080Y-80723122D01*
X156961412Y-80921889D01*
X157003384Y-81132898D01*
X157003384Y-81348046D01*
X156961412Y-81559055D01*
X156879080Y-81757822D01*
X156759550Y-81936711D01*
X156607423Y-82088838D01*
X156428534Y-82208368D01*
X156229767Y-82290700D01*
X156018758Y-82332672D01*
X155803610Y-82332672D01*
X155592601Y-82290700D01*
X155393834Y-82208368D01*
X155214945Y-82088838D01*
X155062818Y-81936711D01*
X154943288Y-81757822D01*
X154860956Y-81559055D01*
X154818984Y-81348046D01*
X154818984Y-81132898D01*
X154860956Y-80921889D01*
X154943288Y-80723122D01*
X155062818Y-80544233D01*
X155214945Y-80392106D01*
X155393834Y-80272576D01*
X155592601Y-80190244D01*
X155803610Y-80148272D01*
X156018758Y-80148272D01*
X156229767Y-80190244D01*
X156229767Y-80190244D01*
G37*
G36*
X134854112Y-75273566D02*
X135032917Y-75309133D01*
X135369777Y-75448665D01*
X135557041Y-75573791D01*
X135672947Y-75651237D01*
X135930763Y-75909053D01*
X135930765Y-75909056D01*
X136133335Y-76212223D01*
X136226617Y-76437426D01*
X136272867Y-76549084D01*
X136314970Y-76760746D01*
X136344000Y-76906692D01*
X136344000Y-77271308D01*
X136272867Y-77628917D01*
X136133335Y-77965777D01*
X135969181Y-78211450D01*
X135930763Y-78268947D01*
X135672947Y-78526763D01*
X135672944Y-78526765D01*
X135369777Y-78729335D01*
X135032917Y-78868867D01*
X134854113Y-78904433D01*
X134675309Y-78940000D01*
X134310691Y-78940000D01*
X134131887Y-78904433D01*
X133953083Y-78868867D01*
X133616223Y-78729335D01*
X133313056Y-78526765D01*
X133313053Y-78526763D01*
X133055237Y-78268947D01*
X133016819Y-78211450D01*
X132852665Y-77965777D01*
X132713133Y-77628917D01*
X132642000Y-77271308D01*
X132642000Y-76906692D01*
X132671031Y-76760746D01*
X132713133Y-76549084D01*
X132759383Y-76437426D01*
X132852665Y-76212223D01*
X133055235Y-75909056D01*
X133055237Y-75909053D01*
X133313053Y-75651237D01*
X133428959Y-75573791D01*
X133616223Y-75448665D01*
X133953083Y-75309133D01*
X134131888Y-75273566D01*
X134310691Y-75238000D01*
X134675309Y-75238000D01*
X134854112Y-75273566D01*
X134854112Y-75273566D01*
G37*
G36*
X197378013Y-77237327D02*
X195869329Y-78746011D01*
X194360645Y-77237327D01*
X195869329Y-75728643D01*
X197378013Y-77237327D01*
X197378013Y-77237327D01*
G37*
G36*
X143027400Y-78725872D02*
X140944600Y-78725872D01*
X140944600Y-76643072D01*
X143027400Y-76643072D01*
X143027400Y-78725872D01*
X143027400Y-78725872D01*
G37*
G36*
X144829765Y-76683092D02*
X145019289Y-76761595D01*
X145189855Y-76875564D01*
X145334908Y-77020617D01*
X145448877Y-77191183D01*
X145527380Y-77380707D01*
X145567400Y-77581902D01*
X145567400Y-77787042D01*
X145527380Y-77988237D01*
X145448877Y-78177761D01*
X145334908Y-78348327D01*
X145189855Y-78493380D01*
X145019289Y-78607349D01*
X144829765Y-78685852D01*
X144628570Y-78725872D01*
X144423430Y-78725872D01*
X144222235Y-78685852D01*
X144032711Y-78607349D01*
X143862145Y-78493380D01*
X143717092Y-78348327D01*
X143603123Y-78177761D01*
X143524620Y-77988237D01*
X143484600Y-77787042D01*
X143484600Y-77581902D01*
X143524620Y-77380707D01*
X143603123Y-77191183D01*
X143717092Y-77020617D01*
X143862145Y-76875564D01*
X144032711Y-76761595D01*
X144222235Y-76683092D01*
X144423430Y-76643072D01*
X144628570Y-76643072D01*
X144829765Y-76683092D01*
X144829765Y-76683092D01*
G37*
G36*
X147369765Y-76683092D02*
X147559289Y-76761595D01*
X147729855Y-76875564D01*
X147874908Y-77020617D01*
X147988877Y-77191183D01*
X148067380Y-77380707D01*
X148107400Y-77581902D01*
X148107400Y-77787042D01*
X148067380Y-77988237D01*
X147988877Y-78177761D01*
X147874908Y-78348327D01*
X147729855Y-78493380D01*
X147559289Y-78607349D01*
X147369765Y-78685852D01*
X147168570Y-78725872D01*
X146963430Y-78725872D01*
X146762235Y-78685852D01*
X146572711Y-78607349D01*
X146402145Y-78493380D01*
X146257092Y-78348327D01*
X146143123Y-78177761D01*
X146064620Y-77988237D01*
X146024600Y-77787042D01*
X146024600Y-77581902D01*
X146064620Y-77380707D01*
X146143123Y-77191183D01*
X146257092Y-77020617D01*
X146402145Y-76875564D01*
X146572711Y-76761595D01*
X146762235Y-76683092D01*
X146963430Y-76643072D01*
X147168570Y-76643072D01*
X147369765Y-76683092D01*
X147369765Y-76683092D01*
G37*
G36*
X158775400Y-78725872D02*
X156692600Y-78725872D01*
X156692600Y-76643072D01*
X158775400Y-76643072D01*
X158775400Y-78725872D01*
X158775400Y-78725872D01*
G37*
G36*
X160577765Y-76683092D02*
X160767289Y-76761595D01*
X160937855Y-76875564D01*
X161082908Y-77020617D01*
X161196877Y-77191183D01*
X161275380Y-77380707D01*
X161315400Y-77581902D01*
X161315400Y-77787042D01*
X161275380Y-77988237D01*
X161196877Y-78177761D01*
X161082908Y-78348327D01*
X160937855Y-78493380D01*
X160767289Y-78607349D01*
X160577765Y-78685852D01*
X160376570Y-78725872D01*
X160171430Y-78725872D01*
X159970235Y-78685852D01*
X159780711Y-78607349D01*
X159610145Y-78493380D01*
X159465092Y-78348327D01*
X159351123Y-78177761D01*
X159272620Y-77988237D01*
X159232600Y-77787042D01*
X159232600Y-77581902D01*
X159272620Y-77380707D01*
X159351123Y-77191183D01*
X159465092Y-77020617D01*
X159610145Y-76875564D01*
X159780711Y-76761595D01*
X159970235Y-76683092D01*
X160171430Y-76643072D01*
X160376570Y-76643072D01*
X160577765Y-76683092D01*
X160577765Y-76683092D01*
G37*
G36*
X163117765Y-76683092D02*
X163307289Y-76761595D01*
X163477855Y-76875564D01*
X163622908Y-77020617D01*
X163736877Y-77191183D01*
X163815380Y-77380707D01*
X163855400Y-77581902D01*
X163855400Y-77787042D01*
X163815380Y-77988237D01*
X163736877Y-78177761D01*
X163622908Y-78348327D01*
X163477855Y-78493380D01*
X163307289Y-78607349D01*
X163117765Y-78685852D01*
X162916570Y-78725872D01*
X162711430Y-78725872D01*
X162510235Y-78685852D01*
X162320711Y-78607349D01*
X162150145Y-78493380D01*
X162005092Y-78348327D01*
X161891123Y-78177761D01*
X161812620Y-77988237D01*
X161772600Y-77787042D01*
X161772600Y-77581902D01*
X161812620Y-77380707D01*
X161891123Y-77191183D01*
X162005092Y-77020617D01*
X162150145Y-76875564D01*
X162320711Y-76761595D01*
X162510235Y-76683092D01*
X162711430Y-76643072D01*
X162916570Y-76643072D01*
X163117765Y-76683092D01*
X163117765Y-76683092D01*
G37*
G36*
X180149766Y-76240260D02*
X180343910Y-76320677D01*
X180518640Y-76437428D01*
X180667228Y-76586016D01*
X180783979Y-76760746D01*
X180864396Y-76954890D01*
X180905392Y-77160992D01*
X180905392Y-77371136D01*
X180864396Y-77577238D01*
X180783979Y-77771382D01*
X180667228Y-77946112D01*
X180518640Y-78094700D01*
X180343910Y-78211451D01*
X180149766Y-78291868D01*
X179943664Y-78332864D01*
X179733520Y-78332864D01*
X179527418Y-78291868D01*
X179333274Y-78211451D01*
X179158544Y-78094700D01*
X179009956Y-77946112D01*
X178893205Y-77771382D01*
X178812788Y-77577238D01*
X178771792Y-77371136D01*
X178771792Y-77160992D01*
X178812788Y-76954890D01*
X178893205Y-76760746D01*
X179009956Y-76586016D01*
X179158544Y-76437428D01*
X179333274Y-76320677D01*
X179527418Y-76240260D01*
X179733520Y-76199264D01*
X179943664Y-76199264D01*
X180149766Y-76240260D01*
X180149766Y-76240260D01*
G37*
G36*
X185400112Y-72733566D02*
X185578917Y-72769133D01*
X185915777Y-72908665D01*
X186216902Y-73109870D01*
X186218947Y-73111237D01*
X186476763Y-73369053D01*
X186476765Y-73369056D01*
X186679335Y-73672223D01*
X186679335Y-73672224D01*
X186818867Y-74009084D01*
X186890000Y-74366691D01*
X186890000Y-74731309D01*
X186854433Y-74910113D01*
X186818867Y-75088917D01*
X186679335Y-75425777D01*
X186528687Y-75651237D01*
X186476763Y-75728947D01*
X186218947Y-75986763D01*
X186218944Y-75986765D01*
X185915777Y-76189335D01*
X185578917Y-76328867D01*
X185400113Y-76364433D01*
X185221309Y-76400000D01*
X184856691Y-76400000D01*
X184677887Y-76364433D01*
X184499083Y-76328867D01*
X184162223Y-76189335D01*
X183859056Y-75986765D01*
X183859053Y-75986763D01*
X183601237Y-75728947D01*
X183549313Y-75651237D01*
X183398665Y-75425777D01*
X183259133Y-75088917D01*
X183223567Y-74910113D01*
X183188000Y-74731309D01*
X183188000Y-74366691D01*
X183259133Y-74009084D01*
X183398665Y-73672224D01*
X183398665Y-73672223D01*
X183601235Y-73369056D01*
X183601237Y-73369053D01*
X183859053Y-73111237D01*
X183861098Y-73109870D01*
X184162223Y-72908665D01*
X184499083Y-72769133D01*
X184677888Y-72733566D01*
X184856691Y-72698000D01*
X185221309Y-72698000D01*
X185400112Y-72733566D01*
X185400112Y-72733566D01*
G37*
G36*
X128771290Y-74883689D02*
X128889761Y-74932761D01*
X128996392Y-75004010D01*
X129087062Y-75094680D01*
X129158311Y-75201311D01*
X129207383Y-75319782D01*
X129232400Y-75445553D01*
X129232400Y-75573791D01*
X129207383Y-75699562D01*
X129158311Y-75818033D01*
X129087062Y-75924664D01*
X128996392Y-76015334D01*
X128889761Y-76086583D01*
X128771290Y-76135655D01*
X128645519Y-76160672D01*
X128517281Y-76160672D01*
X128391510Y-76135655D01*
X128273039Y-76086583D01*
X128166408Y-76015334D01*
X128075738Y-75924664D01*
X128004489Y-75818033D01*
X127955417Y-75699562D01*
X127930400Y-75573791D01*
X127930400Y-75445553D01*
X127955417Y-75319782D01*
X128004489Y-75201311D01*
X128075738Y-75094680D01*
X128166408Y-75004010D01*
X128273039Y-74932761D01*
X128391510Y-74883689D01*
X128517281Y-74858672D01*
X128645519Y-74858672D01*
X128771290Y-74883689D01*
X128771290Y-74883689D01*
G37*
G36*
X130771290Y-74883689D02*
X130889761Y-74932761D01*
X130996392Y-75004010D01*
X131087062Y-75094680D01*
X131158311Y-75201311D01*
X131207383Y-75319782D01*
X131232400Y-75445553D01*
X131232400Y-75573791D01*
X131207383Y-75699562D01*
X131158311Y-75818033D01*
X131087062Y-75924664D01*
X130996392Y-76015334D01*
X130889761Y-76086583D01*
X130771290Y-76135655D01*
X130645519Y-76160672D01*
X130517281Y-76160672D01*
X130391510Y-76135655D01*
X130273039Y-76086583D01*
X130166408Y-76015334D01*
X130075738Y-75924664D01*
X130004489Y-75818033D01*
X129955417Y-75699562D01*
X129930400Y-75573791D01*
X129930400Y-75445553D01*
X129955417Y-75319782D01*
X130004489Y-75201311D01*
X130075738Y-75094680D01*
X130166408Y-75004010D01*
X130273039Y-74932761D01*
X130391510Y-74883689D01*
X130517281Y-74858672D01*
X130645519Y-74858672D01*
X130771290Y-74883689D01*
X130771290Y-74883689D01*
G37*
M02*
